<?xml version="1.0" encoding="utf-8"?>
<!-- Generator: Adobe Illustrator 24.3.0, SVG Export Plug-In . SVG Version: 6.00 Build 0)  -->
<svg version="1.1" id="Слой_1" xmlns="http://www.w3.org/2000/svg" xmlns:xlink="http://www.w3.org/1999/xlink" x="0px" y="0px"
	 viewBox="0 0 85.04 28.35" style="enable-background:new 0 0 85.04 28.35;" xml:space="preserve">
<g>
	<path d="M32.21,11.31c0-0.25-0.09-0.44-0.26-0.58s-0.49-0.27-0.95-0.41s-0.82-0.29-1.09-0.46c-0.52-0.33-0.78-0.75-0.78-1.27
		c0-0.46,0.19-0.84,0.56-1.13s0.86-0.45,1.46-0.45c0.4,0,0.75,0.07,1.06,0.22s0.55,0.35,0.73,0.62s0.27,0.57,0.27,0.9h-0.98
		c0-0.3-0.09-0.53-0.28-0.7s-0.45-0.25-0.8-0.25c-0.32,0-0.57,0.07-0.75,0.21s-0.27,0.33-0.27,0.58c0,0.21,0.1,0.38,0.29,0.52
		s0.51,0.27,0.95,0.41s0.8,0.28,1.07,0.45s0.46,0.36,0.59,0.58s0.19,0.47,0.19,0.76c0,0.47-0.18,0.85-0.54,1.13
		s-0.86,0.42-1.48,0.42c-0.41,0-0.79-0.08-1.13-0.23s-0.61-0.36-0.8-0.63s-0.29-0.58-0.29-0.94h0.99c0,0.32,0.11,0.57,0.32,0.75
		s0.52,0.27,0.92,0.27c0.34,0,0.6-0.07,0.78-0.21S32.21,11.54,32.21,11.31z"/>
	<path d="M37.25,11.45h-2.2l-0.46,1.32h-1.03l2.15-5.69h0.89l2.15,5.69h-1.03L37.25,11.45z M35.33,10.66h1.65L36.15,8.3L35.33,10.66
		z"/>
	<path d="M42.67,10.37h-2.29v2.41h-0.99V7.09h3.61v0.8h-2.62v1.69h2.29V10.37z"/>
	<path d="M47.11,10.24h-2.34v1.75h2.73v0.79h-3.72V7.09h3.69v0.8h-2.7v1.57h2.34V10.24z"/>
	<path d="M52.5,7.89h-1.77v4.89h-0.98V7.89h-1.76v-0.8h4.51V7.89z"/>
	<path d="M55.16,9.79l1.31-2.7h1.09l-1.91,3.59v2.09h-0.99v-2.09l-1.91-3.59h1.1L55.16,9.79z"/>
</g>
<g>
	<path d="M29.37,19.21v0.39h0.28v0.26h-0.28v0.88c0,0.06,0.01,0.1,0.04,0.13c0.02,0.03,0.07,0.04,0.13,0.04c0.04,0,0.08,0,0.12-0.01
		v0.28c-0.08,0.02-0.16,0.03-0.23,0.03c-0.27,0-0.41-0.15-0.41-0.45v-0.9h-0.26V19.6h0.26v-0.39H29.37z"/>
	<path d="M29.82,20.38c0-0.16,0.03-0.3,0.09-0.42c0.06-0.12,0.15-0.22,0.26-0.29c0.11-0.07,0.24-0.1,0.38-0.1
		c0.21,0,0.39,0.07,0.52,0.21c0.13,0.14,0.21,0.32,0.22,0.55l0,0.08c0,0.16-0.03,0.3-0.09,0.42c-0.06,0.12-0.15,0.22-0.26,0.29
		c-0.11,0.07-0.24,0.1-0.39,0.1c-0.22,0-0.4-0.07-0.54-0.22c-0.13-0.15-0.2-0.35-0.2-0.59V20.38z M30.17,20.41
		c0,0.16,0.03,0.29,0.1,0.38c0.07,0.09,0.16,0.14,0.28,0.14s0.21-0.05,0.28-0.14c0.07-0.09,0.1-0.23,0.1-0.41
		c0-0.16-0.03-0.29-0.1-0.38c-0.07-0.09-0.16-0.14-0.28-0.14c-0.12,0-0.21,0.05-0.28,0.14C30.21,20.08,30.17,20.22,30.17,20.41z"/>
	<path d="M33.73,20.41c0,0.25-0.05,0.44-0.17,0.59c-0.11,0.15-0.26,0.22-0.45,0.22c-0.19,0-0.33-0.07-0.43-0.2l-0.02,0.17h-0.32
		v-2.25h0.36v0.82c0.1-0.12,0.24-0.18,0.41-0.18c0.19,0,0.35,0.07,0.46,0.22c0.11,0.14,0.17,0.34,0.17,0.6V20.41z M33.37,20.38
		c0-0.17-0.03-0.3-0.09-0.39s-0.15-0.13-0.26-0.13c-0.15,0-0.26,0.07-0.33,0.2v0.65c0.06,0.14,0.17,0.21,0.33,0.21
		c0.11,0,0.2-0.04,0.26-0.12s0.09-0.21,0.09-0.38V20.38z"/>
	<path d="M34.72,21.21c-0.23,0-0.41-0.07-0.55-0.21c-0.14-0.14-0.21-0.33-0.21-0.57v-0.04c0-0.16,0.03-0.3,0.09-0.42
		c0.06-0.12,0.15-0.22,0.26-0.29s0.23-0.1,0.37-0.1c0.22,0,0.38,0.07,0.5,0.21c0.12,0.14,0.18,0.33,0.18,0.58v0.14h-1.04
		c0.01,0.13,0.05,0.23,0.13,0.31s0.17,0.11,0.29,0.11c0.16,0,0.3-0.07,0.4-0.2l0.19,0.18c-0.06,0.09-0.15,0.17-0.25,0.22
		C34.97,21.18,34.86,21.21,34.72,21.21z M34.68,19.85c-0.1,0-0.18,0.03-0.24,0.1c-0.06,0.07-0.1,0.16-0.12,0.29h0.68v-0.03
		c-0.01-0.12-0.04-0.21-0.1-0.27C34.86,19.88,34.78,19.85,34.68,19.85z"/>
	<path d="M37.27,20.75c0-0.06-0.03-0.11-0.08-0.15c-0.05-0.03-0.14-0.06-0.26-0.09c-0.12-0.02-0.22-0.06-0.3-0.1
		c-0.18-0.09-0.27-0.21-0.27-0.37c0-0.14,0.06-0.25,0.17-0.34s0.26-0.14,0.44-0.14c0.19,0,0.34,0.05,0.46,0.14
		c0.12,0.09,0.17,0.22,0.17,0.36h-0.36c0-0.07-0.03-0.12-0.08-0.17c-0.05-0.05-0.12-0.07-0.2-0.07c-0.08,0-0.14,0.02-0.19,0.05
		c-0.05,0.04-0.07,0.08-0.07,0.14c0,0.05,0.02,0.1,0.07,0.13c0.05,0.03,0.14,0.06,0.28,0.09c0.14,0.03,0.25,0.07,0.33,0.11
		c0.08,0.04,0.14,0.09,0.18,0.15c0.04,0.06,0.06,0.13,0.06,0.22c0,0.14-0.06,0.26-0.18,0.35c-0.12,0.09-0.27,0.13-0.46,0.13
		c-0.13,0-0.25-0.02-0.35-0.07s-0.18-0.11-0.24-0.19s-0.08-0.17-0.08-0.27h0.35c0,0.08,0.04,0.15,0.1,0.19
		c0.06,0.05,0.14,0.07,0.23,0.07c0.09,0,0.17-0.02,0.21-0.05C37.25,20.86,37.27,20.81,37.27,20.75z"/>
	<path d="M38.88,21.18c-0.02-0.03-0.03-0.08-0.04-0.15c-0.11,0.12-0.25,0.18-0.42,0.18c-0.16,0-0.29-0.04-0.39-0.14
		c-0.1-0.09-0.15-0.2-0.15-0.34c0-0.17,0.06-0.3,0.19-0.39c0.12-0.09,0.3-0.14,0.54-0.14h0.22v-0.1c0-0.08-0.02-0.15-0.07-0.2
		c-0.05-0.05-0.12-0.07-0.21-0.07c-0.08,0-0.15,0.02-0.2,0.06c-0.05,0.04-0.08,0.09-0.08,0.15h-0.36c0-0.09,0.03-0.17,0.09-0.24
		c0.06-0.08,0.14-0.13,0.24-0.18c0.1-0.04,0.21-0.06,0.33-0.06c0.19,0,0.33,0.05,0.44,0.14c0.11,0.09,0.17,0.22,0.17,0.39v0.71
		c0,0.14,0.02,0.26,0.06,0.34v0.03H38.88z M38.49,20.93c0.07,0,0.14-0.02,0.2-0.05s0.11-0.08,0.14-0.14v-0.3h-0.19
		c-0.13,0-0.23,0.02-0.3,0.07c-0.07,0.05-0.1,0.11-0.1,0.2c0,0.07,0.02,0.12,0.07,0.16C38.35,20.91,38.41,20.93,38.49,20.93z"/>
	<path d="M39.68,21.18v-1.32h-0.24V19.6h0.24v-0.15c0-0.18,0.05-0.31,0.15-0.41s0.23-0.14,0.41-0.14c0.06,0,0.13,0.01,0.2,0.03
		l-0.01,0.28c-0.04-0.01-0.08-0.01-0.14-0.01c-0.17,0-0.26,0.09-0.26,0.26v0.14h0.32v0.26h-0.32v1.32H39.68z"/>
	<path d="M41.28,21.21c-0.23,0-0.41-0.07-0.55-0.21c-0.14-0.14-0.21-0.33-0.21-0.57v-0.04c0-0.16,0.03-0.3,0.09-0.42
		c0.06-0.12,0.15-0.22,0.26-0.29c0.11-0.07,0.23-0.1,0.37-0.1c0.21,0,0.38,0.07,0.5,0.21c0.12,0.14,0.18,0.33,0.18,0.58v0.14h-1.04
		c0.01,0.13,0.05,0.23,0.13,0.31c0.08,0.08,0.17,0.11,0.29,0.11c0.16,0,0.3-0.07,0.4-0.2l0.19,0.18c-0.06,0.09-0.15,0.17-0.25,0.22
		C41.53,21.18,41.41,21.21,41.28,21.21z M41.24,19.85c-0.1,0-0.18,0.03-0.24,0.1c-0.06,0.07-0.1,0.16-0.12,0.29h0.68v-0.03
		c-0.01-0.12-0.04-0.21-0.09-0.27C41.41,19.88,41.34,19.85,41.24,19.85z"/>
	<path d="M43.89,21.18c-0.02-0.03-0.03-0.08-0.04-0.15c-0.11,0.12-0.25,0.18-0.42,0.18c-0.16,0-0.29-0.04-0.39-0.14
		c-0.1-0.09-0.15-0.2-0.15-0.34c0-0.17,0.06-0.3,0.19-0.39c0.12-0.09,0.3-0.14,0.54-0.14h0.22v-0.1c0-0.08-0.02-0.15-0.07-0.2
		c-0.05-0.05-0.12-0.07-0.21-0.07c-0.08,0-0.15,0.02-0.2,0.06c-0.05,0.04-0.08,0.09-0.08,0.15h-0.36c0-0.09,0.03-0.17,0.09-0.24
		c0.06-0.08,0.14-0.13,0.24-0.18c0.1-0.04,0.21-0.06,0.33-0.06c0.19,0,0.33,0.05,0.44,0.14c0.11,0.09,0.17,0.22,0.17,0.39v0.71
		c0,0.14,0.02,0.26,0.06,0.34v0.03H43.89z M43.5,20.93c0.07,0,0.14-0.02,0.2-0.05c0.06-0.03,0.11-0.08,0.14-0.14v-0.3h-0.19
		c-0.13,0-0.23,0.02-0.3,0.07c-0.07,0.05-0.1,0.11-0.1,0.2c0,0.07,0.02,0.12,0.07,0.16C43.36,20.91,43.42,20.93,43.5,20.93z"/>
	<path d="M44.89,19.6l0.01,0.18c0.12-0.14,0.27-0.21,0.46-0.21c0.33,0,0.5,0.19,0.5,0.57v1.05h-0.36v-1.03
		c0-0.1-0.02-0.17-0.07-0.22c-0.04-0.05-0.12-0.07-0.21-0.07c-0.14,0-0.25,0.06-0.32,0.19v1.13h-0.36V19.6H44.89z"/>
	<path d="M46.16,20.38c0-0.24,0.06-0.44,0.17-0.59c0.11-0.15,0.27-0.22,0.46-0.22c0.17,0,0.3,0.06,0.41,0.18v-0.81h0.36v2.25h-0.32
		l-0.02-0.16c-0.11,0.13-0.25,0.19-0.43,0.19c-0.19,0-0.34-0.07-0.45-0.22C46.22,20.84,46.16,20.63,46.16,20.38z M46.52,20.41
		c0,0.16,0.03,0.29,0.09,0.38c0.06,0.09,0.15,0.14,0.26,0.14c0.15,0,0.25-0.06,0.32-0.19v-0.68c-0.07-0.13-0.17-0.19-0.32-0.19
		c-0.12,0-0.2,0.04-0.27,0.14C46.55,20.09,46.52,20.22,46.52,20.41z"/>
	<path d="M49.56,20.75c0-0.06-0.03-0.11-0.08-0.15c-0.05-0.03-0.14-0.06-0.26-0.09c-0.12-0.02-0.22-0.06-0.3-0.1
		c-0.18-0.09-0.27-0.21-0.27-0.37c0-0.14,0.06-0.25,0.17-0.34c0.11-0.09,0.26-0.14,0.44-0.14c0.19,0,0.34,0.05,0.46,0.14
		c0.12,0.09,0.17,0.22,0.17,0.36h-0.36c0-0.07-0.03-0.12-0.08-0.17c-0.05-0.05-0.12-0.07-0.2-0.07c-0.08,0-0.14,0.02-0.19,0.05
		C49.02,19.92,49,19.97,49,20.03c0,0.05,0.02,0.1,0.07,0.13c0.05,0.03,0.14,0.06,0.28,0.09c0.14,0.03,0.25,0.07,0.33,0.11
		c0.08,0.04,0.14,0.09,0.18,0.15c0.04,0.06,0.06,0.13,0.06,0.22c0,0.14-0.06,0.26-0.18,0.35c-0.12,0.09-0.27,0.13-0.46,0.13
		c-0.13,0-0.25-0.02-0.35-0.07s-0.18-0.11-0.24-0.19c-0.06-0.08-0.09-0.17-0.09-0.27h0.35c0,0.08,0.04,0.15,0.1,0.19
		c0.06,0.05,0.14,0.07,0.23,0.07c0.09,0,0.17-0.02,0.21-0.05C49.54,20.86,49.56,20.81,49.56,20.75z"/>
	<path d="M50.92,21.21c-0.23,0-0.41-0.07-0.55-0.21c-0.14-0.14-0.21-0.33-0.21-0.57v-0.04c0-0.16,0.03-0.3,0.09-0.42
		c0.06-0.12,0.15-0.22,0.26-0.29c0.11-0.07,0.23-0.1,0.37-0.1c0.21,0,0.38,0.07,0.5,0.21c0.12,0.14,0.18,0.33,0.18,0.58v0.14h-1.04
		c0.01,0.13,0.05,0.23,0.13,0.31c0.08,0.08,0.17,0.11,0.29,0.11c0.16,0,0.3-0.07,0.4-0.2l0.19,0.18c-0.06,0.09-0.15,0.17-0.25,0.22
		C51.17,21.18,51.05,21.21,50.92,21.21z M50.88,19.85c-0.1,0-0.18,0.03-0.24,0.1c-0.06,0.07-0.1,0.16-0.12,0.29h0.68v-0.03
		c-0.01-0.12-0.04-0.21-0.09-0.27C51.05,19.88,50.97,19.85,50.88,19.85z"/>
	<path d="M52.48,20.93c0.09,0,0.16-0.03,0.22-0.08s0.09-0.12,0.09-0.19h0.34c0,0.1-0.04,0.19-0.09,0.28
		c-0.06,0.08-0.14,0.15-0.23,0.2c-0.1,0.05-0.21,0.07-0.32,0.07c-0.22,0-0.4-0.07-0.53-0.21c-0.13-0.14-0.2-0.34-0.2-0.6v-0.04
		c0-0.24,0.06-0.43,0.19-0.58c0.13-0.15,0.3-0.22,0.53-0.22c0.19,0,0.34,0.05,0.46,0.17c0.12,0.11,0.18,0.25,0.19,0.43H52.8
		c0-0.09-0.04-0.17-0.09-0.22c-0.06-0.06-0.13-0.09-0.22-0.09c-0.12,0-0.21,0.04-0.27,0.12c-0.06,0.08-0.09,0.21-0.09,0.38v0.06
		c0,0.17,0.03,0.3,0.09,0.38C52.27,20.88,52.36,20.93,52.48,20.93z"/>
	<path d="M54.36,21.03c-0.1,0.12-0.25,0.18-0.45,0.18c-0.17,0-0.3-0.05-0.39-0.15c-0.09-0.1-0.13-0.25-0.13-0.44V19.6h0.36v1.02
		c0,0.2,0.08,0.3,0.25,0.3c0.17,0,0.29-0.06,0.35-0.19V19.6h0.36v1.58h-0.33L54.36,21.03z"/>
	<path d="M55.9,19.92c-0.05-0.01-0.09-0.01-0.14-0.01c-0.16,0-0.27,0.06-0.33,0.19v1.08h-0.36V19.6h0.34l0.01,0.18
		c0.09-0.14,0.21-0.21,0.36-0.21c0.05,0,0.09,0.01,0.13,0.02L55.9,19.92z"/>
	<path d="M56.79,21.21c-0.23,0-0.41-0.07-0.55-0.21c-0.14-0.14-0.21-0.33-0.21-0.57v-0.04c0-0.16,0.03-0.3,0.09-0.42
		c0.06-0.12,0.15-0.22,0.26-0.29c0.11-0.07,0.23-0.1,0.37-0.1c0.21,0,0.38,0.07,0.5,0.21c0.12,0.14,0.18,0.33,0.18,0.58v0.14h-1.04
		c0.01,0.13,0.05,0.23,0.13,0.31c0.08,0.08,0.17,0.11,0.29,0.11c0.16,0,0.3-0.07,0.4-0.2l0.19,0.18c-0.06,0.09-0.15,0.17-0.25,0.22
		C57.04,21.18,56.92,21.21,56.79,21.21z M56.75,19.85c-0.1,0-0.18,0.03-0.24,0.1c-0.06,0.07-0.1,0.16-0.12,0.29h0.68v-0.03
		c-0.01-0.12-0.04-0.21-0.09-0.27C56.93,19.88,56.85,19.85,56.75,19.85z"/>
</g>
</svg>
