<?xml version="1.0" encoding="utf-8"?>
<!-- Generator: Adobe Illustrator 24.3.0, SVG Export Plug-In . SVG Version: 6.00 Build 0)  -->
<svg version="1.1" id="Слой_1" xmlns="http://www.w3.org/2000/svg" xmlns:xlink="http://www.w3.org/1999/xlink" x="0px" y="0px"
	 viewBox="0 0 85.04 28.35" style="enable-background:new 0 0 85.04 28.35;" xml:space="preserve">
<g>
	<path d="M32.08,10.93c-0.06,0.61-0.28,1.08-0.67,1.42s-0.91,0.51-1.56,0.51c-0.45,0-0.85-0.11-1.2-0.32s-0.61-0.52-0.8-0.92
		s-0.29-0.86-0.29-1.38V9.71c0-0.54,0.1-1.01,0.29-1.42s0.46-0.72,0.82-0.95s0.77-0.33,1.23-0.33c0.63,0,1.13,0.17,1.52,0.51
		s0.61,0.82,0.67,1.44h-0.98c-0.05-0.41-0.17-0.7-0.36-0.88s-0.47-0.27-0.84-0.27c-0.43,0-0.76,0.16-0.99,0.47s-0.35,0.77-0.35,1.38
		v0.5c0,0.62,0.11,1.08,0.33,1.41s0.54,0.48,0.97,0.48c0.39,0,0.68-0.09,0.88-0.26s0.32-0.46,0.37-0.87H32.08z"/>
	<path d="M37.48,12.78h-0.98v-2.52h-2.54v2.52h-0.99V7.09h0.99v2.37h2.54V7.09h0.98V12.78z"/>
	<path d="M41.9,11.45h-2.2l-0.46,1.32h-1.03l2.15-5.69h0.89l2.15,5.69h-1.03L41.9,11.45z M39.97,10.66h1.65L40.8,8.3L39.97,10.66z"
		/>
	<path d="M48.55,12.78h-0.99l-2.54-4.04v4.04h-0.99V7.09h0.99l2.54,4.05V7.09h0.98V12.78z"/>
	<path d="M54.08,12.04c-0.21,0.27-0.49,0.47-0.86,0.61s-0.78,0.21-1.24,0.21c-0.48,0-0.9-0.11-1.27-0.32s-0.65-0.53-0.85-0.93
		s-0.3-0.87-0.31-1.41V9.75c0-0.86,0.21-1.53,0.62-2.01s0.99-0.72,1.72-0.72c0.63,0,1.14,0.16,1.51,0.47s0.6,0.77,0.67,1.35H53.1
		C53,8.15,52.6,7.81,51.91,7.81c-0.44,0-0.78,0.16-1.01,0.48s-0.35,0.79-0.36,1.4v0.44c0,0.61,0.13,1.09,0.39,1.43
		s0.62,0.51,1.08,0.51c0.5,0,0.86-0.11,1.08-0.34v-1.11h-1.17V9.86h2.16V12.04z"/>
	<path d="M58.49,10.24h-2.34v1.75h2.73v0.79h-3.72V7.09h3.69v0.8h-2.7v1.57h2.34V10.24z"/>
</g>
<g>
	<path d="M17.96,19.21v0.39h0.28v0.26h-0.28v0.88c0,0.06,0.01,0.1,0.04,0.13c0.02,0.03,0.07,0.04,0.13,0.04c0.04,0,0.08,0,0.12-0.01
		v0.28c-0.08,0.02-0.16,0.03-0.23,0.03c-0.27,0-0.41-0.15-0.41-0.45v-0.9h-0.26V19.6h0.26v-0.39H17.96z"/>
	<path d="M18.4,20.38c0-0.16,0.03-0.3,0.09-0.42c0.06-0.12,0.15-0.22,0.26-0.29c0.11-0.07,0.24-0.1,0.38-0.1
		c0.21,0,0.39,0.07,0.52,0.21c0.13,0.14,0.21,0.32,0.22,0.55l0,0.08c0,0.16-0.03,0.3-0.09,0.42c-0.06,0.12-0.15,0.22-0.26,0.29
		c-0.11,0.07-0.24,0.1-0.39,0.1c-0.22,0-0.4-0.07-0.54-0.22c-0.13-0.15-0.2-0.35-0.2-0.59V20.38z M18.76,20.41
		c0,0.16,0.03,0.29,0.1,0.38c0.07,0.09,0.16,0.14,0.28,0.14s0.21-0.05,0.28-0.14c0.07-0.09,0.1-0.23,0.1-0.41
		c0-0.16-0.03-0.29-0.1-0.38c-0.07-0.09-0.16-0.14-0.28-0.14c-0.12,0-0.21,0.05-0.28,0.14C18.79,20.08,18.76,20.22,18.76,20.41z"/>
	<path d="M21.27,19.77c0.12-0.13,0.26-0.2,0.44-0.2c0.34,0,0.51,0.19,0.51,0.58v1.04h-0.36v-1.02c0-0.11-0.02-0.19-0.07-0.23
		c-0.05-0.04-0.12-0.07-0.21-0.07c-0.14,0-0.25,0.06-0.32,0.19v1.13h-0.36v-2.25h0.36V19.77z"/>
	<path d="M23.54,21.18c-0.02-0.03-0.03-0.08-0.04-0.15c-0.11,0.12-0.25,0.18-0.42,0.18c-0.16,0-0.29-0.04-0.39-0.14
		c-0.1-0.09-0.15-0.2-0.15-0.34c0-0.17,0.06-0.3,0.19-0.39c0.12-0.09,0.3-0.14,0.54-0.14h0.22v-0.1c0-0.08-0.02-0.15-0.07-0.2
		c-0.05-0.05-0.12-0.07-0.21-0.07c-0.08,0-0.15,0.02-0.2,0.06c-0.05,0.04-0.08,0.09-0.08,0.15h-0.36c0-0.09,0.03-0.17,0.09-0.24
		c0.06-0.08,0.14-0.13,0.24-0.18c0.1-0.04,0.21-0.06,0.33-0.06c0.19,0,0.33,0.05,0.44,0.14c0.11,0.09,0.17,0.22,0.17,0.39v0.71
		c0,0.14,0.02,0.26,0.06,0.34v0.03H23.54z M23.14,20.93c0.07,0,0.14-0.02,0.2-0.05s0.11-0.08,0.14-0.14v-0.3h-0.19
		c-0.13,0-0.23,0.02-0.3,0.07c-0.07,0.05-0.1,0.11-0.1,0.2c0,0.07,0.02,0.12,0.07,0.16C23.01,20.91,23.07,20.93,23.14,20.93z"/>
	<path d="M24.75,20.73l0.34-1.13h0.37l-0.55,1.58h-0.31l-0.55-1.58h0.37L24.75,20.73z"/>
	<path d="M26.35,21.21c-0.23,0-0.41-0.07-0.55-0.21c-0.14-0.14-0.21-0.33-0.21-0.57v-0.04c0-0.16,0.03-0.3,0.09-0.42
		c0.06-0.12,0.15-0.22,0.26-0.29s0.23-0.1,0.37-0.1c0.22,0,0.38,0.07,0.5,0.21c0.12,0.14,0.18,0.33,0.18,0.58v0.14h-1.04
		c0.01,0.13,0.05,0.23,0.13,0.31s0.17,0.11,0.29,0.11c0.16,0,0.3-0.07,0.4-0.2l0.19,0.18c-0.06,0.09-0.15,0.17-0.25,0.22
		C26.6,21.18,26.48,21.21,26.35,21.21z M26.31,19.85c-0.1,0-0.18,0.03-0.24,0.1c-0.06,0.07-0.1,0.16-0.12,0.29h0.68v-0.03
		c-0.01-0.12-0.04-0.21-0.1-0.27C26.49,19.88,26.41,19.85,26.31,19.85z"/>
	<path d="M28.96,21.18c-0.02-0.03-0.03-0.08-0.04-0.15c-0.11,0.12-0.25,0.18-0.42,0.18c-0.16,0-0.29-0.04-0.39-0.14
		c-0.1-0.09-0.15-0.2-0.15-0.34c0-0.17,0.06-0.3,0.19-0.39c0.12-0.09,0.3-0.14,0.54-0.14h0.22v-0.1c0-0.08-0.02-0.15-0.07-0.2
		c-0.05-0.05-0.12-0.07-0.21-0.07c-0.08,0-0.15,0.02-0.2,0.06c-0.05,0.04-0.08,0.09-0.08,0.15h-0.36c0-0.09,0.03-0.17,0.09-0.24
		c0.06-0.08,0.14-0.13,0.24-0.18c0.1-0.04,0.21-0.06,0.33-0.06c0.19,0,0.33,0.05,0.44,0.14c0.11,0.09,0.17,0.22,0.17,0.39v0.71
		c0,0.14,0.02,0.26,0.06,0.34v0.03H28.96z M28.57,20.93c0.07,0,0.14-0.02,0.2-0.05s0.11-0.08,0.14-0.14v-0.3h-0.19
		c-0.13,0-0.23,0.02-0.3,0.07c-0.07,0.05-0.1,0.11-0.1,0.2c0,0.07,0.02,0.12,0.07,0.16C28.43,20.91,28.49,20.93,28.57,20.93z"/>
	<path d="M30.76,21.18H30.4v-2.25h0.36V21.18z"/>
	<path d="M31.15,19.19c0-0.05,0.02-0.1,0.05-0.14c0.03-0.04,0.08-0.05,0.15-0.05s0.11,0.02,0.15,0.05s0.05,0.08,0.05,0.14
		c0,0.05-0.02,0.1-0.05,0.13c-0.04,0.04-0.08,0.05-0.15,0.05s-0.11-0.02-0.15-0.05C31.17,19.28,31.15,19.24,31.15,19.19z
		 M31.53,21.18h-0.36V19.6h0.36V21.18z"/>
	<path d="M32.04,21.18v-1.32H31.8V19.6h0.24v-0.15c0-0.18,0.05-0.31,0.15-0.41s0.23-0.14,0.41-0.14c0.06,0,0.13,0.01,0.2,0.03
		l-0.01,0.28c-0.04-0.01-0.08-0.01-0.14-0.01c-0.17,0-0.25,0.09-0.25,0.26v0.14h0.32v0.26H32.4v1.32H32.04z"/>
	<path d="M33.64,21.21c-0.23,0-0.41-0.07-0.55-0.21c-0.14-0.14-0.21-0.33-0.21-0.57v-0.04c0-0.16,0.03-0.3,0.09-0.42
		c0.06-0.12,0.15-0.22,0.26-0.29s0.23-0.1,0.37-0.1c0.22,0,0.38,0.07,0.5,0.21c0.12,0.14,0.18,0.33,0.18,0.58v0.14h-1.04
		c0.01,0.13,0.05,0.23,0.13,0.31s0.17,0.11,0.29,0.11c0.16,0,0.3-0.07,0.4-0.2l0.19,0.18c-0.06,0.09-0.15,0.17-0.25,0.22
		C33.89,21.18,33.77,21.21,33.64,21.21z M33.6,19.85c-0.1,0-0.18,0.03-0.24,0.1c-0.06,0.07-0.1,0.16-0.12,0.29h0.68v-0.03
		c-0.01-0.12-0.04-0.21-0.1-0.27C33.77,19.88,33.7,19.85,33.6,19.85z"/>
	<path d="M35.42,21.18v-1.32h-0.24V19.6h0.24v-0.15c0-0.18,0.05-0.31,0.15-0.41s0.23-0.14,0.41-0.14c0.06,0,0.13,0.01,0.2,0.03
		l-0.01,0.28c-0.04-0.01-0.08-0.01-0.14-0.01c-0.17,0-0.25,0.09-0.25,0.26v0.14h0.32v0.26h-0.32v1.32H35.42z"/>
	<path d="M37.32,21.03c-0.1,0.12-0.25,0.18-0.45,0.18c-0.17,0-0.3-0.05-0.39-0.15s-0.13-0.25-0.13-0.44V19.6h0.36v1.02
		c0,0.2,0.08,0.3,0.25,0.3c0.17,0,0.29-0.06,0.35-0.19V19.6h0.36v1.58h-0.34L37.32,21.03z"/>
	<path d="M38.41,21.18h-0.36v-2.25h0.36V21.18z"/>
	<path d="M39.17,21.18h-0.36v-2.25h0.36V21.18z"/>
	<path d="M40.24,20.38c0-0.16,0.03-0.3,0.09-0.42c0.06-0.12,0.15-0.22,0.26-0.29c0.11-0.07,0.24-0.1,0.38-0.1
		c0.21,0,0.39,0.07,0.52,0.21c0.13,0.14,0.21,0.32,0.22,0.55l0,0.08c0,0.16-0.03,0.3-0.09,0.42c-0.06,0.12-0.15,0.22-0.26,0.29
		c-0.11,0.07-0.24,0.1-0.39,0.1c-0.22,0-0.4-0.07-0.54-0.22c-0.13-0.15-0.2-0.35-0.2-0.59V20.38z M40.6,20.41
		c0,0.16,0.03,0.29,0.1,0.38c0.07,0.09,0.16,0.14,0.28,0.14c0.12,0,0.21-0.05,0.28-0.14c0.07-0.09,0.1-0.23,0.1-0.41
		c0-0.16-0.03-0.29-0.1-0.38c-0.07-0.09-0.16-0.14-0.28-0.14s-0.21,0.05-0.28,0.14C40.63,20.08,40.6,20.22,40.6,20.41z"/>
	<path d="M42.14,21.18v-1.32H41.9V19.6h0.24v-0.15c0-0.18,0.05-0.31,0.15-0.41s0.23-0.14,0.41-0.14c0.06,0,0.13,0.01,0.2,0.03
		l-0.01,0.28c-0.04-0.01-0.08-0.01-0.14-0.01c-0.17,0-0.25,0.09-0.25,0.26v0.14h0.32v0.26H42.5v1.32H42.14z"/>
	<path d="M44.48,20.93c0.09,0,0.16-0.03,0.22-0.08s0.09-0.12,0.09-0.19h0.34c0,0.1-0.04,0.19-0.09,0.28
		c-0.06,0.08-0.14,0.15-0.23,0.2c-0.1,0.05-0.21,0.07-0.32,0.07c-0.22,0-0.4-0.07-0.53-0.21c-0.13-0.14-0.2-0.34-0.2-0.6v-0.04
		c0-0.24,0.06-0.43,0.19-0.58c0.13-0.15,0.3-0.22,0.53-0.22c0.19,0,0.34,0.05,0.46,0.17c0.12,0.11,0.18,0.25,0.19,0.43h-0.34
		c0-0.09-0.04-0.17-0.09-0.22c-0.06-0.06-0.13-0.09-0.22-0.09c-0.12,0-0.21,0.04-0.27,0.12c-0.06,0.08-0.09,0.21-0.09,0.38v0.06
		c0,0.17,0.03,0.3,0.09,0.38C44.27,20.88,44.36,20.93,44.48,20.93z"/>
	<path d="M45.75,19.77c0.12-0.13,0.26-0.2,0.44-0.2c0.34,0,0.51,0.19,0.51,0.58v1.04h-0.36v-1.02c0-0.11-0.02-0.19-0.07-0.23
		c-0.05-0.04-0.12-0.07-0.21-0.07c-0.14,0-0.25,0.06-0.32,0.19v1.13h-0.36v-2.25h0.36V19.77z"/>
	<path d="M48.01,21.18c-0.02-0.03-0.03-0.08-0.04-0.15c-0.11,0.12-0.25,0.18-0.42,0.18c-0.16,0-0.29-0.04-0.39-0.14
		c-0.1-0.09-0.15-0.2-0.15-0.34c0-0.17,0.06-0.3,0.19-0.39c0.12-0.09,0.3-0.14,0.54-0.14h0.22v-0.1c0-0.08-0.02-0.15-0.07-0.2
		c-0.05-0.05-0.12-0.07-0.21-0.07c-0.08,0-0.15,0.02-0.2,0.06c-0.05,0.04-0.08,0.09-0.08,0.15h-0.36c0-0.09,0.03-0.17,0.09-0.24
		c0.06-0.08,0.14-0.13,0.24-0.18c0.1-0.04,0.21-0.06,0.33-0.06c0.19,0,0.33,0.05,0.44,0.14c0.11,0.09,0.17,0.22,0.17,0.39v0.71
		c0,0.14,0.02,0.26,0.06,0.34v0.03H48.01z M47.62,20.93c0.07,0,0.14-0.02,0.2-0.05c0.06-0.03,0.11-0.08,0.14-0.14v-0.3h-0.19
		c-0.13,0-0.23,0.02-0.3,0.07c-0.07,0.05-0.1,0.11-0.1,0.2c0,0.07,0.02,0.12,0.07,0.16C47.48,20.91,47.54,20.93,47.62,20.93z"/>
	<path d="M49.02,19.6l0.01,0.18c0.12-0.14,0.27-0.21,0.46-0.21c0.33,0,0.5,0.19,0.5,0.57v1.05h-0.36v-1.03
		c0-0.1-0.02-0.17-0.07-0.22c-0.04-0.05-0.12-0.07-0.21-0.07c-0.14,0-0.25,0.06-0.32,0.19v1.13h-0.36V19.6H49.02z"/>
	<path d="M50.29,20.38c0-0.25,0.06-0.44,0.17-0.59c0.12-0.15,0.27-0.22,0.46-0.22c0.18,0,0.32,0.06,0.43,0.19l0.02-0.16h0.32v1.54
		c0,0.21-0.06,0.37-0.19,0.49c-0.13,0.12-0.3,0.18-0.52,0.18c-0.12,0-0.23-0.02-0.34-0.07c-0.11-0.05-0.2-0.11-0.25-0.19l0.17-0.21
		c0.11,0.13,0.24,0.19,0.4,0.19c0.12,0,0.21-0.03,0.28-0.1c0.07-0.06,0.1-0.16,0.1-0.28v-0.11c-0.1,0.12-0.24,0.17-0.41,0.17
		c-0.19,0-0.34-0.07-0.46-0.22C50.35,20.84,50.29,20.64,50.29,20.38z M50.65,20.41c0,0.16,0.03,0.28,0.1,0.38
		c0.06,0.09,0.15,0.14,0.27,0.14c0.14,0,0.25-0.06,0.32-0.18v-0.7c-0.07-0.12-0.17-0.18-0.32-0.18c-0.12,0-0.21,0.05-0.27,0.14
		C50.68,20.09,50.65,20.23,50.65,20.41z"/>
	<path d="M52.75,21.21c-0.23,0-0.41-0.07-0.55-0.21c-0.14-0.14-0.21-0.33-0.21-0.57v-0.04c0-0.16,0.03-0.3,0.09-0.42
		c0.06-0.12,0.15-0.22,0.26-0.29c0.11-0.07,0.23-0.1,0.37-0.1c0.21,0,0.38,0.07,0.5,0.21c0.12,0.14,0.18,0.33,0.18,0.58v0.14h-1.04
		c0.01,0.13,0.05,0.23,0.13,0.31c0.08,0.08,0.17,0.11,0.29,0.11c0.16,0,0.3-0.07,0.4-0.2l0.19,0.18c-0.06,0.09-0.15,0.17-0.25,0.22
		C53,21.18,52.88,21.21,52.75,21.21z M52.71,19.85c-0.1,0-0.18,0.03-0.24,0.1c-0.06,0.07-0.1,0.16-0.12,0.29h0.68v-0.03
		c-0.01-0.12-0.04-0.21-0.09-0.27C52.89,19.88,52.81,19.85,52.71,19.85z"/>
	<path d="M55.36,21.18c-0.02-0.03-0.03-0.08-0.04-0.15c-0.11,0.12-0.25,0.18-0.42,0.18c-0.16,0-0.29-0.04-0.39-0.14
		c-0.1-0.09-0.15-0.2-0.15-0.34c0-0.17,0.06-0.3,0.19-0.39c0.12-0.09,0.3-0.14,0.54-0.14h0.22v-0.1c0-0.08-0.02-0.15-0.07-0.2
		c-0.05-0.05-0.12-0.07-0.21-0.07c-0.08,0-0.15,0.02-0.2,0.06c-0.05,0.04-0.08,0.09-0.08,0.15H54.4c0-0.09,0.03-0.17,0.09-0.24
		c0.06-0.08,0.14-0.13,0.24-0.18c0.1-0.04,0.21-0.06,0.33-0.06c0.19,0,0.33,0.05,0.44,0.14c0.11,0.09,0.17,0.22,0.17,0.39v0.71
		c0,0.14,0.02,0.26,0.06,0.34v0.03H55.36z M54.97,20.93c0.07,0,0.14-0.02,0.2-0.05c0.06-0.03,0.11-0.08,0.14-0.14v-0.3h-0.19
		c-0.13,0-0.23,0.02-0.3,0.07c-0.07,0.05-0.1,0.11-0.1,0.2c0,0.07,0.02,0.12,0.07,0.16C54.83,20.91,54.89,20.93,54.97,20.93z"/>
	<path d="M56.37,19.6l0.01,0.18c0.12-0.14,0.27-0.21,0.46-0.21c0.33,0,0.5,0.19,0.5,0.57v1.05h-0.36v-1.03
		c0-0.1-0.02-0.17-0.07-0.22c-0.04-0.05-0.12-0.07-0.21-0.07c-0.14,0-0.25,0.06-0.32,0.19v1.13h-0.36V19.6H56.37z"/>
	<path d="M57.64,20.38c0-0.24,0.06-0.44,0.17-0.59c0.11-0.15,0.27-0.22,0.46-0.22c0.17,0,0.3,0.06,0.41,0.18v-0.81h0.36v2.25H58.7
		l-0.02-0.16c-0.11,0.13-0.25,0.19-0.43,0.19c-0.19,0-0.34-0.07-0.45-0.22C57.69,20.84,57.64,20.63,57.64,20.38z M57.99,20.41
		c0,0.16,0.03,0.29,0.09,0.38c0.06,0.09,0.15,0.14,0.26,0.14c0.15,0,0.25-0.06,0.32-0.19v-0.68c-0.07-0.13-0.17-0.19-0.32-0.19
		c-0.12,0-0.2,0.04-0.27,0.14C58.02,20.09,57.99,20.22,57.99,20.41z"/>
	<path d="M60.7,20.73l0.33-1.13h0.37l-0.55,1.58h-0.31l-0.55-1.58h0.37L60.7,20.73z"/>
	<path d="M62.55,21.18c-0.02-0.03-0.03-0.08-0.04-0.15c-0.11,0.12-0.25,0.18-0.42,0.18c-0.16,0-0.29-0.04-0.39-0.14
		c-0.1-0.09-0.15-0.2-0.15-0.34c0-0.17,0.06-0.3,0.19-0.39c0.12-0.09,0.3-0.14,0.54-0.14h0.22v-0.1c0-0.08-0.02-0.15-0.07-0.2
		c-0.05-0.05-0.12-0.07-0.21-0.07c-0.08,0-0.15,0.02-0.2,0.06c-0.05,0.04-0.08,0.09-0.08,0.15h-0.36c0-0.09,0.03-0.17,0.09-0.24
		c0.06-0.08,0.14-0.13,0.24-0.18c0.1-0.04,0.21-0.06,0.33-0.06c0.19,0,0.33,0.05,0.44,0.14c0.11,0.09,0.17,0.22,0.17,0.39v0.71
		c0,0.14,0.02,0.26,0.06,0.34v0.03H62.55z M62.16,20.93c0.07,0,0.14-0.02,0.2-0.05c0.06-0.03,0.11-0.08,0.14-0.14v-0.3h-0.19
		c-0.13,0-0.23,0.02-0.3,0.07c-0.07,0.05-0.1,0.11-0.1,0.2c0,0.07,0.02,0.12,0.07,0.16C62.03,20.91,62.09,20.93,62.16,20.93z"/>
	<path d="M64.06,19.92c-0.05-0.01-0.09-0.01-0.14-0.01c-0.16,0-0.27,0.06-0.33,0.19v1.08h-0.36V19.6h0.34l0.01,0.18
		c0.09-0.14,0.21-0.21,0.36-0.21c0.05,0,0.09,0.01,0.13,0.02L64.06,19.92z"/>
	<path d="M64.29,19.19c0-0.05,0.02-0.1,0.05-0.14c0.03-0.04,0.08-0.05,0.15-0.05s0.11,0.02,0.15,0.05s0.05,0.08,0.05,0.14
		c0,0.05-0.02,0.1-0.05,0.13c-0.04,0.04-0.08,0.05-0.15,0.05s-0.11-0.02-0.15-0.05C64.3,19.28,64.29,19.24,64.29,19.19z
		 M64.66,21.18h-0.36V19.6h0.36V21.18z"/>
	<path d="M65.75,21.21c-0.23,0-0.41-0.07-0.55-0.21c-0.14-0.14-0.21-0.33-0.21-0.57v-0.04c0-0.16,0.03-0.3,0.09-0.42
		c0.06-0.12,0.15-0.22,0.26-0.29c0.11-0.07,0.23-0.1,0.37-0.1c0.21,0,0.38,0.07,0.5,0.21c0.12,0.14,0.18,0.33,0.18,0.58v0.14h-1.04
		c0.01,0.13,0.05,0.23,0.13,0.31c0.08,0.08,0.17,0.11,0.29,0.11c0.16,0,0.3-0.07,0.4-0.2l0.19,0.18c-0.06,0.09-0.15,0.17-0.25,0.22
		C66,21.18,65.88,21.21,65.75,21.21z M65.71,19.85c-0.1,0-0.18,0.03-0.24,0.1c-0.06,0.07-0.1,0.16-0.12,0.29h0.68v-0.03
		c-0.01-0.12-0.04-0.21-0.09-0.27C65.88,19.88,65.8,19.85,65.71,19.85z"/>
	<path d="M67.11,19.21v0.39h0.28v0.26h-0.28v0.88c0,0.06,0.01,0.1,0.04,0.13c0.02,0.03,0.07,0.04,0.13,0.04c0.04,0,0.08,0,0.12-0.01
		v0.28c-0.08,0.02-0.16,0.03-0.23,0.03c-0.27,0-0.41-0.15-0.41-0.45v-0.9h-0.26V19.6h0.26v-0.39H67.11z"/>
	<path d="M68.21,20.67l0.32-1.08h0.38l-0.63,1.83c-0.1,0.27-0.26,0.4-0.49,0.4c-0.05,0-0.11-0.01-0.17-0.03v-0.28l0.07,0
		c0.09,0,0.16-0.02,0.2-0.05c0.05-0.03,0.08-0.09,0.11-0.16l0.05-0.14l-0.56-1.58h0.38L68.21,20.67z"/>
</g>
</svg>
