<?xml version="1.0" encoding="utf-8"?>
<!-- Generator: Adobe Illustrator 24.3.0, SVG Export Plug-In . SVG Version: 6.00 Build 0)  -->
<svg version="1.1" id="Слой_1" xmlns="http://www.w3.org/2000/svg" xmlns:xlink="http://www.w3.org/1999/xlink" x="0px" y="0px"
	 viewBox="0 0 85.04 28.35" style="enable-background:new 0 0 85.04 28.35;" xml:space="preserve">
<g>
	<path d="M33.82,10.37h-2.29v2.41h-0.99V7.09h3.61v0.8h-2.62v1.69h2.29V10.37z"/>
	<path d="M37.37,11.45h-2.2l-0.46,1.32h-1.03l2.15-5.69h0.89l2.15,5.69h-1.03L37.37,11.45z M35.44,10.66h1.65L36.27,8.3L35.44,10.66
		z"/>
	<path d="M40.79,7.09l1.64,4.36l1.64-4.36h1.28v5.69h-0.98V10.9l0.1-2.51l-1.68,4.38h-0.71L40.4,8.4l0.1,2.5v1.88h-0.98V7.09H40.79z
		"/>
	<path d="M47.56,12.78h-0.98V7.09h0.98V12.78z"/>
	<path d="M49.76,11.99h2.58v0.79h-3.57V7.09h0.99V11.99z"/>
	<path d="M53.86,9.79l1.31-2.7h1.09l-1.91,3.59v2.09h-0.99v-2.09l-1.91-3.59h1.1L53.86,9.79z"/>
</g>
<g>
	<path d="M24.14,19.21v0.39h0.28v0.26h-0.28v0.88c0,0.06,0.01,0.1,0.04,0.13c0.02,0.03,0.07,0.04,0.13,0.04c0.04,0,0.08,0,0.12-0.01
		v0.28c-0.08,0.02-0.16,0.03-0.23,0.03c-0.27,0-0.41-0.15-0.41-0.45v-0.9h-0.26V19.6h0.26v-0.39H24.14z"/>
	<path d="M24.58,20.38c0-0.16,0.03-0.3,0.09-0.42c0.06-0.12,0.15-0.22,0.26-0.29c0.11-0.07,0.24-0.1,0.38-0.1
		c0.21,0,0.39,0.07,0.52,0.21c0.13,0.14,0.21,0.32,0.22,0.55l0,0.08c0,0.16-0.03,0.3-0.09,0.42c-0.06,0.12-0.15,0.22-0.26,0.29
		c-0.11,0.07-0.24,0.1-0.39,0.1c-0.22,0-0.4-0.07-0.54-0.22c-0.13-0.15-0.2-0.35-0.2-0.59V20.38z M24.94,20.41
		c0,0.16,0.03,0.29,0.1,0.38c0.07,0.09,0.16,0.14,0.28,0.14s0.21-0.05,0.28-0.14c0.07-0.09,0.1-0.23,0.1-0.41
		c0-0.16-0.03-0.29-0.1-0.38c-0.07-0.09-0.16-0.14-0.28-0.14c-0.12,0-0.21,0.05-0.28,0.14C24.97,20.08,24.94,20.22,24.94,20.41z"/>
	<path d="M27.45,19.77c0.12-0.13,0.26-0.2,0.44-0.2c0.34,0,0.51,0.19,0.51,0.58v1.04h-0.36v-1.02c0-0.11-0.02-0.19-0.07-0.23
		c-0.05-0.04-0.12-0.07-0.21-0.07c-0.14,0-0.25,0.06-0.32,0.19v1.13H27.1v-2.25h0.36V19.77z"/>
	<path d="M29.71,21.18c-0.02-0.03-0.03-0.08-0.04-0.15c-0.11,0.12-0.25,0.18-0.42,0.18c-0.16,0-0.29-0.04-0.39-0.14
		c-0.1-0.09-0.15-0.2-0.15-0.34c0-0.17,0.06-0.3,0.19-0.39c0.12-0.09,0.3-0.14,0.54-0.14h0.22v-0.1c0-0.08-0.02-0.15-0.07-0.2
		c-0.05-0.05-0.12-0.07-0.21-0.07c-0.08,0-0.15,0.02-0.2,0.06c-0.05,0.04-0.08,0.09-0.08,0.15h-0.36c0-0.09,0.03-0.17,0.09-0.24
		c0.06-0.08,0.14-0.13,0.24-0.18c0.1-0.04,0.21-0.06,0.33-0.06c0.19,0,0.33,0.05,0.44,0.14c0.11,0.09,0.17,0.22,0.17,0.39v0.71
		c0,0.14,0.02,0.26,0.06,0.34v0.03H29.71z M29.32,20.93c0.07,0,0.14-0.02,0.2-0.05s0.11-0.08,0.14-0.14v-0.3h-0.19
		c-0.13,0-0.23,0.02-0.3,0.07c-0.07,0.05-0.1,0.11-0.1,0.2c0,0.07,0.02,0.12,0.07,0.16C29.19,20.91,29.25,20.93,29.32,20.93z"/>
	<path d="M30.93,20.73l0.34-1.13h0.37l-0.55,1.58h-0.31l-0.55-1.58h0.37L30.93,20.73z"/>
	<path d="M32.53,21.21c-0.23,0-0.41-0.07-0.55-0.21c-0.14-0.14-0.21-0.33-0.21-0.57v-0.04c0-0.16,0.03-0.3,0.09-0.42
		c0.06-0.12,0.15-0.22,0.26-0.29s0.23-0.1,0.37-0.1c0.22,0,0.38,0.07,0.5,0.21c0.12,0.14,0.18,0.33,0.18,0.58v0.14h-1.04
		c0.01,0.13,0.05,0.23,0.13,0.31s0.17,0.11,0.29,0.11c0.16,0,0.3-0.07,0.4-0.2l0.19,0.18c-0.06,0.09-0.15,0.17-0.25,0.22
		C32.78,21.18,32.66,21.21,32.53,21.21z M32.49,19.85c-0.1,0-0.18,0.03-0.24,0.1c-0.06,0.07-0.1,0.16-0.12,0.29h0.68v-0.03
		c-0.01-0.12-0.04-0.21-0.1-0.27C32.66,19.88,32.59,19.85,32.49,19.85z"/>
	<path d="M35.14,21.18c-0.02-0.03-0.03-0.08-0.04-0.15c-0.11,0.12-0.25,0.18-0.42,0.18c-0.16,0-0.29-0.04-0.39-0.14
		c-0.1-0.09-0.15-0.2-0.15-0.34c0-0.17,0.06-0.3,0.19-0.39c0.12-0.09,0.3-0.14,0.54-0.14h0.22v-0.1c0-0.08-0.02-0.15-0.07-0.2
		c-0.05-0.05-0.12-0.07-0.21-0.07c-0.08,0-0.15,0.02-0.2,0.06c-0.05,0.04-0.08,0.09-0.08,0.15h-0.36c0-0.09,0.03-0.17,0.09-0.24
		c0.06-0.08,0.14-0.13,0.24-0.18c0.1-0.04,0.21-0.06,0.33-0.06c0.19,0,0.33,0.05,0.44,0.14c0.11,0.09,0.17,0.22,0.17,0.39v0.71
		c0,0.14,0.02,0.26,0.06,0.34v0.03H35.14z M34.75,20.93c0.07,0,0.14-0.02,0.2-0.05s0.11-0.08,0.14-0.14v-0.3h-0.19
		c-0.13,0-0.23,0.02-0.3,0.07c-0.07,0.05-0.1,0.11-0.1,0.2c0,0.07,0.02,0.12,0.07,0.16C34.61,20.91,34.67,20.93,34.75,20.93z"/>
	<path d="M36.91,19.77c0.12-0.13,0.26-0.2,0.44-0.2c0.34,0,0.51,0.19,0.51,0.58v1.04h-0.36v-1.02c0-0.11-0.02-0.19-0.07-0.23
		c-0.05-0.04-0.12-0.07-0.21-0.07c-0.14,0-0.25,0.06-0.32,0.19v1.13h-0.36v-2.25h0.36V19.77z"/>
	<path d="M39.17,21.18c-0.02-0.03-0.03-0.08-0.04-0.15c-0.11,0.12-0.25,0.18-0.42,0.18c-0.16,0-0.29-0.04-0.39-0.14
		c-0.1-0.09-0.15-0.2-0.15-0.34c0-0.17,0.06-0.3,0.19-0.39c0.12-0.09,0.3-0.14,0.54-0.14h0.22v-0.1c0-0.08-0.02-0.15-0.07-0.2
		c-0.05-0.05-0.12-0.07-0.21-0.07c-0.08,0-0.15,0.02-0.2,0.06c-0.05,0.04-0.08,0.09-0.08,0.15h-0.36c0-0.09,0.03-0.17,0.09-0.24
		c0.06-0.08,0.14-0.13,0.24-0.18c0.1-0.04,0.21-0.06,0.33-0.06c0.19,0,0.33,0.05,0.44,0.14c0.11,0.09,0.17,0.22,0.17,0.39v0.71
		c0,0.14,0.02,0.26,0.06,0.34v0.03H39.17z M38.78,20.93c0.07,0,0.14-0.02,0.2-0.05s0.11-0.08,0.14-0.14v-0.3h-0.19
		c-0.13,0-0.23,0.02-0.3,0.07c-0.07,0.05-0.1,0.11-0.1,0.2c0,0.07,0.02,0.12,0.07,0.16C38.64,20.91,38.7,20.93,38.78,20.93z"/>
	<path d="M41.24,20.41c0,0.25-0.06,0.44-0.17,0.59c-0.11,0.15-0.26,0.22-0.45,0.22c-0.17,0-0.31-0.06-0.42-0.17v0.75h-0.36V19.6
		h0.33l0.01,0.16c0.11-0.13,0.25-0.19,0.43-0.19c0.19,0,0.34,0.07,0.45,0.22c0.11,0.14,0.17,0.34,0.17,0.6V20.41z M40.88,20.38
		c0-0.16-0.03-0.28-0.09-0.38s-0.15-0.14-0.27-0.14c-0.15,0-0.25,0.06-0.31,0.18v0.7c0.06,0.12,0.17,0.18,0.32,0.18
		c0.11,0,0.2-0.05,0.27-0.14C40.85,20.7,40.88,20.56,40.88,20.38z"/>
	<path d="M42.92,20.41c0,0.25-0.06,0.44-0.17,0.59c-0.11,0.15-0.26,0.22-0.45,0.22c-0.17,0-0.31-0.06-0.42-0.17v0.75h-0.36V19.6
		h0.33l0.01,0.16c0.1-0.13,0.25-0.19,0.43-0.19c0.19,0,0.34,0.07,0.45,0.22c0.11,0.14,0.17,0.34,0.17,0.6V20.41z M42.57,20.38
		c0-0.16-0.03-0.28-0.09-0.38c-0.06-0.09-0.15-0.14-0.27-0.14c-0.15,0-0.25,0.06-0.31,0.18v0.7c0.06,0.12,0.17,0.18,0.32,0.18
		c0.11,0,0.2-0.05,0.27-0.14C42.54,20.7,42.57,20.56,42.57,20.38z"/>
	<path d="M43.76,20.67l0.32-1.08h0.38l-0.63,1.83c-0.1,0.27-0.26,0.4-0.49,0.4c-0.05,0-0.11-0.01-0.17-0.03v-0.28l0.07,0
		c0.09,0,0.16-0.02,0.2-0.05c0.05-0.03,0.08-0.09,0.11-0.16l0.05-0.14l-0.56-1.58h0.38L43.76,20.67z"/>
	<path d="M44.48,21.66l-0.19-0.11c0.06-0.09,0.1-0.17,0.12-0.23c0.02-0.07,0.03-0.13,0.03-0.2v-0.28h0.32l0,0.26
		c0,0.1-0.03,0.21-0.08,0.31C44.62,21.51,44.56,21.59,44.48,21.66z"/>
	<path d="M46.21,21.18h-0.36v-2.25h0.36V21.18z"/>
	<path d="M46.53,20.38c0-0.16,0.03-0.3,0.09-0.42c0.06-0.12,0.15-0.22,0.26-0.29c0.11-0.07,0.24-0.1,0.38-0.1
		c0.21,0,0.39,0.07,0.52,0.21c0.13,0.14,0.21,0.32,0.22,0.55l0,0.08c0,0.16-0.03,0.3-0.09,0.42c-0.06,0.12-0.15,0.22-0.26,0.29
		c-0.11,0.07-0.24,0.1-0.39,0.1c-0.22,0-0.4-0.07-0.54-0.22c-0.13-0.15-0.2-0.35-0.2-0.59V20.38z M46.89,20.41
		c0,0.16,0.03,0.29,0.1,0.38c0.07,0.09,0.16,0.14,0.28,0.14c0.12,0,0.21-0.05,0.28-0.14c0.07-0.09,0.1-0.23,0.1-0.41
		c0-0.16-0.03-0.29-0.1-0.38c-0.07-0.09-0.16-0.14-0.28-0.14s-0.21,0.05-0.28,0.14C46.92,20.08,46.89,20.22,46.89,20.41z"/>
	<path d="M48.84,20.73l0.33-1.13h0.37L49,21.18h-0.31l-0.55-1.58h0.37L48.84,20.73z"/>
	<path d="M49.77,19.19c0-0.05,0.02-0.1,0.05-0.14c0.03-0.04,0.08-0.05,0.15-0.05s0.11,0.02,0.15,0.05s0.05,0.08,0.05,0.14
		c0,0.05-0.02,0.1-0.05,0.13c-0.04,0.04-0.08,0.05-0.15,0.05s-0.11-0.02-0.15-0.05C49.79,19.28,49.77,19.24,49.77,19.19z
		 M50.15,21.18h-0.36V19.6h0.36V21.18z"/>
	<path d="M50.86,19.6l0.01,0.18c0.12-0.14,0.27-0.21,0.46-0.21c0.33,0,0.5,0.19,0.5,0.57v1.05h-0.36v-1.03
		c0-0.1-0.02-0.17-0.07-0.22c-0.04-0.05-0.12-0.07-0.21-0.07c-0.14,0-0.25,0.06-0.32,0.19v1.13h-0.36V19.6H50.86z"/>
	<path d="M52.14,20.38c0-0.25,0.06-0.44,0.17-0.59c0.12-0.15,0.27-0.22,0.46-0.22c0.18,0,0.32,0.06,0.43,0.19l0.02-0.16h0.32v1.54
		c0,0.21-0.06,0.37-0.19,0.49c-0.13,0.12-0.3,0.18-0.52,0.18c-0.12,0-0.23-0.02-0.34-0.07c-0.11-0.05-0.2-0.11-0.25-0.19l0.17-0.21
		c0.11,0.13,0.24,0.19,0.4,0.19c0.12,0,0.21-0.03,0.28-0.1c0.07-0.06,0.1-0.16,0.1-0.28v-0.11c-0.1,0.12-0.24,0.17-0.41,0.17
		c-0.19,0-0.34-0.07-0.46-0.22C52.2,20.84,52.14,20.64,52.14,20.38z M52.49,20.41c0,0.16,0.03,0.28,0.1,0.38
		c0.06,0.09,0.15,0.14,0.27,0.14c0.14,0,0.25-0.06,0.32-0.18v-0.7c-0.07-0.12-0.17-0.18-0.32-0.18c-0.12,0-0.21,0.05-0.27,0.14
		C52.53,20.09,52.49,20.23,52.49,20.41z"/>
	<path d="M54.78,21.18v-1.32h-0.24V19.6h0.24v-0.15c0-0.18,0.05-0.31,0.15-0.41s0.23-0.14,0.41-0.14c0.06,0,0.13,0.01,0.2,0.03
		l-0.01,0.28c-0.04-0.01-0.08-0.01-0.14-0.01c-0.17,0-0.25,0.09-0.25,0.26v0.14h0.32v0.26h-0.32v1.32H54.78z"/>
	<path d="M56.66,21.18c-0.02-0.03-0.03-0.08-0.04-0.15c-0.11,0.12-0.25,0.18-0.42,0.18c-0.16,0-0.29-0.04-0.39-0.14
		c-0.1-0.09-0.15-0.2-0.15-0.34c0-0.17,0.06-0.3,0.19-0.39c0.12-0.09,0.3-0.14,0.54-0.14h0.22v-0.1c0-0.08-0.02-0.15-0.07-0.2
		c-0.05-0.05-0.12-0.07-0.21-0.07c-0.08,0-0.15,0.02-0.2,0.06c-0.05,0.04-0.08,0.09-0.08,0.15H55.7c0-0.09,0.03-0.17,0.09-0.24
		c0.06-0.08,0.14-0.13,0.24-0.18c0.1-0.04,0.21-0.06,0.33-0.06c0.19,0,0.33,0.05,0.44,0.14c0.11,0.09,0.17,0.22,0.17,0.39v0.71
		c0,0.14,0.02,0.26,0.06,0.34v0.03H56.66z M56.27,20.93c0.07,0,0.14-0.02,0.2-0.05c0.06-0.03,0.11-0.08,0.14-0.14v-0.3h-0.19
		c-0.13,0-0.23,0.02-0.3,0.07c-0.07,0.05-0.1,0.11-0.1,0.2c0,0.07,0.02,0.12,0.07,0.16C56.13,20.91,56.19,20.93,56.27,20.93z"/>
	<path d="M57.67,19.6l0.01,0.17c0.11-0.13,0.26-0.19,0.46-0.19c0.21,0,0.36,0.08,0.44,0.24c0.11-0.16,0.28-0.24,0.49-0.24
		c0.17,0,0.3,0.05,0.39,0.15c0.09,0.1,0.13,0.24,0.13,0.43v1.04h-0.36v-1.03c0-0.1-0.02-0.17-0.07-0.22
		c-0.04-0.05-0.12-0.07-0.22-0.07c-0.08,0-0.15,0.02-0.2,0.06c-0.05,0.04-0.09,0.1-0.11,0.17l0,1.09h-0.36v-1.04
		c-0.01-0.19-0.1-0.28-0.29-0.28c-0.14,0-0.24,0.06-0.3,0.17v1.15h-0.36V19.6H57.67z"/>
	<path d="M59.95,19.19c0-0.05,0.02-0.1,0.05-0.14c0.03-0.04,0.08-0.05,0.15-0.05s0.11,0.02,0.15,0.05s0.05,0.08,0.05,0.14
		c0,0.05-0.02,0.1-0.05,0.13c-0.04,0.04-0.08,0.05-0.15,0.05s-0.11-0.02-0.15-0.05C59.96,19.28,59.95,19.24,59.95,19.19z
		 M60.33,21.18h-0.36V19.6h0.36V21.18z"/>
	<path d="M61.09,21.18h-0.36v-2.25h0.36V21.18z"/>
	<path d="M62.03,20.67l0.32-1.08h0.38l-0.63,1.83c-0.1,0.27-0.26,0.4-0.49,0.4c-0.05,0-0.11-0.01-0.17-0.03v-0.28l0.07,0
		c0.09,0,0.16-0.02,0.2-0.05c0.05-0.03,0.08-0.09,0.11-0.16l0.05-0.14l-0.56-1.58h0.38L62.03,20.67z"/>
</g>
</svg>
