<?xml version="1.0" encoding="utf-8"?>
<!-- Generator: Adobe Illustrator 24.3.0, SVG Export Plug-In . SVG Version: 6.00 Build 0)  -->
<svg version="1.1" id="Слой_1" xmlns="http://www.w3.org/2000/svg" xmlns:xlink="http://www.w3.org/1999/xlink" x="0px" y="0px"
	 viewBox="0 0 85.04 28.35" style="enable-background:new 0 0 85.04 28.35;" xml:space="preserve">
<g>
	<path d="M24.34,12.04c-0.21,0.27-0.49,0.47-0.86,0.61s-0.78,0.21-1.24,0.21c-0.48,0-0.9-0.11-1.27-0.32s-0.65-0.53-0.85-0.93
		s-0.3-0.87-0.31-1.41V9.75c0-0.86,0.21-1.53,0.62-2.01s0.99-0.72,1.72-0.72c0.63,0,1.14,0.16,1.51,0.47s0.6,0.77,0.67,1.35h-0.97
		c-0.11-0.69-0.51-1.03-1.19-1.03c-0.44,0-0.78,0.16-1.01,0.48s-0.35,0.79-0.36,1.4v0.44c0,0.61,0.13,1.09,0.39,1.43
		s0.62,0.51,1.08,0.51c0.51,0,0.86-0.11,1.08-0.34v-1.11h-1.17V9.86h2.16V12.04z"/>
	<path d="M28.75,10.24h-2.34v1.75h2.73v0.79h-3.72V7.09h3.69v0.8h-2.7v1.57h2.34V10.24z"/>
	<path d="M34.47,12.78h-0.99l-2.54-4.04v4.04h-0.99V7.09h0.99l2.54,4.05V7.09h0.98V12.78z"/>
	<path d="M38.96,10.24h-2.34v1.75h2.73v0.79h-3.72V7.09h3.69v0.8h-2.7v1.57h2.34V10.24z"/>
	<path d="M42.25,10.59h-1.1v2.19h-0.99V7.09h2c0.66,0,1.16,0.15,1.52,0.44s0.54,0.72,0.54,1.28c0,0.38-0.09,0.7-0.28,0.96
		c-0.18,0.26-0.44,0.45-0.77,0.59l1.28,2.37v0.05h-1.06L42.25,10.59z M41.15,9.79h1.02c0.33,0,0.59-0.08,0.78-0.25
		s0.28-0.4,0.28-0.69c0-0.3-0.09-0.54-0.26-0.71s-0.43-0.25-0.78-0.26h-1.04V9.79z"/>
	<path d="M49.69,10.08c0,0.56-0.1,1.05-0.29,1.47s-0.47,0.74-0.83,0.97s-0.77,0.34-1.24,0.34c-0.46,0-0.87-0.11-1.23-0.34
		c-0.36-0.23-0.64-0.55-0.84-0.96c-0.2-0.42-0.3-0.9-0.3-1.44V9.79c0-0.55,0.1-1.04,0.29-1.47c0.2-0.42,0.47-0.75,0.83-0.97
		c0.36-0.23,0.77-0.34,1.23-0.34s0.87,0.11,1.23,0.33s0.63,0.54,0.83,0.96s0.29,0.9,0.3,1.46V10.08z M48.7,9.79
		c0-0.63-0.12-1.11-0.36-1.45s-0.58-0.5-1.01-0.5c-0.43,0-0.76,0.17-1,0.5c-0.24,0.33-0.36,0.81-0.37,1.42v0.33
		c0,0.62,0.12,1.11,0.37,1.45s0.58,0.51,1.01,0.51c0.44,0,0.77-0.17,1.01-0.5s0.35-0.82,0.35-1.46V9.79z"/>
	<path d="M53.65,11.31c0-0.25-0.09-0.44-0.26-0.58s-0.49-0.27-0.95-0.41s-0.82-0.29-1.09-0.46c-0.52-0.33-0.78-0.75-0.78-1.27
		c0-0.46,0.19-0.84,0.56-1.13s0.86-0.45,1.46-0.45c0.4,0,0.75,0.07,1.06,0.22s0.55,0.35,0.73,0.62s0.27,0.57,0.27,0.9h-0.98
		c0-0.3-0.09-0.53-0.28-0.7s-0.45-0.25-0.8-0.25c-0.32,0-0.57,0.07-0.75,0.21s-0.27,0.33-0.27,0.58c0,0.21,0.1,0.38,0.29,0.52
		s0.51,0.27,0.95,0.41s0.8,0.28,1.07,0.45s0.46,0.36,0.59,0.58s0.19,0.47,0.19,0.76c0,0.47-0.18,0.85-0.54,1.13
		s-0.86,0.42-1.48,0.42c-0.41,0-0.79-0.08-1.13-0.23s-0.61-0.36-0.8-0.63s-0.29-0.58-0.29-0.94h0.99c0,0.32,0.11,0.57,0.32,0.75
		s0.52,0.27,0.92,0.27c0.34,0,0.6-0.07,0.78-0.21S53.65,11.54,53.65,11.31z"/>
	<path d="M56.54,12.78h-0.98V7.09h0.98V12.78z"/>
	<path d="M61.75,7.89h-1.77v4.89H59V7.89h-1.76v-0.8h4.51V7.89z"/>
	<path d="M64.42,9.79l1.31-2.7h1.09l-1.91,3.59v2.09h-0.99v-2.09l-1.91-3.59h1.1L64.42,9.79z"/>
</g>
<g>
	<path d="M24.94,19.21v0.39h0.28v0.26h-0.28v0.88c0,0.06,0.01,0.1,0.04,0.13c0.02,0.03,0.07,0.04,0.13,0.04c0.04,0,0.08,0,0.12-0.01
		v0.28c-0.08,0.02-0.16,0.03-0.23,0.03c-0.27,0-0.41-0.15-0.41-0.45v-0.9h-0.26V19.6h0.26v-0.39H24.94z"/>
	<path d="M25.39,20.38c0-0.16,0.03-0.3,0.09-0.42c0.06-0.12,0.15-0.22,0.26-0.29c0.11-0.07,0.24-0.1,0.38-0.1
		c0.21,0,0.39,0.07,0.52,0.21c0.13,0.14,0.21,0.32,0.22,0.55l0,0.08c0,0.16-0.03,0.3-0.09,0.42c-0.06,0.12-0.15,0.22-0.26,0.29
		c-0.11,0.07-0.24,0.1-0.39,0.1c-0.22,0-0.4-0.07-0.54-0.22c-0.13-0.15-0.2-0.35-0.2-0.59V20.38z M25.74,20.41
		c0,0.16,0.03,0.29,0.1,0.38c0.07,0.09,0.16,0.14,0.28,0.14s0.21-0.05,0.28-0.14c0.07-0.09,0.1-0.23,0.1-0.41
		c0-0.16-0.03-0.29-0.1-0.38c-0.07-0.09-0.16-0.14-0.28-0.14c-0.12,0-0.21,0.05-0.28,0.14C25.78,20.08,25.74,20.22,25.74,20.41z"/>
	<path d="M27.85,20.38c0-0.25,0.06-0.44,0.17-0.59c0.12-0.15,0.27-0.22,0.46-0.22c0.18,0,0.32,0.06,0.43,0.19l0.02-0.16h0.32v1.54
		c0,0.21-0.06,0.37-0.19,0.49c-0.13,0.12-0.3,0.18-0.52,0.18c-0.12,0-0.23-0.02-0.34-0.07c-0.11-0.05-0.19-0.11-0.25-0.19l0.17-0.21
		c0.11,0.13,0.24,0.19,0.4,0.19c0.12,0,0.21-0.03,0.28-0.1c0.07-0.06,0.1-0.16,0.1-0.28v-0.11c-0.1,0.12-0.24,0.17-0.41,0.17
		c-0.19,0-0.34-0.07-0.45-0.22C27.9,20.84,27.85,20.64,27.85,20.38z M28.2,20.41c0,0.16,0.03,0.28,0.1,0.38
		c0.06,0.09,0.15,0.14,0.27,0.14c0.14,0,0.25-0.06,0.32-0.18v-0.7c-0.07-0.12-0.17-0.18-0.32-0.18c-0.12,0-0.21,0.05-0.27,0.14
		C28.23,20.09,28.2,20.23,28.2,20.41z"/>
	<path d="M29.61,19.19c0-0.05,0.02-0.1,0.05-0.14c0.03-0.04,0.08-0.05,0.15-0.05s0.11,0.02,0.15,0.05s0.05,0.08,0.05,0.14
		c0,0.05-0.02,0.1-0.05,0.13c-0.04,0.04-0.08,0.05-0.15,0.05s-0.11-0.02-0.15-0.05C29.63,19.28,29.61,19.24,29.61,19.19z
		 M29.99,21.18h-0.36V19.6h0.36V21.18z"/>
	<path d="M30.93,20.73l0.34-1.13h0.37l-0.55,1.58h-0.31l-0.55-1.58h0.37L30.93,20.73z"/>
	<path d="M32.54,21.21c-0.23,0-0.41-0.07-0.55-0.21c-0.14-0.14-0.21-0.33-0.21-0.57v-0.04c0-0.16,0.03-0.3,0.09-0.42
		c0.06-0.12,0.15-0.22,0.26-0.29s0.23-0.1,0.37-0.1c0.22,0,0.38,0.07,0.5,0.21c0.12,0.14,0.18,0.33,0.18,0.58v0.14h-1.04
		c0.01,0.13,0.05,0.23,0.13,0.31s0.17,0.11,0.29,0.11c0.16,0,0.3-0.07,0.4-0.2l0.19,0.18c-0.06,0.09-0.15,0.17-0.25,0.22
		C32.79,21.18,32.67,21.21,32.54,21.21z M32.49,19.85c-0.1,0-0.18,0.03-0.24,0.1c-0.06,0.07-0.1,0.16-0.12,0.29h0.68v-0.03
		c-0.01-0.12-0.04-0.21-0.1-0.27C32.67,19.88,32.59,19.85,32.49,19.85z"/>
	<path d="M35.59,20.69l0.25-1.09h0.35l-0.43,1.58h-0.29l-0.34-1.09l-0.33,1.09H34.5l-0.43-1.58h0.35l0.26,1.08l0.33-1.08h0.27
		L35.59,20.69z"/>
	<path d="M36.78,19.77c0.12-0.13,0.26-0.2,0.44-0.2c0.34,0,0.51,0.19,0.51,0.58v1.04h-0.36v-1.02c0-0.11-0.02-0.19-0.07-0.23
		c-0.05-0.04-0.12-0.07-0.21-0.07c-0.14,0-0.25,0.06-0.32,0.19v1.13h-0.36v-2.25h0.36V19.77z"/>
	<path d="M39.04,21.18c-0.02-0.03-0.03-0.08-0.04-0.15c-0.11,0.12-0.25,0.18-0.42,0.18c-0.16,0-0.29-0.04-0.39-0.14
		c-0.1-0.09-0.15-0.2-0.15-0.34c0-0.17,0.06-0.3,0.19-0.39c0.12-0.09,0.3-0.14,0.54-0.14h0.22v-0.1c0-0.08-0.02-0.15-0.07-0.2
		c-0.05-0.05-0.12-0.07-0.21-0.07c-0.08,0-0.15,0.02-0.2,0.06c-0.05,0.04-0.08,0.09-0.08,0.15h-0.36c0-0.09,0.03-0.17,0.09-0.24
		c0.06-0.08,0.14-0.13,0.24-0.18c0.1-0.04,0.21-0.06,0.33-0.06c0.19,0,0.33,0.05,0.44,0.14c0.11,0.09,0.17,0.22,0.17,0.39v0.71
		c0,0.14,0.02,0.26,0.06,0.34v0.03H39.04z M38.65,20.93c0.07,0,0.14-0.02,0.2-0.05s0.11-0.08,0.14-0.14v-0.3h-0.19
		c-0.13,0-0.23,0.02-0.3,0.07c-0.07,0.05-0.1,0.11-0.1,0.2c0,0.07,0.02,0.12,0.07,0.16C38.51,20.91,38.57,20.93,38.65,20.93z"/>
	<path d="M40.16,19.21v0.39h0.28v0.26h-0.28v0.88c0,0.06,0.01,0.1,0.04,0.13c0.02,0.03,0.07,0.04,0.13,0.04c0.04,0,0.08,0,0.12-0.01
		v0.28c-0.08,0.02-0.16,0.03-0.23,0.03c-0.27,0-0.41-0.15-0.41-0.45v-0.9h-0.26V19.6h0.26v-0.39H40.16z"/>
	<path d="M41.88,21.18h-0.37v-2.13h0.37V21.18z"/>
	<path d="M43.4,19.77c0.12-0.13,0.26-0.2,0.44-0.2c0.34,0,0.51,0.19,0.51,0.58v1.04H44v-1.02c0-0.11-0.02-0.19-0.07-0.23
		c-0.05-0.04-0.12-0.07-0.21-0.07c-0.14,0-0.25,0.06-0.32,0.19v1.13h-0.36v-2.25h0.36V19.77z"/>
	<path d="M45.66,21.18c-0.02-0.03-0.03-0.08-0.04-0.15c-0.11,0.12-0.25,0.18-0.42,0.18c-0.16,0-0.29-0.04-0.39-0.14
		c-0.1-0.09-0.15-0.2-0.15-0.34c0-0.17,0.06-0.3,0.19-0.39c0.12-0.09,0.3-0.14,0.54-0.14h0.22v-0.1c0-0.08-0.02-0.15-0.07-0.2
		c-0.05-0.05-0.12-0.07-0.21-0.07c-0.08,0-0.15,0.02-0.2,0.06c-0.05,0.04-0.08,0.09-0.08,0.15H44.7c0-0.09,0.03-0.17,0.09-0.24
		c0.06-0.08,0.14-0.13,0.24-0.18c0.1-0.04,0.21-0.06,0.33-0.06c0.19,0,0.33,0.05,0.44,0.14c0.11,0.09,0.17,0.22,0.17,0.39v0.71
		c0,0.14,0.02,0.26,0.06,0.34v0.03H45.66z M45.27,20.93c0.07,0,0.14-0.02,0.2-0.05c0.06-0.03,0.11-0.08,0.14-0.14v-0.3h-0.19
		c-0.13,0-0.23,0.02-0.3,0.07c-0.07,0.05-0.1,0.11-0.1,0.2c0,0.07,0.02,0.12,0.07,0.16C45.14,20.91,45.2,20.93,45.27,20.93z"/>
	<path d="M46.88,20.73l0.33-1.13h0.37l-0.55,1.58h-0.31l-0.55-1.58h0.37L46.88,20.73z"/>
	<path d="M48.48,21.21c-0.23,0-0.41-0.07-0.55-0.21c-0.14-0.14-0.21-0.33-0.21-0.57v-0.04c0-0.16,0.03-0.3,0.09-0.42
		c0.06-0.12,0.15-0.22,0.26-0.29c0.11-0.07,0.23-0.1,0.37-0.1c0.21,0,0.38,0.07,0.5,0.21c0.12,0.14,0.18,0.33,0.18,0.58v0.14h-1.04
		c0.01,0.13,0.05,0.23,0.13,0.31c0.08,0.08,0.17,0.11,0.29,0.11c0.16,0,0.3-0.07,0.4-0.2l0.19,0.18c-0.06,0.09-0.15,0.17-0.25,0.22
		C48.73,21.18,48.61,21.21,48.48,21.21z M48.44,19.85c-0.1,0-0.18,0.03-0.24,0.1c-0.06,0.07-0.1,0.16-0.12,0.29h0.68v-0.03
		c-0.01-0.12-0.04-0.21-0.09-0.27C48.62,19.88,48.54,19.85,48.44,19.85z"/>
	<path d="M50.59,19.21v0.39h0.28v0.26h-0.28v0.88c0,0.06,0.01,0.1,0.04,0.13c0.02,0.03,0.07,0.04,0.13,0.04c0.04,0,0.08,0,0.12-0.01
		v0.28c-0.08,0.02-0.16,0.03-0.23,0.03c-0.27,0-0.41-0.15-0.41-0.45v-0.9h-0.26V19.6h0.26v-0.39H50.59z"/>
	<path d="M51.03,20.38c0-0.16,0.03-0.3,0.09-0.42c0.06-0.12,0.15-0.22,0.26-0.29c0.11-0.07,0.24-0.1,0.38-0.1
		c0.21,0,0.39,0.07,0.52,0.21c0.13,0.14,0.21,0.32,0.22,0.55l0,0.08c0,0.16-0.03,0.3-0.09,0.42c-0.06,0.12-0.15,0.22-0.26,0.29
		c-0.11,0.07-0.24,0.1-0.39,0.1c-0.22,0-0.4-0.07-0.54-0.22c-0.13-0.15-0.2-0.35-0.2-0.59V20.38z M51.38,20.41
		c0,0.16,0.03,0.29,0.1,0.38c0.07,0.09,0.16,0.14,0.28,0.14c0.12,0,0.21-0.05,0.28-0.14c0.07-0.09,0.1-0.23,0.1-0.41
		c0-0.16-0.03-0.29-0.1-0.38c-0.07-0.09-0.16-0.14-0.28-0.14s-0.21,0.05-0.28,0.14C51.42,20.08,51.38,20.22,51.38,20.41z"/>
	<path d="M53.48,20.38c0-0.16,0.03-0.3,0.09-0.42c0.06-0.12,0.15-0.22,0.26-0.29c0.11-0.07,0.24-0.1,0.38-0.1
		c0.21,0,0.39,0.07,0.52,0.21c0.13,0.14,0.21,0.32,0.22,0.55l0,0.08c0,0.16-0.03,0.3-0.09,0.42c-0.06,0.12-0.15,0.22-0.26,0.29
		c-0.11,0.07-0.24,0.1-0.39,0.1c-0.22,0-0.4-0.07-0.54-0.22c-0.13-0.15-0.2-0.35-0.2-0.59V20.38z M53.84,20.41
		c0,0.16,0.03,0.29,0.1,0.38c0.07,0.09,0.16,0.14,0.28,0.14c0.12,0,0.21-0.05,0.28-0.14c0.07-0.09,0.1-0.23,0.1-0.41
		c0-0.16-0.03-0.29-0.1-0.38c-0.07-0.09-0.16-0.14-0.28-0.14s-0.21,0.05-0.28,0.14C53.87,20.08,53.84,20.22,53.84,20.41z"/>
	<path d="M55.7,19.21v0.39h0.28v0.26H55.7v0.88c0,0.06,0.01,0.1,0.04,0.13c0.02,0.03,0.07,0.04,0.13,0.04c0.04,0,0.08,0,0.12-0.01
		v0.28c-0.08,0.02-0.16,0.03-0.23,0.03c-0.27,0-0.41-0.15-0.41-0.45v-0.9h-0.26V19.6h0.26v-0.39H55.7z"/>
	<path d="M56.61,19.77c0.12-0.13,0.26-0.2,0.44-0.2c0.34,0,0.51,0.19,0.51,0.58v1.04h-0.36v-1.02c0-0.11-0.02-0.19-0.07-0.23
		c-0.05-0.04-0.12-0.07-0.21-0.07c-0.14,0-0.25,0.06-0.32,0.19v1.13h-0.36v-2.25h0.36V19.77z"/>
	<path d="M58.62,21.21c-0.23,0-0.41-0.07-0.55-0.21c-0.14-0.14-0.21-0.33-0.21-0.57v-0.04c0-0.16,0.03-0.3,0.09-0.42
		c0.06-0.12,0.15-0.22,0.26-0.29c0.11-0.07,0.23-0.1,0.37-0.1c0.21,0,0.38,0.07,0.5,0.21c0.12,0.14,0.18,0.33,0.18,0.58v0.14h-1.04
		c0.01,0.13,0.05,0.23,0.13,0.31c0.08,0.08,0.17,0.11,0.29,0.11c0.16,0,0.3-0.07,0.4-0.2l0.19,0.18c-0.06,0.09-0.15,0.17-0.25,0.22
		C58.87,21.18,58.75,21.21,58.62,21.21z M58.58,19.85c-0.1,0-0.18,0.03-0.24,0.1c-0.06,0.07-0.1,0.16-0.12,0.29h0.68v-0.03
		c-0.01-0.12-0.04-0.21-0.09-0.27C58.75,19.88,58.67,19.85,58.58,19.85z"/>
	<path d="M60.36,19.92c-0.05-0.01-0.09-0.01-0.14-0.01c-0.16,0-0.27,0.06-0.33,0.19v1.08h-0.36V19.6h0.34l0.01,0.18
		c0.09-0.14,0.21-0.21,0.36-0.21c0.05,0,0.09,0.01,0.13,0.02L60.36,19.92z"/>
	<path d="M61.47,20.75c0-0.06-0.03-0.11-0.08-0.15c-0.05-0.03-0.14-0.06-0.26-0.09c-0.12-0.02-0.22-0.06-0.3-0.1
		c-0.18-0.09-0.27-0.21-0.27-0.37c0-0.14,0.06-0.25,0.17-0.34c0.11-0.09,0.26-0.14,0.44-0.14c0.19,0,0.34,0.05,0.46,0.14
		c0.12,0.09,0.17,0.22,0.17,0.36h-0.36c0-0.07-0.03-0.12-0.08-0.17c-0.05-0.05-0.12-0.07-0.2-0.07c-0.08,0-0.14,0.02-0.19,0.05
		c-0.05,0.04-0.07,0.08-0.07,0.14c0,0.05,0.02,0.1,0.07,0.13c0.05,0.03,0.14,0.06,0.28,0.09c0.14,0.03,0.25,0.07,0.33,0.11
		c0.08,0.04,0.14,0.09,0.18,0.15c0.04,0.06,0.06,0.13,0.06,0.22c0,0.14-0.06,0.26-0.18,0.35c-0.12,0.09-0.27,0.13-0.46,0.13
		c-0.13,0-0.25-0.02-0.35-0.07s-0.18-0.11-0.24-0.19c-0.06-0.08-0.09-0.17-0.09-0.27h0.35c0,0.08,0.04,0.15,0.1,0.19
		c0.06,0.05,0.14,0.07,0.23,0.07c0.09,0,0.17-0.02,0.21-0.05C61.45,20.86,61.47,20.81,61.47,20.75z"/>
</g>
</svg>
