<?xml version="1.0" encoding="utf-8"?>
<!-- Generator: Adobe Illustrator 24.3.0, SVG Export Plug-In . SVG Version: 6.00 Build 0)  -->
<svg version="1.1" id="Слой_1" xmlns="http://www.w3.org/2000/svg" xmlns:xlink="http://www.w3.org/1999/xlink" x="0px" y="0px"
	 viewBox="0 0 85.04 28.35" style="enable-background:new 0 0 85.04 28.35;" xml:space="preserve">
<g>
	<path d="M26.72,12.04c-0.21,0.27-0.49,0.47-0.86,0.61s-0.78,0.21-1.24,0.21c-0.48,0-0.9-0.11-1.27-0.32s-0.65-0.53-0.85-0.93
		s-0.3-0.87-0.31-1.41V9.75c0-0.86,0.21-1.53,0.62-2.01s0.99-0.72,1.72-0.72c0.63,0,1.14,0.16,1.51,0.47s0.6,0.77,0.67,1.35h-0.97
		c-0.11-0.69-0.51-1.03-1.19-1.03c-0.44,0-0.78,0.16-1.01,0.48s-0.35,0.79-0.36,1.4v0.44c0,0.61,0.13,1.09,0.39,1.43
		s0.62,0.51,1.08,0.51c0.51,0,0.86-0.11,1.08-0.34v-1.11h-1.17V9.86h2.16V12.04z"/>
	<path d="M32.34,10.08c0,0.56-0.1,1.05-0.29,1.47s-0.47,0.74-0.83,0.97s-0.77,0.34-1.24,0.34c-0.46,0-0.87-0.11-1.23-0.34
		s-0.64-0.55-0.84-0.96s-0.3-0.9-0.3-1.44V9.79c0-0.55,0.1-1.04,0.29-1.47s0.47-0.75,0.83-0.97s0.77-0.34,1.23-0.34
		s0.87,0.11,1.23,0.33s0.63,0.54,0.83,0.96s0.29,0.9,0.3,1.46V10.08z M31.36,9.79c0-0.63-0.12-1.11-0.36-1.45s-0.58-0.5-1.01-0.5
		c-0.43,0-0.76,0.17-1,0.5s-0.36,0.81-0.37,1.42v0.33c0,0.62,0.12,1.11,0.37,1.45s0.58,0.51,1.01,0.51c0.44,0,0.77-0.17,1.01-0.5
		s0.35-0.82,0.35-1.46V9.79z"/>
	<path d="M33.33,12.78V7.09h1.68c0.5,0,0.95,0.11,1.34,0.34s0.69,0.54,0.9,0.95s0.32,0.88,0.32,1.41v0.29
		c0,0.54-0.11,1.01-0.32,1.42s-0.52,0.72-0.92,0.95s-0.85,0.33-1.37,0.33H33.33z M34.32,7.89v4.1h0.64c0.52,0,0.92-0.16,1.19-0.49
		s0.42-0.79,0.42-1.4V9.79c0-0.62-0.13-1.09-0.4-1.41s-0.66-0.49-1.17-0.49H34.32z"/>
	<path d="M38.66,8.78l-0.48-0.3c0.23-0.34,0.36-0.7,0.36-1.08V6.78h0.83v0.54c0,0.27-0.07,0.54-0.21,0.81S38.86,8.62,38.66,8.78z"/>
	<path d="M43.26,11.31c0-0.25-0.09-0.44-0.26-0.58s-0.49-0.27-0.95-0.41s-0.82-0.29-1.09-0.46c-0.52-0.33-0.78-0.75-0.78-1.27
		c0-0.46,0.19-0.84,0.56-1.13s0.86-0.45,1.46-0.45c0.4,0,0.75,0.07,1.06,0.22s0.55,0.35,0.73,0.62s0.27,0.57,0.27,0.9h-0.98
		c0-0.3-0.09-0.53-0.28-0.7s-0.45-0.25-0.8-0.25c-0.32,0-0.57,0.07-0.75,0.21s-0.27,0.33-0.27,0.58c0,0.21,0.1,0.38,0.29,0.52
		s0.51,0.27,0.95,0.41s0.8,0.28,1.07,0.45s0.46,0.36,0.59,0.58c0.12,0.22,0.19,0.47,0.19,0.76c0,0.47-0.18,0.85-0.55,1.13
		c-0.36,0.28-0.86,0.42-1.48,0.42c-0.41,0-0.79-0.08-1.13-0.23s-0.61-0.36-0.8-0.63S40,11.42,40,11.06h0.99
		c0,0.32,0.11,0.57,0.32,0.75s0.52,0.27,0.92,0.27c0.34,0,0.6-0.07,0.78-0.21S43.26,11.54,43.26,11.31z"/>
	<path d="M51.57,11.37l0.88-4.28h0.98l-1.31,5.69h-0.95l-1.08-4.15l-1.11,4.15h-0.95l-1.31-5.69h0.98l0.88,4.27l1.09-4.27h0.83
		L51.57,11.37z"/>
	<path d="M55.19,12.78h-0.98V7.09h0.98V12.78z"/>
	<path d="M57.4,11.99h2.58v0.79h-3.57V7.09h0.99V11.99z"/>
	<path d="M61.72,11.99h2.58v0.79h-3.57V7.09h0.99V11.99z"/>
</g>
<g>
	<path d="M22.43,19.21v0.39h0.28v0.26h-0.28v0.88c0,0.06,0.01,0.1,0.04,0.13c0.02,0.03,0.07,0.04,0.13,0.04c0.04,0,0.08,0,0.12-0.01
		v0.28c-0.08,0.02-0.16,0.03-0.23,0.03c-0.27,0-0.41-0.15-0.41-0.45v-0.9h-0.26V19.6h0.26v-0.39H22.43z"/>
	<path d="M22.87,20.38c0-0.16,0.03-0.3,0.09-0.42c0.06-0.12,0.15-0.22,0.26-0.29c0.11-0.07,0.24-0.1,0.38-0.1
		c0.21,0,0.39,0.07,0.52,0.21c0.13,0.14,0.21,0.32,0.22,0.55l0,0.08c0,0.16-0.03,0.3-0.09,0.42c-0.06,0.12-0.15,0.22-0.26,0.29
		c-0.11,0.07-0.24,0.1-0.39,0.1c-0.22,0-0.4-0.07-0.54-0.22c-0.13-0.15-0.2-0.35-0.2-0.59V20.38z M23.22,20.41
		c0,0.16,0.03,0.29,0.1,0.38c0.07,0.09,0.16,0.14,0.28,0.14s0.21-0.05,0.28-0.14c0.07-0.09,0.1-0.23,0.1-0.41
		c0-0.16-0.03-0.29-0.1-0.38c-0.07-0.09-0.16-0.14-0.28-0.14c-0.12,0-0.21,0.05-0.28,0.14C23.26,20.08,23.22,20.22,23.22,20.41z"/>
	<path d="M26.28,20.75c0-0.06-0.03-0.11-0.08-0.15c-0.05-0.03-0.14-0.06-0.26-0.09c-0.12-0.02-0.22-0.06-0.3-0.1
		c-0.18-0.09-0.27-0.21-0.27-0.37c0-0.14,0.06-0.25,0.17-0.34s0.26-0.14,0.44-0.14c0.19,0,0.34,0.05,0.46,0.14
		c0.12,0.09,0.17,0.22,0.17,0.36h-0.36c0-0.07-0.03-0.12-0.08-0.17c-0.05-0.05-0.12-0.07-0.2-0.07c-0.08,0-0.14,0.02-0.19,0.05
		c-0.05,0.04-0.07,0.08-0.07,0.14c0,0.05,0.02,0.1,0.07,0.13c0.05,0.03,0.14,0.06,0.28,0.09c0.14,0.03,0.25,0.07,0.33,0.11
		c0.08,0.04,0.14,0.09,0.18,0.15c0.04,0.06,0.06,0.13,0.06,0.22c0,0.14-0.06,0.26-0.18,0.35c-0.12,0.09-0.27,0.13-0.46,0.13
		c-0.13,0-0.25-0.02-0.35-0.07s-0.18-0.11-0.24-0.19s-0.08-0.17-0.08-0.27h0.35c0,0.08,0.04,0.15,0.1,0.19
		c0.06,0.05,0.14,0.07,0.23,0.07c0.09,0,0.17-0.02,0.21-0.05C26.25,20.86,26.28,20.81,26.28,20.75z"/>
	<path d="M27.63,21.21c-0.23,0-0.41-0.07-0.55-0.21c-0.14-0.14-0.21-0.33-0.21-0.57v-0.04c0-0.16,0.03-0.3,0.09-0.42
		c0.06-0.12,0.15-0.22,0.26-0.29s0.23-0.1,0.37-0.1c0.22,0,0.38,0.07,0.5,0.21c0.12,0.14,0.18,0.33,0.18,0.58v0.14h-1.04
		c0.01,0.13,0.05,0.23,0.13,0.31s0.17,0.11,0.29,0.11c0.16,0,0.3-0.07,0.4-0.2l0.19,0.18c-0.06,0.09-0.15,0.17-0.25,0.22
		C27.88,21.18,27.77,21.21,27.63,21.21z M27.59,19.85c-0.1,0-0.18,0.03-0.24,0.1c-0.06,0.07-0.1,0.16-0.12,0.29h0.68v-0.03
		c-0.01-0.12-0.04-0.21-0.1-0.27C27.77,19.88,27.69,19.85,27.59,19.85z"/>
	<path d="M29.24,21.21c-0.23,0-0.41-0.07-0.55-0.21c-0.14-0.14-0.21-0.33-0.21-0.57v-0.04c0-0.16,0.03-0.3,0.09-0.42
		c0.06-0.12,0.15-0.22,0.26-0.29s0.23-0.1,0.37-0.1c0.22,0,0.38,0.07,0.5,0.21c0.12,0.14,0.18,0.33,0.18,0.58v0.14h-1.04
		c0.01,0.13,0.05,0.23,0.13,0.31s0.17,0.11,0.29,0.11c0.16,0,0.3-0.07,0.4-0.2l0.19,0.18c-0.06,0.09-0.15,0.17-0.25,0.22
		C29.49,21.18,29.38,21.21,29.24,21.21z M29.2,19.85c-0.1,0-0.18,0.03-0.24,0.1c-0.06,0.07-0.1,0.16-0.12,0.29h0.68v-0.03
		c-0.01-0.12-0.04-0.21-0.1-0.27C29.38,19.88,29.3,19.85,29.2,19.85z"/>
	<path d="M30.67,20.5l-0.16,0.16v0.52h-0.36v-2.25h0.36v1.3l0.11-0.14l0.44-0.49h0.43l-0.59,0.66l0.65,0.92h-0.41L30.67,20.5z"/>
	<path d="M33.42,21.18c-0.02-0.03-0.03-0.08-0.04-0.15c-0.11,0.12-0.25,0.18-0.42,0.18c-0.16,0-0.29-0.04-0.39-0.14
		c-0.1-0.09-0.15-0.2-0.15-0.34c0-0.17,0.06-0.3,0.19-0.39c0.12-0.09,0.3-0.14,0.54-0.14h0.22v-0.1c0-0.08-0.02-0.15-0.07-0.2
		c-0.05-0.05-0.12-0.07-0.21-0.07c-0.08,0-0.15,0.02-0.2,0.06c-0.05,0.04-0.08,0.09-0.08,0.15h-0.36c0-0.09,0.03-0.17,0.09-0.24
		c0.06-0.08,0.14-0.13,0.24-0.18c0.1-0.04,0.21-0.06,0.33-0.06c0.19,0,0.33,0.05,0.44,0.14c0.11,0.09,0.17,0.22,0.17,0.39v0.71
		c0,0.14,0.02,0.26,0.06,0.34v0.03H33.42z M33.02,20.93c0.07,0,0.14-0.02,0.2-0.05s0.11-0.08,0.14-0.14v-0.3h-0.19
		c-0.13,0-0.23,0.02-0.3,0.07c-0.07,0.05-0.1,0.11-0.1,0.2c0,0.07,0.02,0.12,0.07,0.16C32.89,20.91,32.95,20.93,33.02,20.93z"/>
	<path d="M34.42,19.6l0.01,0.18c0.12-0.14,0.27-0.21,0.46-0.21c0.33,0,0.5,0.19,0.5,0.57v1.05h-0.36v-1.03
		c0-0.1-0.02-0.17-0.06-0.22c-0.04-0.05-0.11-0.07-0.21-0.07c-0.14,0-0.25,0.06-0.32,0.19v1.13h-0.36V19.6H34.42z"/>
	<path d="M35.69,20.38c0-0.24,0.06-0.44,0.17-0.59c0.11-0.15,0.27-0.22,0.46-0.22c0.17,0,0.3,0.06,0.41,0.18v-0.81h0.36v2.25h-0.32
		l-0.02-0.16c-0.11,0.13-0.25,0.19-0.43,0.19c-0.19,0-0.34-0.07-0.45-0.22C35.75,20.84,35.69,20.63,35.69,20.38z M36.05,20.41
		c0,0.16,0.03,0.29,0.09,0.38c0.06,0.09,0.15,0.14,0.26,0.14c0.15,0,0.25-0.06,0.32-0.19v-0.68c-0.07-0.13-0.17-0.19-0.32-0.19
		c-0.12,0-0.2,0.04-0.27,0.14C36.08,20.09,36.05,20.22,36.05,20.41z"/>
	<path d="M38.13,20.38c0-0.16,0.03-0.3,0.09-0.42c0.06-0.12,0.15-0.22,0.26-0.29c0.11-0.07,0.24-0.1,0.38-0.1
		c0.21,0,0.39,0.07,0.52,0.21c0.13,0.14,0.21,0.32,0.22,0.55l0,0.08c0,0.16-0.03,0.3-0.09,0.42c-0.06,0.12-0.15,0.22-0.26,0.29
		c-0.11,0.07-0.24,0.1-0.39,0.1c-0.22,0-0.4-0.07-0.54-0.22c-0.13-0.15-0.2-0.35-0.2-0.59V20.38z M38.49,20.41
		c0,0.16,0.03,0.29,0.1,0.38c0.07,0.09,0.16,0.14,0.28,0.14s0.21-0.05,0.28-0.14c0.07-0.09,0.1-0.23,0.1-0.41
		c0-0.16-0.03-0.29-0.1-0.38c-0.07-0.09-0.16-0.14-0.28-0.14c-0.12,0-0.21,0.05-0.28,0.14C38.52,20.08,38.49,20.22,38.49,20.41z"/>
	<path d="M41.3,20.41c0,0.25-0.05,0.44-0.17,0.59c-0.11,0.15-0.26,0.22-0.45,0.22c-0.19,0-0.33-0.07-0.43-0.2l-0.02,0.17h-0.32
		v-2.25h0.36v0.82c0.1-0.12,0.24-0.18,0.42-0.18c0.19,0,0.34,0.07,0.46,0.22c0.11,0.14,0.17,0.34,0.17,0.6V20.41z M40.94,20.38
		c0-0.17-0.03-0.3-0.09-0.39c-0.06-0.09-0.15-0.13-0.26-0.13c-0.15,0-0.26,0.07-0.33,0.2v0.65c0.06,0.14,0.17,0.21,0.33,0.21
		c0.11,0,0.2-0.04,0.26-0.12s0.09-0.21,0.09-0.38V20.38z"/>
	<path d="M42.3,21.21c-0.23,0-0.41-0.07-0.55-0.21c-0.14-0.14-0.21-0.33-0.21-0.57v-0.04c0-0.16,0.03-0.3,0.09-0.42
		c0.06-0.12,0.15-0.22,0.26-0.29c0.11-0.07,0.23-0.1,0.37-0.1c0.21,0,0.38,0.07,0.5,0.21c0.12,0.14,0.18,0.33,0.18,0.58v0.14H41.9
		c0.01,0.13,0.05,0.23,0.13,0.31c0.08,0.08,0.17,0.11,0.29,0.11c0.16,0,0.3-0.07,0.4-0.2l0.19,0.18c-0.06,0.09-0.15,0.17-0.25,0.22
		C42.55,21.18,42.43,21.21,42.3,21.21z M42.25,19.85c-0.1,0-0.18,0.03-0.24,0.1c-0.06,0.07-0.1,0.16-0.12,0.29h0.68v-0.03
		c-0.01-0.12-0.04-0.21-0.09-0.27C42.43,19.88,42.35,19.85,42.25,19.85z"/>
	<path d="M43.74,20.67l0.32-1.08h0.38l-0.63,1.83c-0.1,0.27-0.26,0.4-0.49,0.4c-0.05,0-0.11-0.01-0.17-0.03v-0.28l0.07,0
		c0.09,0,0.16-0.02,0.2-0.05c0.05-0.03,0.08-0.09,0.11-0.16l0.05-0.14l-0.56-1.58h0.38L43.74,20.67z"/>
	<path d="M45.84,19.21v0.39h0.28v0.26h-0.28v0.88c0,0.06,0.01,0.1,0.04,0.13c0.02,0.03,0.07,0.04,0.13,0.04c0.04,0,0.08,0,0.12-0.01
		v0.28c-0.08,0.02-0.16,0.03-0.23,0.03c-0.27,0-0.41-0.15-0.41-0.45v-0.9h-0.26V19.6h0.26v-0.39H45.84z"/>
	<path d="M46.74,19.77c0.12-0.13,0.26-0.2,0.44-0.2c0.34,0,0.51,0.19,0.51,0.58v1.04h-0.36v-1.02c0-0.11-0.02-0.19-0.07-0.23
		c-0.05-0.04-0.12-0.07-0.21-0.07c-0.14,0-0.25,0.06-0.32,0.19v1.13h-0.36v-2.25h0.36V19.77z"/>
	<path d="M48.76,21.21c-0.23,0-0.41-0.07-0.55-0.21C48.07,20.86,48,20.67,48,20.43v-0.04c0-0.16,0.03-0.3,0.09-0.42
		c0.06-0.12,0.15-0.22,0.26-0.29c0.11-0.07,0.23-0.1,0.37-0.1c0.21,0,0.38,0.07,0.5,0.21c0.12,0.14,0.18,0.33,0.18,0.58v0.14h-1.04
		c0.01,0.13,0.05,0.23,0.13,0.31c0.08,0.08,0.17,0.11,0.29,0.11c0.16,0,0.3-0.07,0.4-0.2l0.19,0.18c-0.06,0.09-0.15,0.17-0.25,0.22
		C49.01,21.18,48.89,21.21,48.76,21.21z M48.71,19.85c-0.1,0-0.18,0.03-0.24,0.1c-0.06,0.07-0.1,0.16-0.12,0.29h0.68v-0.03
		c-0.01-0.12-0.04-0.21-0.09-0.27C48.89,19.88,48.81,19.85,48.71,19.85z"/>
	<path d="M51.81,20.69l0.25-1.09h0.35l-0.43,1.58h-0.29l-0.34-1.09l-0.33,1.09h-0.29l-0.43-1.58h0.35l0.26,1.08l0.32-1.08h0.27
		L51.81,20.69z"/>
	<path d="M52.65,19.19c0-0.05,0.02-0.1,0.05-0.14c0.03-0.04,0.08-0.05,0.15-0.05s0.11,0.02,0.15,0.05s0.05,0.08,0.05,0.14
		c0,0.05-0.02,0.1-0.05,0.13c-0.04,0.04-0.08,0.05-0.15,0.05s-0.11-0.02-0.15-0.05C52.66,19.28,52.65,19.24,52.65,19.19z
		 M53.02,21.18h-0.36V19.6h0.36V21.18z"/>
	<path d="M53.79,21.18h-0.36v-2.25h0.36V21.18z"/>
	<path d="M54.56,21.18H54.2v-2.25h0.36V21.18z"/>
	<path d="M55.62,20.38c0-0.16,0.03-0.3,0.09-0.42c0.06-0.12,0.15-0.22,0.26-0.29c0.11-0.07,0.24-0.1,0.38-0.1
		c0.21,0,0.39,0.07,0.52,0.21c0.13,0.14,0.21,0.32,0.22,0.55l0,0.08c0,0.16-0.03,0.3-0.09,0.42c-0.06,0.12-0.15,0.22-0.26,0.29
		c-0.11,0.07-0.24,0.1-0.39,0.1c-0.22,0-0.4-0.07-0.54-0.22c-0.13-0.15-0.2-0.35-0.2-0.59V20.38z M55.98,20.41
		c0,0.16,0.03,0.29,0.1,0.38c0.07,0.09,0.16,0.14,0.28,0.14c0.12,0,0.21-0.05,0.28-0.14c0.07-0.09,0.1-0.23,0.1-0.41
		c0-0.16-0.03-0.29-0.1-0.38c-0.07-0.09-0.16-0.14-0.28-0.14s-0.21,0.05-0.28,0.14C56.01,20.08,55.98,20.22,55.98,20.41z"/>
	<path d="M57.52,21.18v-1.32h-0.24V19.6h0.24v-0.15c0-0.18,0.05-0.31,0.15-0.41s0.23-0.14,0.41-0.14c0.06,0,0.13,0.01,0.2,0.03
		l-0.01,0.28c-0.04-0.01-0.08-0.01-0.14-0.01c-0.17,0-0.25,0.09-0.25,0.26v0.14h0.32v0.26h-0.32v1.32H57.52z"/>
	<path d="M60.88,20.9c-0.08,0.1-0.18,0.18-0.32,0.23c-0.14,0.05-0.29,0.08-0.47,0.08c-0.18,0-0.34-0.04-0.47-0.12
		c-0.14-0.08-0.24-0.2-0.32-0.35c-0.07-0.15-0.11-0.33-0.12-0.53v-0.17c0-0.32,0.08-0.57,0.23-0.76c0.15-0.18,0.37-0.27,0.65-0.27
		c0.24,0,0.42,0.06,0.56,0.18c0.14,0.12,0.22,0.29,0.25,0.51h-0.36c-0.04-0.26-0.19-0.38-0.45-0.38c-0.17,0-0.29,0.06-0.38,0.18
		c-0.09,0.12-0.13,0.29-0.13,0.53v0.16c0,0.23,0.05,0.41,0.15,0.54c0.1,0.13,0.23,0.19,0.41,0.19c0.19,0,0.32-0.04,0.4-0.13v-0.42
		h-0.44v-0.28h0.81V20.9z"/>
	<path d="M61.18,20.38c0-0.16,0.03-0.3,0.09-0.42c0.06-0.12,0.15-0.22,0.26-0.29c0.11-0.07,0.24-0.1,0.38-0.1
		c0.21,0,0.39,0.07,0.52,0.21c0.13,0.14,0.21,0.32,0.22,0.55l0,0.08c0,0.16-0.03,0.3-0.09,0.42c-0.06,0.12-0.15,0.22-0.26,0.29
		c-0.11,0.07-0.24,0.1-0.39,0.1c-0.22,0-0.4-0.07-0.54-0.22c-0.13-0.15-0.2-0.35-0.2-0.59V20.38z M61.54,20.41
		c0,0.16,0.03,0.29,0.1,0.38c0.07,0.09,0.16,0.14,0.28,0.14c0.12,0,0.21-0.05,0.28-0.14c0.07-0.09,0.1-0.23,0.1-0.41
		c0-0.16-0.03-0.29-0.1-0.38c-0.07-0.09-0.16-0.14-0.28-0.14s-0.21,0.05-0.28,0.14C61.58,20.08,61.54,20.22,61.54,20.41z"/>
	<path d="M62.89,20.38c0-0.24,0.06-0.44,0.17-0.59c0.11-0.15,0.27-0.22,0.46-0.22c0.17,0,0.3,0.06,0.41,0.18v-0.81h0.36v2.25h-0.32
		l-0.02-0.16c-0.11,0.13-0.25,0.19-0.43,0.19c-0.19,0-0.34-0.07-0.45-0.22C62.95,20.84,62.89,20.63,62.89,20.38z M63.25,20.41
		c0,0.16,0.03,0.29,0.09,0.38c0.06,0.09,0.15,0.14,0.26,0.14c0.15,0,0.25-0.06,0.32-0.19v-0.68c-0.07-0.13-0.17-0.19-0.32-0.19
		c-0.12,0-0.2,0.04-0.27,0.14C63.28,20.09,63.25,20.22,63.25,20.41z"/>
</g>
</svg>
