<?xml version="1.0" encoding="utf-8"?>
<!-- Generator: Adobe Illustrator 24.3.0, SVG Export Plug-In . SVG Version: 6.00 Build 0)  -->
<svg version="1.1" id="Слой_1" xmlns="http://www.w3.org/2000/svg" xmlns:xlink="http://www.w3.org/1999/xlink" x="0px" y="0px"
	 viewBox="0 0 85.04 28.35" style="enable-background:new 0 0 85.04 28.35;" xml:space="preserve">
<style type="text/css">
	.st0{enable-background:new    ;}
	.st1{fill:none;}
</style>
<g class="st0">
	<path d="M19.84,12.78h-0.98V7.09h0.98V12.78z"/>
	<path d="M25.56,12.78h-0.99l-2.54-4.04v4.04h-0.99V7.09h0.99l2.54,4.05V7.09h0.98V12.78z"/>
	<path d="M31.24,12.78h-0.99l-2.54-4.04v4.04h-0.99V7.09h0.99l2.54,4.05V7.09h0.98V12.78z"/>
	<path d="M35.74,10.24H33.4v1.75h2.73v0.79h-3.72V7.09h3.69v0.8h-2.7v1.57h2.34V10.24z"/>
	<path d="M39.03,10.59h-1.1v2.19h-0.99V7.09h2c0.66,0,1.16,0.15,1.52,0.44c0.36,0.29,0.54,0.72,0.54,1.28c0,0.38-0.09,0.7-0.28,0.96
		s-0.44,0.45-0.77,0.59l1.28,2.37v0.05h-1.06L39.03,10.59z M37.92,9.79h1.02c0.33,0,0.59-0.08,0.78-0.25S40,9.15,40,8.85
		c0-0.3-0.09-0.54-0.26-0.71s-0.43-0.25-0.78-0.26h-1.04V9.79z"/>
	<path d="M44.91,10.67v2.11h-0.99V7.09h2.18c0.64,0,1.14,0.17,1.51,0.5c0.37,0.33,0.56,0.77,0.56,1.31c0,0.56-0.18,0.99-0.55,1.3
		c-0.37,0.31-0.88,0.46-1.54,0.46H44.91z M44.91,9.87h1.19c0.35,0,0.62-0.08,0.8-0.25c0.19-0.17,0.28-0.4,0.28-0.72
		c0-0.31-0.09-0.55-0.28-0.74s-0.45-0.28-0.77-0.28h-1.21V9.87z"/>
	<path d="M52.36,10.24h-2.34v1.75h2.73v0.79h-3.72V7.09h3.69v0.8h-2.7v1.57h2.34V10.24z"/>
	<path d="M56.74,11.45h-2.2l-0.46,1.32h-1.03l2.15-5.69h0.89l2.15,5.69h-1.03L56.74,11.45z M54.81,10.66h1.65L55.64,8.3L54.81,10.66
		z"/>
	<path d="M63.14,10.93c-0.06,0.61-0.28,1.08-0.67,1.42s-0.91,0.51-1.56,0.51c-0.45,0-0.85-0.11-1.2-0.32
		c-0.34-0.21-0.61-0.52-0.8-0.92s-0.29-0.86-0.29-1.38V9.71c0-0.54,0.1-1.01,0.29-1.42c0.19-0.41,0.46-0.72,0.82-0.95
		s0.77-0.33,1.23-0.33c0.63,0,1.13,0.17,1.52,0.51s0.61,0.82,0.67,1.44h-0.98c-0.05-0.41-0.17-0.7-0.36-0.88s-0.47-0.27-0.84-0.27
		c-0.43,0-0.76,0.16-0.99,0.47c-0.23,0.31-0.35,0.78-0.35,1.38v0.5c0,0.62,0.11,1.08,0.33,1.41c0.22,0.32,0.54,0.48,0.97,0.48
		c0.39,0,0.68-0.09,0.88-0.26s0.32-0.46,0.37-0.87H63.14z"/>
	<path d="M67.35,10.24h-2.34v1.75h2.73v0.79h-3.72V7.09h3.69v0.8h-2.7v1.57h2.34V10.24z"/>
</g>
<g class="st0">
	<path d="M24.06,19.21v0.39h0.28v0.26h-0.28v0.88c0,0.06,0.01,0.1,0.04,0.13c0.02,0.03,0.07,0.04,0.13,0.04c0.04,0,0.08,0,0.12-0.01
		v0.28c-0.08,0.02-0.16,0.03-0.23,0.03c-0.27,0-0.41-0.15-0.41-0.45v-0.9h-0.26V19.6h0.26v-0.39H24.06z"/>
	<path d="M24.5,20.38c0-0.16,0.03-0.3,0.09-0.42c0.06-0.12,0.15-0.22,0.26-0.29c0.11-0.07,0.24-0.1,0.38-0.1
		c0.21,0,0.39,0.07,0.52,0.21c0.13,0.14,0.21,0.32,0.22,0.55l0,0.08c0,0.16-0.03,0.3-0.09,0.42c-0.06,0.12-0.15,0.22-0.26,0.29
		c-0.11,0.07-0.24,0.1-0.39,0.1c-0.22,0-0.4-0.07-0.54-0.22c-0.13-0.15-0.2-0.35-0.2-0.59V20.38z M24.85,20.41
		c0,0.16,0.03,0.29,0.1,0.38c0.07,0.09,0.16,0.14,0.28,0.14s0.21-0.05,0.28-0.14c0.07-0.09,0.1-0.23,0.1-0.41
		c0-0.16-0.03-0.29-0.1-0.38c-0.07-0.09-0.16-0.14-0.28-0.14c-0.12,0-0.21,0.05-0.28,0.14C24.89,20.08,24.85,20.22,24.85,20.41z"/>
	<path d="M27.72,21.21c-0.23,0-0.41-0.07-0.55-0.21c-0.14-0.14-0.21-0.33-0.21-0.57v-0.04c0-0.16,0.03-0.3,0.09-0.42
		c0.06-0.12,0.15-0.22,0.26-0.29s0.23-0.1,0.37-0.1c0.22,0,0.38,0.07,0.5,0.21c0.12,0.14,0.18,0.33,0.18,0.58v0.14h-1.04
		c0.01,0.13,0.05,0.23,0.13,0.31s0.17,0.11,0.29,0.11c0.16,0,0.3-0.07,0.4-0.2l0.19,0.18c-0.06,0.09-0.15,0.17-0.25,0.22
		C27.97,21.18,27.85,21.21,27.72,21.21z M27.67,19.85c-0.1,0-0.18,0.03-0.24,0.1c-0.06,0.07-0.1,0.16-0.12,0.29H28v-0.03
		c-0.01-0.12-0.04-0.21-0.1-0.27C27.85,19.88,27.77,19.85,27.67,19.85z"/>
	<path d="M29.2,20.12l0.3-0.52h0.4l-0.48,0.78l0.5,0.8h-0.39l-0.32-0.54l-0.31,0.54h-0.4l0.5-0.8l-0.48-0.78h0.39L29.2,20.12z"/>
	<path d="M31.52,20.41c0,0.25-0.06,0.44-0.17,0.59c-0.11,0.15-0.26,0.22-0.45,0.22c-0.17,0-0.31-0.06-0.42-0.17v0.75h-0.36V19.6
		h0.33l0.01,0.16c0.1-0.13,0.25-0.19,0.43-0.19c0.19,0,0.35,0.07,0.45,0.22c0.11,0.14,0.17,0.34,0.17,0.6V20.41z M31.17,20.38
		c0-0.16-0.03-0.28-0.09-0.38c-0.06-0.09-0.15-0.14-0.27-0.14c-0.15,0-0.25,0.06-0.31,0.18v0.7c0.06,0.12,0.17,0.18,0.32,0.18
		c0.11,0,0.2-0.05,0.27-0.14C31.14,20.7,31.17,20.56,31.17,20.38z"/>
	<path d="M32.52,21.21c-0.23,0-0.41-0.07-0.55-0.21c-0.14-0.14-0.21-0.33-0.21-0.57v-0.04c0-0.16,0.03-0.3,0.09-0.42
		c0.06-0.12,0.15-0.22,0.26-0.29s0.23-0.1,0.37-0.1c0.22,0,0.38,0.07,0.5,0.21c0.12,0.14,0.18,0.33,0.18,0.58v0.14h-1.04
		c0.01,0.13,0.05,0.23,0.13,0.31s0.17,0.11,0.29,0.11c0.16,0,0.3-0.07,0.4-0.2l0.19,0.18c-0.06,0.09-0.15,0.17-0.25,0.22
		C32.77,21.18,32.66,21.21,32.52,21.21z M32.48,19.85c-0.1,0-0.18,0.03-0.24,0.1c-0.06,0.07-0.1,0.16-0.12,0.29h0.68v-0.03
		c-0.01-0.12-0.04-0.21-0.1-0.27C32.66,19.88,32.58,19.85,32.48,19.85z"/>
	<path d="M34.27,19.92c-0.05-0.01-0.1-0.01-0.15-0.01c-0.16,0-0.27,0.06-0.33,0.19v1.08h-0.36V19.6h0.34l0.01,0.18
		c0.09-0.14,0.21-0.21,0.36-0.21c0.05,0,0.09,0.01,0.13,0.02L34.27,19.92z"/>
	<path d="M34.49,19.19c0-0.05,0.02-0.1,0.05-0.14c0.03-0.04,0.08-0.05,0.15-0.05s0.11,0.02,0.15,0.05s0.05,0.08,0.05,0.14
		c0,0.05-0.02,0.1-0.05,0.13c-0.04,0.04-0.08,0.05-0.15,0.05s-0.11-0.02-0.15-0.05C34.51,19.28,34.49,19.24,34.49,19.19z
		 M34.87,21.18h-0.36V19.6h0.36V21.18z"/>
	<path d="M35.95,21.21c-0.23,0-0.41-0.07-0.55-0.21c-0.14-0.14-0.21-0.33-0.21-0.57v-0.04c0-0.16,0.03-0.3,0.09-0.42
		c0.06-0.12,0.15-0.22,0.26-0.29s0.23-0.1,0.37-0.1c0.22,0,0.38,0.07,0.5,0.21c0.12,0.14,0.18,0.33,0.18,0.58v0.14h-1.04
		c0.01,0.13,0.05,0.23,0.13,0.31s0.17,0.11,0.29,0.11c0.16,0,0.3-0.07,0.4-0.2l0.19,0.18c-0.06,0.09-0.15,0.17-0.25,0.22
		C36.21,21.18,36.09,21.21,35.95,21.21z M35.91,19.85c-0.1,0-0.18,0.03-0.24,0.1c-0.06,0.07-0.1,0.16-0.12,0.29h0.68v-0.03
		c-0.01-0.12-0.04-0.21-0.1-0.27C36.09,19.88,36.01,19.85,35.91,19.85z"/>
	<path d="M37.2,19.6l0.01,0.18c0.12-0.14,0.27-0.21,0.46-0.21c0.33,0,0.5,0.19,0.5,0.57v1.05h-0.36v-1.03c0-0.1-0.02-0.17-0.06-0.22
		c-0.04-0.05-0.11-0.07-0.21-0.07c-0.14,0-0.25,0.06-0.32,0.19v1.13h-0.36V19.6H37.2z"/>
	<path d="M39.19,20.93c0.09,0,0.16-0.03,0.22-0.08s0.09-0.12,0.09-0.19h0.34c0,0.1-0.03,0.19-0.09,0.28
		c-0.06,0.08-0.14,0.15-0.23,0.2c-0.1,0.05-0.21,0.07-0.32,0.07c-0.22,0-0.4-0.07-0.53-0.21c-0.13-0.14-0.19-0.34-0.19-0.6v-0.04
		c0-0.24,0.06-0.43,0.19-0.58c0.13-0.15,0.3-0.22,0.53-0.22c0.19,0,0.34,0.05,0.46,0.17c0.12,0.11,0.18,0.25,0.19,0.43H39.5
		c0-0.09-0.04-0.17-0.09-0.22c-0.06-0.06-0.13-0.09-0.22-0.09c-0.12,0-0.2,0.04-0.27,0.12c-0.06,0.08-0.09,0.21-0.1,0.38v0.06
		c0,0.17,0.03,0.3,0.09,0.38C38.98,20.88,39.07,20.93,39.19,20.93z"/>
	<path d="M40.8,21.21c-0.23,0-0.41-0.07-0.55-0.21c-0.14-0.14-0.21-0.33-0.21-0.57v-0.04c0-0.16,0.03-0.3,0.09-0.42
		c0.06-0.12,0.15-0.22,0.26-0.29s0.23-0.1,0.37-0.1c0.22,0,0.38,0.07,0.5,0.21c0.12,0.14,0.18,0.33,0.18,0.58v0.14H40.4
		c0.01,0.13,0.05,0.23,0.13,0.31s0.17,0.11,0.29,0.11c0.16,0,0.3-0.07,0.4-0.2l0.19,0.18c-0.06,0.09-0.15,0.17-0.25,0.22
		C41.05,21.18,40.94,21.21,40.8,21.21z M40.76,19.85c-0.1,0-0.18,0.03-0.24,0.1c-0.06,0.07-0.1,0.16-0.12,0.29h0.68v-0.03
		c-0.01-0.12-0.04-0.21-0.1-0.27C40.94,19.88,40.86,19.85,40.76,19.85z"/>
	<path d="M43.85,20.41c0,0.25-0.06,0.44-0.17,0.59c-0.11,0.15-0.26,0.22-0.45,0.22c-0.17,0-0.31-0.06-0.42-0.17v0.75h-0.36V19.6
		h0.33l0.01,0.16c0.1-0.13,0.25-0.19,0.43-0.19c0.19,0,0.35,0.07,0.45,0.22c0.11,0.14,0.17,0.34,0.17,0.6V20.41z M43.5,20.38
		c0-0.16-0.03-0.28-0.09-0.38c-0.06-0.09-0.15-0.14-0.27-0.14c-0.15,0-0.25,0.06-0.31,0.18v0.7c0.06,0.12,0.17,0.18,0.32,0.18
		c0.11,0,0.2-0.05,0.27-0.14C43.46,20.7,43.5,20.56,43.5,20.38z"/>
	<path d="M44.85,21.21c-0.23,0-0.41-0.07-0.55-0.21c-0.14-0.14-0.21-0.33-0.21-0.57v-0.04c0-0.16,0.03-0.3,0.09-0.42
		c0.06-0.12,0.15-0.22,0.26-0.29s0.23-0.1,0.37-0.1c0.22,0,0.38,0.07,0.5,0.21c0.12,0.14,0.18,0.33,0.18,0.58v0.14h-1.04
		c0.01,0.13,0.05,0.23,0.13,0.31c0.08,0.08,0.17,0.11,0.29,0.11c0.16,0,0.3-0.07,0.4-0.2l0.19,0.18c-0.06,0.09-0.15,0.17-0.25,0.22
		C45.1,21.18,44.98,21.21,44.85,21.21z M44.81,19.85c-0.1,0-0.18,0.03-0.24,0.1c-0.06,0.07-0.1,0.16-0.12,0.29h0.68v-0.03
		c-0.01-0.12-0.04-0.21-0.09-0.27C44.98,19.88,44.91,19.85,44.81,19.85z"/>
	<path d="M46.59,19.92c-0.05-0.01-0.1-0.01-0.15-0.01c-0.16,0-0.27,0.06-0.33,0.19v1.08h-0.36V19.6h0.34l0.01,0.18
		c0.09-0.14,0.21-0.21,0.36-0.21c0.05,0,0.09,0.01,0.13,0.02L46.59,19.92z"/>
	<path d="M47.7,20.75c0-0.06-0.03-0.11-0.08-0.15c-0.05-0.03-0.14-0.06-0.26-0.09c-0.12-0.02-0.22-0.06-0.3-0.1
		c-0.18-0.09-0.27-0.21-0.27-0.37c0-0.14,0.06-0.25,0.17-0.34s0.26-0.14,0.44-0.14c0.19,0,0.34,0.05,0.46,0.14
		c0.12,0.09,0.17,0.22,0.17,0.36h-0.36c0-0.07-0.03-0.12-0.08-0.17c-0.05-0.05-0.12-0.07-0.2-0.07c-0.08,0-0.14,0.02-0.19,0.05
		c-0.05,0.04-0.07,0.08-0.07,0.14c0,0.05,0.02,0.1,0.07,0.13c0.05,0.03,0.14,0.06,0.28,0.09c0.14,0.03,0.25,0.07,0.33,0.11
		c0.08,0.04,0.14,0.09,0.18,0.15c0.04,0.06,0.06,0.13,0.06,0.22c0,0.14-0.06,0.26-0.18,0.35c-0.12,0.09-0.27,0.13-0.46,0.13
		c-0.13,0-0.25-0.02-0.35-0.07s-0.18-0.11-0.24-0.19s-0.08-0.17-0.08-0.27h0.35c0,0.08,0.04,0.15,0.09,0.19
		c0.06,0.05,0.14,0.07,0.23,0.07c0.09,0,0.17-0.02,0.21-0.05C47.68,20.86,47.7,20.81,47.7,20.75z"/>
	<path d="M48.3,20.38c0-0.16,0.03-0.3,0.09-0.42c0.06-0.12,0.15-0.22,0.26-0.29c0.11-0.07,0.24-0.1,0.38-0.1
		c0.21,0,0.39,0.07,0.52,0.21c0.13,0.14,0.21,0.32,0.22,0.55l0,0.08c0,0.16-0.03,0.3-0.09,0.42c-0.06,0.12-0.15,0.22-0.26,0.29
		c-0.11,0.07-0.24,0.1-0.39,0.1c-0.22,0-0.4-0.07-0.54-0.22c-0.13-0.15-0.2-0.35-0.2-0.59V20.38z M48.65,20.41
		c0,0.16,0.03,0.29,0.1,0.38c0.07,0.09,0.16,0.14,0.28,0.14s0.21-0.05,0.28-0.14c0.07-0.09,0.1-0.23,0.1-0.41
		c0-0.16-0.03-0.29-0.1-0.38c-0.07-0.09-0.16-0.14-0.28-0.14c-0.12,0-0.21,0.05-0.28,0.14C48.69,20.08,48.65,20.22,48.65,20.41z"/>
	<path d="M50.4,19.6l0.01,0.18c0.12-0.14,0.27-0.21,0.46-0.21c0.33,0,0.5,0.19,0.5,0.57v1.05h-0.36v-1.03c0-0.1-0.02-0.17-0.06-0.22
		c-0.04-0.05-0.12-0.07-0.21-0.07c-0.14,0-0.25,0.06-0.32,0.19v1.13h-0.36V19.6H50.4z"/>
	<path d="M52.69,21.18c-0.02-0.03-0.03-0.08-0.04-0.15c-0.11,0.12-0.25,0.18-0.42,0.18c-0.16,0-0.29-0.04-0.39-0.14
		c-0.1-0.09-0.15-0.2-0.15-0.34c0-0.17,0.06-0.3,0.19-0.39c0.12-0.09,0.3-0.14,0.54-0.14h0.22v-0.1c0-0.08-0.02-0.15-0.07-0.2
		c-0.05-0.05-0.12-0.07-0.21-0.07c-0.08,0-0.15,0.02-0.2,0.06c-0.05,0.04-0.08,0.09-0.08,0.15h-0.36c0-0.09,0.03-0.17,0.09-0.24
		c0.06-0.08,0.14-0.13,0.24-0.18c0.1-0.04,0.21-0.06,0.33-0.06c0.19,0,0.33,0.05,0.44,0.14c0.11,0.09,0.17,0.22,0.17,0.39v0.71
		c0,0.14,0.02,0.26,0.06,0.34v0.03H52.69z M52.3,20.93c0.07,0,0.14-0.02,0.2-0.05c0.06-0.03,0.11-0.08,0.14-0.14v-0.3h-0.19
		c-0.13,0-0.23,0.02-0.3,0.07c-0.07,0.05-0.1,0.11-0.1,0.2c0,0.07,0.02,0.12,0.07,0.16C52.16,20.91,52.22,20.93,52.3,20.93z"/>
	<path d="M53.74,21.18h-0.36v-2.25h0.36V21.18z"/>
	<path d="M56.26,20.41c0,0.25-0.06,0.44-0.17,0.59c-0.11,0.15-0.26,0.22-0.45,0.22c-0.17,0-0.31-0.06-0.42-0.17v0.75h-0.36V19.6
		h0.33l0.01,0.16c0.1-0.13,0.25-0.19,0.43-0.19c0.19,0,0.35,0.07,0.46,0.22c0.11,0.14,0.17,0.34,0.17,0.6V20.41z M55.91,20.38
		c0-0.16-0.03-0.28-0.09-0.38c-0.06-0.09-0.15-0.14-0.27-0.14c-0.15,0-0.25,0.06-0.31,0.18v0.7c0.06,0.12,0.17,0.18,0.32,0.18
		c0.11,0,0.2-0.05,0.27-0.14C55.88,20.7,55.91,20.56,55.91,20.38z"/>
	<path d="M57.26,21.21c-0.23,0-0.41-0.07-0.55-0.21c-0.14-0.14-0.21-0.33-0.21-0.57v-0.04c0-0.16,0.03-0.3,0.09-0.42
		c0.06-0.12,0.15-0.22,0.26-0.29s0.23-0.1,0.37-0.1c0.22,0,0.38,0.07,0.5,0.21c0.12,0.14,0.18,0.33,0.18,0.58v0.14h-1.04
		c0.01,0.13,0.05,0.23,0.13,0.31c0.08,0.08,0.17,0.11,0.29,0.11c0.16,0,0.3-0.07,0.4-0.2l0.19,0.18c-0.06,0.09-0.15,0.17-0.25,0.22
		C57.51,21.18,57.4,21.21,57.26,21.21z M57.22,19.85c-0.1,0-0.18,0.03-0.24,0.1c-0.06,0.07-0.1,0.16-0.12,0.29h0.68v-0.03
		c-0.01-0.12-0.04-0.21-0.1-0.27C57.4,19.88,57.32,19.85,57.22,19.85z"/>
	<path d="M59.12,21.18c-0.02-0.03-0.03-0.08-0.04-0.15c-0.11,0.12-0.25,0.18-0.42,0.18c-0.16,0-0.29-0.04-0.39-0.14
		c-0.1-0.09-0.15-0.2-0.15-0.34c0-0.17,0.06-0.3,0.19-0.39c0.12-0.09,0.3-0.14,0.54-0.14h0.22v-0.1c0-0.08-0.02-0.15-0.07-0.2
		c-0.05-0.05-0.12-0.07-0.21-0.07c-0.08,0-0.15,0.02-0.2,0.06c-0.05,0.04-0.08,0.09-0.08,0.15h-0.36c0-0.09,0.03-0.17,0.09-0.24
		c0.06-0.08,0.14-0.13,0.24-0.18c0.1-0.04,0.21-0.06,0.33-0.06c0.19,0,0.33,0.05,0.44,0.14c0.11,0.09,0.17,0.22,0.17,0.39v0.71
		c0,0.14,0.02,0.26,0.06,0.34v0.03H59.12z M58.73,20.93c0.07,0,0.14-0.02,0.2-0.05c0.06-0.03,0.11-0.08,0.14-0.14v-0.3h-0.19
		c-0.13,0-0.23,0.02-0.3,0.07c-0.07,0.05-0.1,0.11-0.1,0.2c0,0.07,0.02,0.12,0.07,0.16C58.59,20.91,58.66,20.93,58.73,20.93z"/>
	<path d="M60.45,20.93c0.09,0,0.16-0.03,0.22-0.08s0.09-0.12,0.09-0.19h0.33c0,0.1-0.03,0.19-0.09,0.28
		c-0.06,0.08-0.14,0.15-0.23,0.2c-0.1,0.05-0.21,0.07-0.32,0.07c-0.22,0-0.4-0.07-0.53-0.21c-0.13-0.14-0.2-0.34-0.2-0.6v-0.04
		c0-0.24,0.06-0.43,0.19-0.58c0.13-0.15,0.3-0.22,0.53-0.22c0.19,0,0.34,0.05,0.46,0.17c0.12,0.11,0.18,0.25,0.19,0.43h-0.33
		c0-0.09-0.04-0.17-0.09-0.22c-0.06-0.06-0.13-0.09-0.22-0.09c-0.12,0-0.2,0.04-0.27,0.12c-0.06,0.08-0.09,0.21-0.09,0.38v0.06
		c0,0.17,0.03,0.3,0.09,0.38C60.24,20.88,60.33,20.93,60.45,20.93z"/>
	<path d="M62.07,21.21c-0.23,0-0.41-0.07-0.55-0.21c-0.14-0.14-0.21-0.33-0.21-0.57v-0.04c0-0.16,0.03-0.3,0.09-0.42
		c0.06-0.12,0.15-0.22,0.26-0.29s0.23-0.1,0.37-0.1c0.22,0,0.38,0.07,0.5,0.21c0.12,0.14,0.18,0.33,0.18,0.58v0.14h-1.04
		c0.01,0.13,0.05,0.23,0.13,0.31c0.08,0.08,0.17,0.11,0.29,0.11c0.16,0,0.3-0.07,0.4-0.2l0.19,0.18c-0.06,0.09-0.15,0.17-0.25,0.22
		C62.32,21.18,62.2,21.21,62.07,21.21z M62.02,19.85c-0.1,0-0.18,0.03-0.24,0.1c-0.06,0.07-0.1,0.16-0.12,0.29h0.68v-0.03
		c-0.01-0.12-0.04-0.21-0.09-0.27C62.2,19.88,62.12,19.85,62.02,19.85z"/>
</g>
<rect x="44.87" y="25.77" class="st1" width="3.26" height="1.47"/>
</svg>
