<?xml version="1.0" encoding="utf-8"?>
<!-- Generator: Adobe Illustrator 24.3.0, SVG Export Plug-In . SVG Version: 6.00 Build 0)  -->
<svg version="1.1" id="Слой_1" xmlns="http://www.w3.org/2000/svg" xmlns:xlink="http://www.w3.org/1999/xlink" x="0px" y="0px"
	 viewBox="0 0 85.04 28.35" style="enable-background:new 0 0 85.04 28.35;" xml:space="preserve">
<style type="text/css">
	.st0{enable-background:new    ;}
	.st1{fill:none;}
</style>
<g class="st0">
	<path d="M26.79,7.09l1.64,4.36l1.64-4.36h1.28v5.69h-0.98V10.9l0.1-2.51l-1.68,4.38h-0.71L26.4,8.4l0.1,2.5v1.88h-0.98V7.09H26.79z
		"/>
	<path d="M35.77,11.45h-2.2l-0.46,1.32h-1.03l2.15-5.69h0.89l2.15,5.69h-1.03L35.77,11.45z M33.84,10.66h1.65L34.67,8.3L33.84,10.66
		z"/>
	<path d="M40.88,11.31c0-0.25-0.09-0.44-0.26-0.58s-0.49-0.27-0.95-0.41s-0.82-0.29-1.09-0.46c-0.52-0.33-0.78-0.75-0.78-1.27
		c0-0.46,0.19-0.84,0.56-1.13s0.86-0.45,1.46-0.45c0.4,0,0.75,0.07,1.06,0.22s0.55,0.35,0.73,0.62s0.27,0.57,0.27,0.9h-0.98
		c0-0.3-0.09-0.53-0.28-0.7S40.15,7.8,39.8,7.8c-0.32,0-0.57,0.07-0.75,0.21s-0.27,0.33-0.27,0.58c0,0.21,0.1,0.38,0.29,0.52
		s0.51,0.27,0.95,0.41s0.8,0.28,1.07,0.45s0.46,0.36,0.59,0.58s0.19,0.47,0.19,0.76c0,0.47-0.18,0.85-0.54,1.13
		s-0.86,0.42-1.48,0.42c-0.41,0-0.79-0.08-1.13-0.23s-0.61-0.36-0.8-0.63s-0.29-0.58-0.29-0.94h0.99c0,0.32,0.11,0.57,0.32,0.75
		s0.52,0.27,0.92,0.27c0.34,0,0.6-0.07,0.78-0.21S40.88,11.54,40.88,11.31z"/>
	<path d="M46.85,7.89h-1.77v4.89h-0.98V7.89h-1.76v-0.8h4.51V7.89z"/>
	<path d="M50.92,10.24h-2.34v1.75h2.73v0.79h-3.72V7.09h3.69v0.8h-2.7v1.57h2.34V10.24z"/>
	<path d="M54.21,10.59h-1.1v2.19h-0.99V7.09h2c0.66,0,1.16,0.15,1.52,0.44c0.36,0.29,0.54,0.72,0.54,1.28c0,0.38-0.09,0.7-0.28,0.96
		s-0.44,0.45-0.77,0.59l1.28,2.37v0.05h-1.06L54.21,10.59z M53.1,9.79h1.02c0.33,0,0.59-0.08,0.78-0.25s0.28-0.4,0.28-0.69
		c0-0.3-0.09-0.54-0.26-0.71c-0.17-0.17-0.43-0.25-0.78-0.26H53.1V9.79z"/>
	<path d="M58.78,9.79l1.31-2.7h1.09l-1.91,3.59v2.09h-0.99v-2.09l-1.91-3.59h1.1L58.78,9.79z"/>
</g>
<g class="st0">
	<path d="M15.97,19.21v0.39h0.28v0.26h-0.28v0.88c0,0.06,0.01,0.1,0.04,0.13c0.02,0.03,0.07,0.04,0.13,0.04c0.04,0,0.08,0,0.12-0.01
		v0.28c-0.08,0.02-0.16,0.03-0.23,0.03c-0.27,0-0.41-0.15-0.41-0.45v-0.9h-0.26V19.6h0.26v-0.39H15.97z"/>
	<path d="M16.41,20.38c0-0.16,0.03-0.3,0.09-0.42c0.06-0.12,0.15-0.22,0.26-0.29c0.11-0.07,0.24-0.1,0.38-0.1
		c0.21,0,0.39,0.07,0.52,0.21c0.13,0.14,0.21,0.32,0.22,0.55l0,0.08c0,0.16-0.03,0.3-0.09,0.42c-0.06,0.12-0.15,0.22-0.26,0.29
		c-0.11,0.07-0.24,0.1-0.39,0.1c-0.22,0-0.4-0.07-0.54-0.22c-0.13-0.15-0.2-0.35-0.2-0.59V20.38z M16.77,20.41
		c0,0.16,0.03,0.29,0.1,0.38c0.07,0.09,0.16,0.14,0.28,0.14s0.21-0.05,0.28-0.14c0.07-0.09,0.1-0.23,0.1-0.41
		c0-0.16-0.03-0.29-0.1-0.38c-0.07-0.09-0.16-0.14-0.28-0.14c-0.12,0-0.21,0.05-0.28,0.14C16.8,20.08,16.77,20.22,16.77,20.41z"/>
	<path d="M20.33,20.41c0,0.25-0.05,0.44-0.17,0.59c-0.11,0.15-0.26,0.22-0.45,0.22c-0.19,0-0.33-0.07-0.43-0.2l-0.02,0.17h-0.32
		v-2.25h0.36v0.82c0.1-0.12,0.24-0.18,0.41-0.18c0.19,0,0.35,0.07,0.46,0.22c0.11,0.14,0.17,0.34,0.17,0.6V20.41z M19.97,20.38
		c0-0.17-0.03-0.3-0.09-0.39s-0.15-0.13-0.26-0.13c-0.15,0-0.26,0.07-0.33,0.2v0.65c0.06,0.14,0.17,0.21,0.33,0.21
		c0.11,0,0.2-0.04,0.26-0.12s0.09-0.21,0.09-0.38V20.38z"/>
	<path d="M21.32,21.21c-0.23,0-0.41-0.07-0.55-0.21c-0.14-0.14-0.21-0.33-0.21-0.57v-0.04c0-0.16,0.03-0.3,0.09-0.42
		c0.06-0.12,0.15-0.22,0.26-0.29s0.23-0.1,0.37-0.1c0.22,0,0.38,0.07,0.5,0.21c0.12,0.14,0.18,0.33,0.18,0.58v0.14h-1.04
		c0.01,0.13,0.05,0.23,0.13,0.31s0.17,0.11,0.29,0.11c0.16,0,0.3-0.07,0.4-0.2l0.19,0.18c-0.06,0.09-0.15,0.17-0.25,0.22
		C21.57,21.18,21.45,21.21,21.32,21.21z M21.28,19.85c-0.1,0-0.18,0.03-0.24,0.1c-0.06,0.07-0.1,0.16-0.12,0.29h0.68v-0.03
		c-0.01-0.12-0.04-0.21-0.1-0.27C21.46,19.88,21.38,19.85,21.28,19.85z"/>
	<path d="M23.63,20.93c0.09,0,0.16-0.03,0.22-0.08s0.09-0.12,0.09-0.19h0.34c0,0.1-0.03,0.19-0.09,0.28
		c-0.06,0.08-0.14,0.15-0.23,0.2c-0.1,0.05-0.21,0.07-0.32,0.07c-0.22,0-0.4-0.07-0.53-0.21c-0.13-0.14-0.19-0.34-0.19-0.6v-0.04
		c0-0.24,0.06-0.43,0.19-0.58c0.13-0.15,0.3-0.22,0.53-0.22c0.19,0,0.34,0.05,0.46,0.17c0.12,0.11,0.18,0.25,0.19,0.43h-0.34
		c0-0.09-0.04-0.17-0.09-0.22c-0.06-0.06-0.13-0.09-0.22-0.09c-0.12,0-0.2,0.04-0.27,0.12c-0.06,0.08-0.09,0.21-0.1,0.38v0.06
		c0,0.17,0.03,0.3,0.09,0.38C23.43,20.88,23.52,20.93,23.63,20.93z"/>
	<path d="M24.49,20.38c0-0.16,0.03-0.3,0.09-0.42c0.06-0.12,0.15-0.22,0.26-0.29c0.11-0.07,0.24-0.1,0.38-0.1
		c0.21,0,0.39,0.07,0.52,0.21c0.13,0.14,0.21,0.32,0.22,0.55l0,0.08c0,0.16-0.03,0.3-0.09,0.42c-0.06,0.12-0.15,0.22-0.26,0.29
		c-0.11,0.07-0.24,0.1-0.39,0.1c-0.22,0-0.4-0.07-0.54-0.22c-0.13-0.15-0.2-0.35-0.2-0.59V20.38z M24.84,20.41
		c0,0.16,0.03,0.29,0.1,0.38c0.07,0.09,0.16,0.14,0.28,0.14s0.21-0.05,0.28-0.14c0.07-0.09,0.1-0.23,0.1-0.41
		c0-0.16-0.03-0.29-0.1-0.38c-0.07-0.09-0.16-0.14-0.28-0.14c-0.12,0-0.21,0.05-0.28,0.14C24.88,20.08,24.84,20.22,24.84,20.41z"/>
	<path d="M26.59,19.6l0.01,0.17c0.11-0.13,0.26-0.19,0.46-0.19c0.21,0,0.36,0.08,0.44,0.24c0.12-0.16,0.28-0.24,0.49-0.24
		c0.17,0,0.3,0.05,0.39,0.15c0.09,0.1,0.13,0.24,0.13,0.43v1.04h-0.36v-1.03c0-0.1-0.02-0.17-0.07-0.22s-0.12-0.07-0.22-0.07
		c-0.08,0-0.15,0.02-0.2,0.06c-0.05,0.04-0.09,0.1-0.11,0.17l0,1.09H27.2v-1.04c0-0.19-0.1-0.28-0.29-0.28
		c-0.14,0-0.24,0.06-0.3,0.17v1.15h-0.36V19.6H26.59z"/>
	<path d="M30.26,20.41c0,0.25-0.06,0.44-0.17,0.59c-0.11,0.15-0.26,0.22-0.45,0.22c-0.17,0-0.31-0.06-0.42-0.17v0.75h-0.36V19.6
		h0.33l0.01,0.16c0.1-0.13,0.25-0.19,0.43-0.19c0.19,0,0.35,0.07,0.45,0.22c0.11,0.14,0.17,0.34,0.17,0.6V20.41z M29.9,20.38
		c0-0.16-0.03-0.28-0.09-0.38c-0.06-0.09-0.15-0.14-0.27-0.14c-0.15,0-0.25,0.06-0.31,0.18v0.7c0.06,0.12,0.17,0.18,0.32,0.18
		c0.11,0,0.2-0.05,0.27-0.14C29.87,20.7,29.9,20.56,29.9,20.38z"/>
	<path d="M31.26,21.21c-0.23,0-0.41-0.07-0.55-0.21c-0.14-0.14-0.21-0.33-0.21-0.57v-0.04c0-0.16,0.03-0.3,0.09-0.42
		c0.06-0.12,0.15-0.22,0.26-0.29s0.23-0.1,0.37-0.1c0.22,0,0.38,0.07,0.5,0.21c0.12,0.14,0.18,0.33,0.18,0.58v0.14h-1.04
		c0.01,0.13,0.05,0.23,0.13,0.31s0.17,0.11,0.29,0.11c0.16,0,0.3-0.07,0.4-0.2l0.19,0.18c-0.06,0.09-0.15,0.17-0.25,0.22
		C31.51,21.18,31.39,21.21,31.26,21.21z M31.21,19.85c-0.1,0-0.18,0.03-0.24,0.1c-0.06,0.07-0.1,0.16-0.12,0.29h0.68v-0.03
		c-0.01-0.12-0.04-0.21-0.1-0.27C31.39,19.88,31.31,19.85,31.21,19.85z"/>
	<path d="M32.62,19.21v0.39h0.28v0.26h-0.28v0.88c0,0.06,0.01,0.1,0.04,0.13c0.02,0.03,0.07,0.04,0.13,0.04c0.04,0,0.08,0,0.12-0.01
		v0.28c-0.08,0.02-0.16,0.03-0.23,0.03c-0.27,0-0.41-0.15-0.41-0.45v-0.9H32V19.6h0.26v-0.39H32.62z"/>
	<path d="M33.86,21.21c-0.23,0-0.41-0.07-0.55-0.21c-0.14-0.14-0.21-0.33-0.21-0.57v-0.04c0-0.16,0.03-0.3,0.09-0.42
		c0.06-0.12,0.15-0.22,0.26-0.29s0.23-0.1,0.37-0.1c0.22,0,0.38,0.07,0.5,0.21c0.12,0.14,0.18,0.33,0.18,0.58v0.14h-1.04
		c0.01,0.13,0.05,0.23,0.13,0.31s0.17,0.11,0.29,0.11c0.16,0,0.3-0.07,0.4-0.2l0.19,0.18c-0.06,0.09-0.15,0.17-0.25,0.22
		C34.12,21.18,34,21.21,33.86,21.21z M33.82,19.85c-0.1,0-0.18,0.03-0.24,0.1c-0.06,0.07-0.1,0.16-0.12,0.29h0.68v-0.03
		c-0.01-0.12-0.04-0.21-0.1-0.27C34,19.88,33.92,19.85,33.82,19.85z"/>
	<path d="M35.11,19.6l0.01,0.18c0.12-0.14,0.27-0.21,0.46-0.21c0.33,0,0.5,0.19,0.5,0.57v1.05h-0.36v-1.03
		c0-0.1-0.02-0.17-0.06-0.22c-0.04-0.05-0.11-0.07-0.21-0.07c-0.14,0-0.25,0.06-0.32,0.19v1.13h-0.36V19.6H35.11z"/>
	<path d="M36.89,19.21v0.39h0.28v0.26h-0.28v0.88c0,0.06,0.01,0.1,0.04,0.13c0.02,0.03,0.07,0.04,0.13,0.04c0.04,0,0.08,0,0.12-0.01
		v0.28c-0.08,0.02-0.16,0.03-0.23,0.03c-0.27,0-0.41-0.15-0.41-0.45v-0.9h-0.26V19.6h0.26v-0.39H36.89z"/>
	<path d="M38.19,19.19c0-0.05,0.02-0.1,0.05-0.14c0.03-0.04,0.08-0.05,0.15-0.05s0.11,0.02,0.15,0.05s0.05,0.08,0.05,0.14
		c0,0.05-0.02,0.1-0.05,0.13c-0.04,0.04-0.08,0.05-0.15,0.05s-0.11-0.02-0.15-0.05C38.21,19.28,38.19,19.24,38.19,19.19z
		 M38.57,21.18h-0.36V19.6h0.36V21.18z"/>
	<path d="M39.29,19.6l0.01,0.18c0.12-0.14,0.27-0.21,0.46-0.21c0.33,0,0.5,0.19,0.5,0.57v1.05h-0.36v-1.03
		c0-0.1-0.02-0.17-0.06-0.22c-0.04-0.05-0.11-0.07-0.21-0.07c-0.14,0-0.25,0.06-0.32,0.19v1.13h-0.36V19.6H39.29z"/>
	<path d="M41.71,19.6l0.01,0.17c0.11-0.13,0.26-0.19,0.46-0.19c0.21,0,0.36,0.08,0.44,0.24c0.12-0.16,0.28-0.24,0.49-0.24
		c0.17,0,0.3,0.05,0.39,0.15c0.09,0.1,0.13,0.24,0.13,0.43v1.04h-0.36v-1.03c0-0.1-0.02-0.17-0.07-0.22s-0.12-0.07-0.22-0.07
		c-0.08,0-0.15,0.02-0.2,0.06c-0.05,0.04-0.09,0.1-0.11,0.17l0,1.09h-0.36v-1.04c0-0.19-0.1-0.28-0.29-0.28
		c-0.14,0-0.24,0.06-0.3,0.17v1.15h-0.36V19.6H41.71z"/>
	<path d="M44.54,20.67l0.32-1.08h0.38l-0.63,1.83c-0.1,0.27-0.26,0.4-0.49,0.4c-0.05,0-0.11-0.01-0.17-0.03v-0.28l0.07,0
		c0.09,0,0.16-0.02,0.2-0.05c0.05-0.03,0.08-0.09,0.11-0.16l0.05-0.14l-0.56-1.58h0.38L44.54,20.67z"/>
	<path d="M46.89,21.21c-0.23,0-0.41-0.07-0.55-0.21c-0.14-0.14-0.21-0.33-0.21-0.57v-0.04c0-0.16,0.03-0.3,0.09-0.42
		c0.06-0.12,0.15-0.22,0.26-0.29s0.23-0.1,0.37-0.1c0.22,0,0.38,0.07,0.5,0.21c0.12,0.14,0.18,0.33,0.18,0.58v0.14h-1.04
		c0.01,0.13,0.05,0.23,0.13,0.31c0.08,0.08,0.17,0.11,0.29,0.11c0.16,0,0.3-0.07,0.4-0.2l0.19,0.18c-0.06,0.09-0.15,0.17-0.25,0.22
		C47.14,21.18,47.02,21.21,46.89,21.21z M46.84,19.85c-0.1,0-0.18,0.03-0.24,0.1c-0.06,0.07-0.1,0.16-0.12,0.29h0.68v-0.03
		c-0.01-0.12-0.04-0.21-0.09-0.27C47.02,19.88,46.94,19.85,46.84,19.85z"/>
	<path d="M48.34,20.73l0.33-1.13h0.37l-0.55,1.58h-0.31l-0.55-1.58H48L48.34,20.73z"/>
	<path d="M49.94,21.21c-0.23,0-0.41-0.07-0.55-0.21c-0.14-0.14-0.21-0.33-0.21-0.57v-0.04c0-0.16,0.03-0.3,0.09-0.42
		c0.06-0.12,0.15-0.22,0.26-0.29s0.23-0.1,0.37-0.1c0.22,0,0.38,0.07,0.5,0.21c0.12,0.14,0.18,0.33,0.18,0.58v0.14h-1.04
		c0.01,0.13,0.05,0.23,0.13,0.31c0.08,0.08,0.17,0.11,0.29,0.11c0.16,0,0.3-0.07,0.4-0.2l0.19,0.18c-0.06,0.09-0.15,0.17-0.25,0.22
		C50.19,21.18,50.07,21.21,49.94,21.21z M49.9,19.85c-0.1,0-0.18,0.03-0.24,0.1c-0.06,0.07-0.1,0.16-0.12,0.29h0.68v-0.03
		c-0.01-0.12-0.04-0.21-0.09-0.27C50.08,19.88,50,19.85,49.9,19.85z"/>
	<path d="M51.68,19.92c-0.05-0.01-0.1-0.01-0.15-0.01c-0.16,0-0.27,0.06-0.33,0.19v1.08h-0.36V19.6h0.34l0.01,0.18
		c0.09-0.14,0.21-0.21,0.36-0.21c0.05,0,0.09,0.01,0.13,0.02L51.68,19.92z"/>
	<path d="M52.49,20.67l0.32-1.08h0.38l-0.63,1.83c-0.1,0.27-0.26,0.4-0.49,0.4c-0.05,0-0.11-0.01-0.17-0.03v-0.28l0.07,0
		c0.09,0,0.16-0.02,0.2-0.05c0.05-0.03,0.08-0.09,0.11-0.16l0.05-0.14l-0.56-1.58h0.38L52.49,20.67z"/>
	<path d="M53.31,20.38c0-0.24,0.06-0.44,0.17-0.59c0.11-0.15,0.26-0.22,0.46-0.22c0.17,0,0.3,0.06,0.41,0.18v-0.81h0.36v2.25h-0.32
		l-0.02-0.16c-0.11,0.13-0.25,0.19-0.43,0.19c-0.19,0-0.34-0.07-0.45-0.22C53.37,20.84,53.31,20.63,53.31,20.38z M53.67,20.41
		c0,0.16,0.03,0.29,0.09,0.38c0.06,0.09,0.15,0.14,0.26,0.14c0.15,0,0.25-0.06,0.32-0.19v-0.68c-0.07-0.13-0.17-0.19-0.32-0.19
		c-0.12,0-0.2,0.04-0.27,0.14C53.7,20.09,53.67,20.22,53.67,20.41z"/>
	<path d="M56.02,21.18c-0.02-0.03-0.03-0.08-0.04-0.15c-0.11,0.12-0.25,0.18-0.42,0.18c-0.16,0-0.29-0.04-0.39-0.14
		c-0.1-0.09-0.15-0.2-0.15-0.34c0-0.17,0.06-0.3,0.19-0.39c0.12-0.09,0.3-0.14,0.54-0.14h0.22v-0.1c0-0.08-0.02-0.15-0.07-0.2
		c-0.05-0.05-0.12-0.07-0.21-0.07c-0.08,0-0.15,0.02-0.2,0.06c-0.05,0.04-0.08,0.09-0.08,0.15h-0.36c0-0.09,0.03-0.17,0.09-0.24
		c0.06-0.08,0.14-0.13,0.24-0.18c0.1-0.04,0.21-0.06,0.33-0.06c0.19,0,0.33,0.05,0.44,0.14c0.11,0.09,0.17,0.22,0.17,0.39v0.71
		c0,0.14,0.02,0.26,0.06,0.34v0.03H56.02z M55.63,20.93c0.07,0,0.14-0.02,0.2-0.05c0.06-0.03,0.11-0.08,0.14-0.14v-0.3h-0.19
		c-0.13,0-0.23,0.02-0.3,0.07c-0.07,0.05-0.1,0.11-0.1,0.2c0,0.07,0.02,0.12,0.07,0.16C55.49,20.91,55.55,20.93,55.63,20.93z"/>
	<path d="M57.23,20.67l0.32-1.08h0.38l-0.63,1.83c-0.1,0.27-0.26,0.4-0.49,0.4c-0.05,0-0.11-0.01-0.17-0.03v-0.28l0.07,0
		c0.09,0,0.16-0.02,0.2-0.05c0.05-0.03,0.08-0.09,0.11-0.16l0.05-0.14l-0.56-1.58h0.38L57.23,20.67z"/>
	<path d="M59.83,21.18c-0.02-0.03-0.03-0.08-0.04-0.15c-0.11,0.12-0.25,0.18-0.42,0.18c-0.16,0-0.29-0.04-0.39-0.14
		c-0.1-0.09-0.15-0.2-0.15-0.34c0-0.17,0.06-0.3,0.19-0.39c0.12-0.09,0.3-0.14,0.54-0.14h0.22v-0.1c0-0.08-0.02-0.15-0.07-0.2
		c-0.05-0.05-0.12-0.07-0.21-0.07c-0.08,0-0.15,0.02-0.2,0.06c-0.05,0.04-0.08,0.09-0.08,0.15h-0.36c0-0.09,0.03-0.17,0.09-0.24
		c0.06-0.08,0.14-0.13,0.24-0.18c0.1-0.04,0.21-0.06,0.33-0.06c0.19,0,0.33,0.05,0.44,0.14c0.11,0.09,0.17,0.22,0.17,0.39v0.71
		c0,0.14,0.02,0.26,0.06,0.34v0.03H59.83z M59.43,20.93c0.07,0,0.14-0.02,0.2-0.05c0.06-0.03,0.11-0.08,0.14-0.14v-0.3h-0.19
		c-0.13,0-0.23,0.02-0.3,0.07c-0.07,0.05-0.1,0.11-0.1,0.2c0,0.07,0.02,0.12,0.07,0.16C59.3,20.91,59.36,20.93,59.43,20.93z"/>
	<path d="M61.15,20.93c0.09,0,0.16-0.03,0.22-0.08s0.09-0.12,0.09-0.19h0.34c0,0.1-0.04,0.19-0.09,0.28
		c-0.06,0.08-0.14,0.15-0.23,0.2c-0.1,0.05-0.21,0.07-0.32,0.07c-0.22,0-0.4-0.07-0.53-0.21c-0.13-0.14-0.19-0.34-0.19-0.6v-0.04
		c0-0.24,0.06-0.43,0.19-0.58c0.13-0.15,0.3-0.22,0.53-0.22c0.19,0,0.34,0.05,0.46,0.17c0.12,0.11,0.18,0.25,0.19,0.43h-0.34
		c0-0.09-0.04-0.17-0.09-0.22c-0.06-0.06-0.13-0.09-0.22-0.09c-0.12,0-0.2,0.04-0.27,0.12c-0.06,0.08-0.09,0.21-0.1,0.38v0.06
		c0,0.17,0.03,0.3,0.09,0.38C60.95,20.88,61.04,20.93,61.15,20.93z"/>
	<path d="M62.52,19.21v0.39h0.28v0.26h-0.28v0.88c0,0.06,0.01,0.1,0.04,0.13c0.02,0.03,0.07,0.04,0.13,0.04c0.04,0,0.08,0,0.12-0.01
		v0.28c-0.08,0.02-0.16,0.03-0.23,0.03c-0.27,0-0.41-0.15-0.41-0.45v-0.9H61.9V19.6h0.26v-0.39H62.52z"/>
	<path d="M63.07,19.19c0-0.05,0.02-0.1,0.05-0.14c0.03-0.04,0.08-0.05,0.15-0.05s0.11,0.02,0.15,0.05s0.05,0.08,0.05,0.14
		c0,0.05-0.02,0.1-0.05,0.13c-0.04,0.04-0.08,0.05-0.15,0.05s-0.11-0.02-0.15-0.05C63.09,19.28,63.07,19.24,63.07,19.19z
		 M63.45,21.18h-0.36V19.6h0.36V21.18z"/>
	<path d="M64.39,20.73l0.34-1.13h0.37l-0.55,1.58h-0.31l-0.55-1.58h0.37L64.39,20.73z"/>
	<path d="M65.32,19.19c0-0.05,0.02-0.1,0.05-0.14c0.03-0.04,0.08-0.05,0.15-0.05s0.11,0.02,0.15,0.05s0.05,0.08,0.05,0.14
		c0,0.05-0.02,0.1-0.05,0.13c-0.04,0.04-0.08,0.05-0.15,0.05s-0.11-0.02-0.15-0.05C65.34,19.28,65.32,19.24,65.32,19.19z
		 M65.7,21.18h-0.36V19.6h0.36V21.18z"/>
	<path d="M66.53,19.21v0.39h0.28v0.26h-0.28v0.88c0,0.06,0.01,0.1,0.04,0.13c0.02,0.03,0.07,0.04,0.13,0.04c0.04,0,0.08,0,0.12-0.01
		v0.28c-0.08,0.02-0.16,0.03-0.23,0.03c-0.27,0-0.41-0.15-0.41-0.45v-0.9h-0.26V19.6h0.26v-0.39H66.53z"/>
	<path d="M67.08,19.19c0-0.05,0.02-0.1,0.05-0.14c0.03-0.04,0.08-0.05,0.15-0.05s0.11,0.02,0.15,0.05s0.05,0.08,0.05,0.14
		c0,0.05-0.02,0.1-0.05,0.13c-0.04,0.04-0.08,0.05-0.15,0.05s-0.11-0.02-0.15-0.05C67.1,19.28,67.08,19.24,67.08,19.19z
		 M67.46,21.18h-0.36V19.6h0.36V21.18z"/>
	<path d="M68.55,21.21c-0.23,0-0.41-0.07-0.55-0.21c-0.14-0.14-0.21-0.33-0.21-0.57v-0.04c0-0.16,0.03-0.3,0.09-0.42
		c0.06-0.12,0.15-0.22,0.26-0.29s0.23-0.1,0.37-0.1c0.22,0,0.38,0.07,0.5,0.21c0.12,0.14,0.18,0.33,0.18,0.58v0.14h-1.04
		c0.01,0.13,0.05,0.23,0.13,0.31c0.08,0.08,0.17,0.11,0.29,0.11c0.16,0,0.3-0.07,0.4-0.2l0.19,0.18c-0.06,0.09-0.15,0.17-0.25,0.22
		C68.8,21.18,68.68,21.21,68.55,21.21z M68.5,19.85c-0.1,0-0.18,0.03-0.24,0.1c-0.06,0.07-0.1,0.16-0.12,0.29h0.68v-0.03
		c-0.01-0.12-0.04-0.21-0.1-0.27C68.68,19.88,68.6,19.85,68.5,19.85z"/>
	<path d="M70.35,20.75c0-0.06-0.03-0.11-0.08-0.15c-0.05-0.03-0.14-0.06-0.26-0.09c-0.12-0.02-0.22-0.06-0.3-0.1
		c-0.18-0.09-0.27-0.21-0.27-0.37c0-0.14,0.06-0.25,0.17-0.34s0.26-0.14,0.44-0.14c0.19,0,0.34,0.05,0.46,0.14
		c0.12,0.09,0.17,0.22,0.17,0.36h-0.36c0-0.07-0.03-0.12-0.08-0.17c-0.05-0.05-0.12-0.07-0.2-0.07c-0.08,0-0.14,0.02-0.19,0.05
		c-0.05,0.04-0.07,0.08-0.07,0.14c0,0.05,0.02,0.1,0.07,0.13c0.05,0.03,0.14,0.06,0.28,0.09c0.14,0.03,0.25,0.07,0.33,0.11
		c0.08,0.04,0.14,0.09,0.18,0.15c0.04,0.06,0.06,0.13,0.06,0.22c0,0.14-0.06,0.26-0.18,0.35c-0.12,0.09-0.27,0.13-0.46,0.13
		c-0.13,0-0.25-0.02-0.35-0.07s-0.18-0.11-0.24-0.19s-0.08-0.17-0.08-0.27h0.35c0,0.08,0.04,0.15,0.1,0.19
		c0.06,0.05,0.14,0.07,0.23,0.07c0.09,0,0.17-0.02,0.21-0.05C70.32,20.86,70.35,20.81,70.35,20.75z"/>
</g>
<rect x="44.87" y="25.77" class="st1" width="3.26" height="1.47"/>
</svg>
