<?xml version="1.0" encoding="utf-8"?>
<!-- Generator: Adobe Illustrator 24.3.0, SVG Export Plug-In . SVG Version: 6.00 Build 0)  -->
<svg version="1.1" id="Слой_1" xmlns="http://www.w3.org/2000/svg" xmlns:xlink="http://www.w3.org/1999/xlink" x="0px" y="0px"
	 viewBox="0 0 85.04 28.35" style="enable-background:new 0 0 85.04 28.35;" xml:space="preserve">
<style type="text/css">
	.st0{enable-background:new    ;}
	.st1{fill:none;}
</style>
<g class="st0">
	<path d="M19.54,7.09l1.64,4.36l1.64-4.36h1.28v5.69h-0.98V10.9l0.1-2.51l-1.68,4.38h-0.71L19.14,8.4l0.1,2.5v1.88h-0.98V7.09H19.54
		z"/>
	<path d="M29.8,10.08c0,0.56-0.1,1.05-0.29,1.47s-0.47,0.74-0.83,0.97s-0.77,0.34-1.24,0.34c-0.46,0-0.87-0.11-1.23-0.34
		s-0.64-0.55-0.84-0.96s-0.3-0.9-0.3-1.44V9.79c0-0.55,0.1-1.04,0.29-1.47s0.47-0.75,0.83-0.97s0.77-0.34,1.23-0.34
		s0.87,0.11,1.23,0.33s0.63,0.54,0.83,0.96s0.29,0.9,0.3,1.46V10.08z M28.81,9.79c0-0.63-0.12-1.11-0.36-1.45s-0.58-0.5-1.01-0.5
		c-0.43,0-0.76,0.17-1,0.5s-0.36,0.81-0.37,1.42v0.33c0,0.62,0.12,1.11,0.37,1.45s0.58,0.51,1.01,0.51c0.44,0,0.77-0.17,1.01-0.5
		s0.35-0.82,0.35-1.46V9.79z"/>
	<path d="M30.78,12.78V7.09h1.68c0.5,0,0.95,0.11,1.34,0.34s0.69,0.54,0.9,0.95s0.32,0.88,0.32,1.41v0.29
		c0,0.54-0.11,1.01-0.32,1.42s-0.52,0.72-0.92,0.95s-0.85,0.33-1.37,0.33H30.78z M31.77,7.89v4.1h0.64c0.52,0,0.92-0.16,1.19-0.49
		s0.42-0.79,0.42-1.4V9.79c0-0.62-0.13-1.09-0.4-1.41s-0.66-0.49-1.17-0.49H31.77z"/>
	<path d="M39.33,10.24H37v1.75h2.73v0.79h-3.72V7.09h3.69v0.8H37v1.57h2.34V10.24z"/>
	<path d="M42.62,10.59h-1.1v2.19h-0.99V7.09h2c0.66,0,1.16,0.15,1.52,0.44c0.36,0.29,0.54,0.72,0.54,1.28c0,0.38-0.09,0.7-0.28,0.96
		s-0.44,0.45-0.77,0.59l1.28,2.37v0.05h-1.06L42.62,10.59z M41.52,9.79h1.02c0.33,0,0.59-0.08,0.78-0.25s0.28-0.4,0.28-0.69
		c0-0.3-0.09-0.54-0.26-0.71s-0.43-0.25-0.78-0.26h-1.04V9.79z"/>
	<path d="M48.71,11.45h-2.2l-0.46,1.32h-1.03l2.15-5.69h0.89l2.15,5.69h-1.03L48.71,11.45z M46.78,10.66h1.65L47.61,8.3L46.78,10.66
		z"/>
	<path d="M54.49,7.89h-1.77v4.89h-0.98V7.89h-1.76v-0.8h4.51V7.89z"/>
	<path d="M56.28,12.78H55.3V7.09h0.98V12.78z"/>
	<path d="M62.03,10.08c0,0.56-0.1,1.05-0.29,1.47c-0.19,0.42-0.47,0.74-0.83,0.97c-0.36,0.23-0.77,0.34-1.24,0.34
		c-0.46,0-0.87-0.11-1.23-0.34c-0.36-0.23-0.64-0.55-0.84-0.96c-0.2-0.42-0.3-0.9-0.3-1.44V9.79c0-0.55,0.1-1.04,0.29-1.47
		c0.2-0.42,0.47-0.75,0.83-0.97c0.36-0.23,0.77-0.34,1.23-0.34c0.46,0,0.87,0.11,1.23,0.33c0.36,0.22,0.63,0.54,0.83,0.96
		s0.29,0.9,0.3,1.46V10.08z M61.05,9.79c0-0.63-0.12-1.11-0.36-1.45s-0.58-0.5-1.01-0.5c-0.43,0-0.76,0.17-1,0.5
		c-0.24,0.33-0.36,0.81-0.37,1.42v0.33c0,0.62,0.12,1.11,0.37,1.45c0.24,0.34,0.58,0.51,1.01,0.51c0.44,0,0.77-0.17,1.01-0.5
		c0.24-0.33,0.35-0.82,0.35-1.46V9.79z"/>
	<path d="M67.53,12.78h-0.99l-2.54-4.04v4.04h-0.99V7.09h0.99l2.54,4.05V7.09h0.98V12.78z"/>
</g>
<g class="st0">
	<path d="M14.67,19.21v0.39h0.28v0.26h-0.28v0.88c0,0.06,0.01,0.1,0.04,0.13c0.02,0.03,0.07,0.04,0.13,0.04c0.04,0,0.08,0,0.12-0.01
		v0.28c-0.08,0.02-0.16,0.03-0.23,0.03c-0.27,0-0.41-0.15-0.41-0.45v-0.9h-0.26V19.6h0.26v-0.39H14.67z"/>
	<path d="M15.11,20.38c0-0.16,0.03-0.3,0.09-0.42c0.06-0.12,0.15-0.22,0.26-0.29c0.11-0.07,0.24-0.1,0.38-0.1
		c0.21,0,0.39,0.07,0.52,0.21c0.13,0.14,0.21,0.32,0.22,0.55l0,0.08c0,0.16-0.03,0.3-0.09,0.42c-0.06,0.12-0.15,0.22-0.26,0.29
		c-0.11,0.07-0.24,0.1-0.39,0.1c-0.22,0-0.4-0.07-0.54-0.22c-0.13-0.15-0.2-0.35-0.2-0.59V20.38z M15.46,20.41
		c0,0.16,0.03,0.29,0.1,0.38c0.07,0.09,0.16,0.14,0.28,0.14s0.21-0.05,0.28-0.14c0.07-0.09,0.1-0.23,0.1-0.41
		c0-0.16-0.03-0.29-0.1-0.38c-0.07-0.09-0.16-0.14-0.28-0.14c-0.12,0-0.21,0.05-0.28,0.14C15.5,20.08,15.46,20.22,15.46,20.41z"/>
	<path d="M18.58,21.18c-0.02-0.03-0.03-0.08-0.04-0.15c-0.11,0.12-0.25,0.18-0.42,0.18c-0.16,0-0.29-0.04-0.39-0.14
		c-0.1-0.09-0.15-0.2-0.15-0.34c0-0.17,0.06-0.3,0.19-0.39c0.12-0.09,0.3-0.14,0.54-0.14h0.22v-0.1c0-0.08-0.02-0.15-0.07-0.2
		c-0.05-0.05-0.12-0.07-0.21-0.07c-0.08,0-0.15,0.02-0.2,0.06c-0.05,0.04-0.08,0.09-0.08,0.15h-0.36c0-0.09,0.03-0.17,0.09-0.24
		c0.06-0.08,0.14-0.13,0.24-0.18c0.1-0.04,0.21-0.06,0.33-0.06c0.19,0,0.33,0.05,0.44,0.14c0.11,0.09,0.17,0.22,0.17,0.39v0.71
		c0,0.14,0.02,0.26,0.06,0.34v0.03H18.58z M18.18,20.93c0.07,0,0.14-0.02,0.2-0.05s0.11-0.08,0.14-0.14v-0.3h-0.19
		c-0.13,0-0.23,0.02-0.3,0.07c-0.07,0.05-0.1,0.11-0.1,0.2c0,0.07,0.02,0.12,0.07,0.16C18.05,20.91,18.11,20.93,18.18,20.93z"/>
	<path d="M19.79,20.73l0.34-1.13h0.37l-0.55,1.58h-0.31l-0.55-1.58h0.37L19.79,20.73z"/>
	<path d="M20.62,20.38c0-0.16,0.03-0.3,0.09-0.42c0.06-0.12,0.15-0.22,0.26-0.29c0.11-0.07,0.24-0.1,0.38-0.1
		c0.21,0,0.39,0.07,0.52,0.21c0.13,0.14,0.21,0.32,0.22,0.55l0,0.08c0,0.16-0.03,0.3-0.09,0.42c-0.06,0.12-0.15,0.22-0.26,0.29
		c-0.11,0.07-0.24,0.1-0.39,0.1c-0.22,0-0.4-0.07-0.54-0.22c-0.13-0.15-0.2-0.35-0.2-0.59V20.38z M20.98,20.41
		c0,0.16,0.03,0.29,0.1,0.38c0.07,0.09,0.16,0.14,0.28,0.14s0.21-0.05,0.28-0.14c0.07-0.09,0.1-0.23,0.1-0.41
		c0-0.16-0.03-0.29-0.1-0.38c-0.07-0.09-0.16-0.14-0.28-0.14c-0.12,0-0.21,0.05-0.28,0.14C21.01,20.08,20.98,20.22,20.98,20.41z"/>
	<path d="M22.4,19.19c0-0.05,0.02-0.1,0.05-0.14c0.03-0.04,0.08-0.05,0.15-0.05s0.11,0.02,0.15,0.05s0.05,0.08,0.05,0.14
		c0,0.05-0.02,0.1-0.05,0.13c-0.04,0.04-0.08,0.05-0.15,0.05s-0.11-0.02-0.15-0.05C22.42,19.28,22.4,19.24,22.4,19.19z M22.78,21.18
		h-0.36V19.6h0.36V21.18z"/>
	<path d="M23.1,20.38c0-0.24,0.06-0.44,0.17-0.59c0.11-0.15,0.27-0.22,0.46-0.22c0.17,0,0.3,0.06,0.41,0.18v-0.81h0.36v2.25h-0.32
		l-0.02-0.16c-0.11,0.13-0.25,0.19-0.43,0.19c-0.19,0-0.34-0.07-0.45-0.22C23.16,20.84,23.1,20.63,23.1,20.38z M23.45,20.41
		c0,0.16,0.03,0.29,0.09,0.38c0.06,0.09,0.15,0.14,0.26,0.14c0.15,0,0.25-0.06,0.32-0.19v-0.68c-0.07-0.13-0.17-0.19-0.32-0.19
		c-0.12,0-0.2,0.04-0.27,0.14C23.49,20.09,23.45,20.22,23.45,20.41z"/>
	<path d="M26.3,21.21c-0.23,0-0.41-0.07-0.55-0.21c-0.14-0.14-0.21-0.33-0.21-0.57v-0.04c0-0.16,0.03-0.3,0.09-0.42
		c0.06-0.12,0.15-0.22,0.26-0.29s0.23-0.1,0.37-0.1c0.22,0,0.38,0.07,0.5,0.21c0.12,0.14,0.18,0.33,0.18,0.58v0.14H25.9
		c0.01,0.13,0.05,0.23,0.13,0.31s0.17,0.11,0.29,0.11c0.16,0,0.3-0.07,0.4-0.2l0.19,0.18c-0.06,0.09-0.15,0.17-0.25,0.22
		C26.55,21.18,26.44,21.21,26.3,21.21z M26.26,19.85c-0.1,0-0.18,0.03-0.24,0.1c-0.06,0.07-0.1,0.16-0.12,0.29h0.68v-0.03
		c-0.01-0.12-0.04-0.21-0.1-0.27C26.44,19.88,26.36,19.85,26.26,19.85z"/>
	<path d="M27.78,20.12l0.3-0.52h0.4L28,20.38l0.5,0.8h-0.39l-0.32-0.54l-0.31,0.54h-0.4l0.5-0.8L27.1,19.6h0.39L27.78,20.12z"/>
	<path d="M29.35,20.93c0.09,0,0.16-0.03,0.22-0.08s0.09-0.12,0.09-0.19H30c0,0.1-0.03,0.19-0.09,0.28c-0.06,0.08-0.14,0.15-0.23,0.2
		c-0.1,0.05-0.21,0.07-0.32,0.07c-0.22,0-0.4-0.07-0.53-0.21c-0.13-0.14-0.19-0.34-0.19-0.6v-0.04c0-0.24,0.06-0.43,0.19-0.58
		c0.13-0.15,0.3-0.22,0.53-0.22c0.19,0,0.34,0.05,0.46,0.17c0.12,0.11,0.18,0.25,0.19,0.43h-0.34c0-0.09-0.04-0.17-0.09-0.22
		c-0.06-0.06-0.13-0.09-0.22-0.09c-0.12,0-0.2,0.04-0.27,0.12c-0.06,0.08-0.09,0.21-0.1,0.38v0.06c0,0.17,0.03,0.3,0.09,0.38
		C29.14,20.88,29.23,20.93,29.35,20.93z"/>
	<path d="M30.96,21.21c-0.23,0-0.41-0.07-0.55-0.21c-0.14-0.14-0.21-0.33-0.21-0.57v-0.04c0-0.16,0.03-0.3,0.09-0.42
		c0.06-0.12,0.15-0.22,0.26-0.29s0.23-0.1,0.37-0.1c0.22,0,0.38,0.07,0.5,0.21c0.12,0.14,0.18,0.33,0.18,0.58v0.14h-1.04
		c0.01,0.13,0.05,0.23,0.13,0.31s0.17,0.11,0.29,0.11c0.16,0,0.3-0.07,0.4-0.2l0.19,0.18c-0.06,0.09-0.15,0.17-0.25,0.22
		C31.21,21.18,31.1,21.21,30.96,21.21z M30.92,19.85c-0.1,0-0.18,0.03-0.24,0.1c-0.06,0.07-0.1,0.16-0.12,0.29h0.68v-0.03
		c-0.01-0.12-0.04-0.21-0.1-0.27C31.1,19.88,31.02,19.85,30.92,19.85z"/>
	<path d="M32.76,20.75c0-0.06-0.03-0.11-0.08-0.15c-0.05-0.03-0.14-0.06-0.26-0.09c-0.12-0.02-0.22-0.06-0.3-0.1
		c-0.18-0.09-0.27-0.21-0.27-0.37c0-0.14,0.06-0.25,0.17-0.34s0.26-0.14,0.44-0.14c0.19,0,0.34,0.05,0.46,0.14
		c0.12,0.09,0.17,0.22,0.17,0.36h-0.36c0-0.07-0.03-0.12-0.08-0.17c-0.05-0.05-0.12-0.07-0.2-0.07c-0.08,0-0.14,0.02-0.19,0.05
		c-0.05,0.04-0.07,0.08-0.07,0.14c0,0.05,0.02,0.1,0.07,0.13c0.05,0.03,0.14,0.06,0.28,0.09c0.14,0.03,0.25,0.07,0.33,0.11
		c0.08,0.04,0.14,0.09,0.18,0.15c0.04,0.06,0.06,0.13,0.06,0.22c0,0.14-0.06,0.26-0.18,0.35c-0.12,0.09-0.27,0.13-0.46,0.13
		c-0.13,0-0.25-0.02-0.35-0.07s-0.18-0.11-0.24-0.19s-0.08-0.17-0.08-0.27h0.35c0,0.08,0.04,0.15,0.1,0.19
		c0.06,0.05,0.14,0.07,0.23,0.07c0.09,0,0.17-0.02,0.21-0.05C32.74,20.86,32.76,20.81,32.76,20.75z"/>
	<path d="M34.31,20.75c0-0.06-0.03-0.11-0.08-0.15c-0.05-0.03-0.14-0.06-0.26-0.09c-0.12-0.02-0.22-0.06-0.3-0.1
		c-0.18-0.09-0.27-0.21-0.27-0.37c0-0.14,0.06-0.25,0.17-0.34s0.26-0.14,0.44-0.14c0.19,0,0.34,0.05,0.46,0.14
		c0.12,0.09,0.17,0.22,0.17,0.36h-0.36c0-0.07-0.03-0.12-0.08-0.17c-0.05-0.05-0.12-0.07-0.2-0.07c-0.08,0-0.14,0.02-0.19,0.05
		c-0.05,0.04-0.07,0.08-0.07,0.14c0,0.05,0.02,0.1,0.07,0.13c0.05,0.03,0.14,0.06,0.28,0.09c0.14,0.03,0.25,0.07,0.33,0.11
		c0.08,0.04,0.14,0.09,0.18,0.15c0.04,0.06,0.06,0.13,0.06,0.22c0,0.14-0.06,0.26-0.18,0.35c-0.12,0.09-0.27,0.13-0.46,0.13
		c-0.13,0-0.25-0.02-0.35-0.07s-0.18-0.11-0.24-0.19s-0.08-0.17-0.08-0.27h0.35c0,0.08,0.04,0.15,0.1,0.19
		c0.06,0.05,0.14,0.07,0.23,0.07c0.09,0,0.17-0.02,0.21-0.05C34.29,20.86,34.31,20.81,34.31,20.75z"/>
	<path d="M35.67,21.21c-0.23,0-0.41-0.07-0.55-0.21c-0.14-0.14-0.21-0.33-0.21-0.57v-0.04c0-0.16,0.03-0.3,0.09-0.42
		c0.06-0.12,0.15-0.22,0.26-0.29s0.23-0.1,0.37-0.1c0.22,0,0.38,0.07,0.5,0.21c0.12,0.14,0.18,0.33,0.18,0.58v0.14h-1.04
		c0.01,0.13,0.05,0.23,0.13,0.31s0.17,0.11,0.29,0.11c0.16,0,0.3-0.07,0.4-0.2l0.19,0.18c-0.06,0.09-0.15,0.17-0.25,0.22
		C35.92,21.18,35.8,21.21,35.67,21.21z M35.63,19.85c-0.1,0-0.18,0.03-0.24,0.1c-0.06,0.07-0.1,0.16-0.12,0.29h0.68v-0.03
		c-0.01-0.12-0.04-0.21-0.1-0.27C35.8,19.88,35.73,19.85,35.63,19.85z"/>
	<path d="M37.47,20.75c0-0.06-0.03-0.11-0.08-0.15c-0.05-0.03-0.14-0.06-0.26-0.09c-0.12-0.02-0.22-0.06-0.3-0.1
		c-0.18-0.09-0.27-0.21-0.27-0.37c0-0.14,0.06-0.25,0.17-0.34s0.26-0.14,0.44-0.14c0.19,0,0.34,0.05,0.46,0.14
		c0.12,0.09,0.17,0.22,0.17,0.36h-0.36c0-0.07-0.03-0.12-0.08-0.17c-0.05-0.05-0.12-0.07-0.2-0.07c-0.08,0-0.14,0.02-0.19,0.05
		c-0.05,0.04-0.07,0.08-0.07,0.14c0,0.05,0.02,0.1,0.07,0.13c0.05,0.03,0.14,0.06,0.28,0.09c0.14,0.03,0.25,0.07,0.33,0.11
		c0.08,0.04,0.14,0.09,0.18,0.15c0.04,0.06,0.06,0.13,0.06,0.22c0,0.14-0.06,0.26-0.18,0.35c-0.12,0.09-0.27,0.13-0.46,0.13
		c-0.13,0-0.25-0.02-0.35-0.07s-0.18-0.11-0.24-0.19s-0.08-0.17-0.08-0.27h0.35c0,0.08,0.04,0.15,0.1,0.19
		c0.06,0.05,0.14,0.07,0.23,0.07c0.09,0,0.17-0.02,0.21-0.05C37.45,20.86,37.47,20.81,37.47,20.75z"/>
	<path d="M39.82,21.18c-0.02-0.03-0.03-0.08-0.04-0.15c-0.11,0.12-0.25,0.18-0.42,0.18c-0.16,0-0.29-0.04-0.39-0.14
		c-0.1-0.09-0.15-0.2-0.15-0.34c0-0.17,0.06-0.3,0.19-0.39c0.12-0.09,0.3-0.14,0.54-0.14h0.22v-0.1c0-0.08-0.02-0.15-0.07-0.2
		c-0.05-0.05-0.12-0.07-0.21-0.07c-0.08,0-0.15,0.02-0.2,0.06c-0.05,0.04-0.08,0.09-0.08,0.15h-0.36c0-0.09,0.03-0.17,0.09-0.24
		c0.06-0.08,0.14-0.13,0.24-0.18c0.1-0.04,0.21-0.06,0.33-0.06c0.19,0,0.33,0.05,0.44,0.14c0.11,0.09,0.17,0.22,0.17,0.39v0.71
		c0,0.14,0.02,0.26,0.06,0.34v0.03H39.82z M39.43,20.93c0.07,0,0.14-0.02,0.2-0.05s0.11-0.08,0.14-0.14v-0.3h-0.19
		c-0.13,0-0.23,0.02-0.3,0.07c-0.07,0.05-0.1,0.11-0.1,0.2c0,0.07,0.02,0.12,0.07,0.16C39.3,20.91,39.36,20.93,39.43,20.93z"/>
	<path d="M40.83,19.6l0.01,0.18c0.12-0.14,0.27-0.21,0.46-0.21c0.33,0,0.5,0.19,0.5,0.57v1.05h-0.36v-1.03
		c0-0.1-0.02-0.17-0.06-0.22c-0.04-0.05-0.11-0.07-0.21-0.07c-0.14,0-0.25,0.06-0.32,0.19v1.13H40.5V19.6H40.83z"/>
	<path d="M42.1,20.38c0-0.24,0.06-0.44,0.17-0.59c0.11-0.15,0.27-0.22,0.46-0.22c0.17,0,0.3,0.06,0.41,0.18v-0.81h0.36v2.25h-0.32
		l-0.02-0.16c-0.11,0.13-0.25,0.19-0.43,0.19c-0.19,0-0.34-0.07-0.45-0.22C42.16,20.84,42.1,20.63,42.1,20.38z M42.46,20.41
		c0,0.16,0.03,0.29,0.09,0.38c0.06,0.09,0.15,0.14,0.26,0.14c0.15,0,0.25-0.06,0.32-0.19v-0.68c-0.07-0.13-0.17-0.19-0.32-0.19
		c-0.12,0-0.2,0.04-0.27,0.14C42.49,20.09,42.46,20.22,42.46,20.41z"/>
	<path d="M44.73,21.18v-1.32h-0.24V19.6h0.24v-0.15c0-0.18,0.05-0.31,0.15-0.41s0.23-0.14,0.41-0.14c0.06,0,0.13,0.01,0.2,0.03
		l-0.01,0.28c-0.04-0.01-0.08-0.01-0.14-0.01c-0.17,0-0.25,0.09-0.25,0.26v0.14h0.32v0.26h-0.32v1.32H44.73z"/>
	<path d="M45.67,19.19c0-0.05,0.02-0.1,0.05-0.14c0.03-0.04,0.08-0.05,0.15-0.05s0.11,0.02,0.15,0.05s0.05,0.08,0.05,0.14
		c0,0.05-0.02,0.1-0.05,0.13c-0.04,0.04-0.08,0.05-0.15,0.05s-0.11-0.02-0.15-0.05C45.69,19.28,45.67,19.24,45.67,19.19z
		 M46.05,21.18H45.7V19.6h0.36V21.18z"/>
	<path d="M46.77,19.6l0.01,0.18c0.12-0.14,0.27-0.21,0.46-0.21c0.33,0,0.5,0.19,0.5,0.57v1.05h-0.36v-1.03
		c0-0.1-0.02-0.17-0.07-0.22c-0.04-0.05-0.11-0.07-0.21-0.07c-0.14,0-0.25,0.06-0.32,0.19v1.13h-0.36V19.6H46.77z"/>
	<path d="M48.04,20.38c0-0.24,0.06-0.44,0.17-0.59c0.11-0.15,0.27-0.22,0.46-0.22c0.17,0,0.3,0.06,0.41,0.18v-0.81h0.36v2.25h-0.32
		l-0.02-0.16c-0.11,0.13-0.25,0.19-0.43,0.19c-0.19,0-0.34-0.07-0.45-0.22C48.1,20.84,48.04,20.63,48.04,20.38z M48.4,20.41
		c0,0.16,0.03,0.29,0.09,0.38c0.06,0.09,0.15,0.14,0.26,0.14c0.15,0,0.25-0.06,0.32-0.19v-0.68c-0.07-0.13-0.17-0.19-0.32-0.19
		c-0.12,0-0.2,0.04-0.27,0.14C48.43,20.09,48.4,20.22,48.4,20.41z"/>
	<path d="M51.49,21.18c-0.02-0.03-0.03-0.08-0.04-0.15c-0.11,0.12-0.25,0.18-0.42,0.18c-0.16,0-0.29-0.04-0.39-0.14
		c-0.1-0.09-0.15-0.2-0.15-0.34c0-0.17,0.06-0.3,0.19-0.39c0.12-0.09,0.3-0.14,0.54-0.14h0.22v-0.1c0-0.08-0.02-0.15-0.07-0.2
		c-0.05-0.05-0.12-0.07-0.21-0.07c-0.08,0-0.15,0.02-0.2,0.06c-0.05,0.04-0.08,0.09-0.08,0.15h-0.36c0-0.09,0.03-0.17,0.09-0.24
		c0.06-0.08,0.14-0.13,0.24-0.18c0.1-0.04,0.21-0.06,0.33-0.06c0.19,0,0.33,0.05,0.44,0.14c0.11,0.09,0.17,0.22,0.17,0.39v0.71
		c0,0.14,0.02,0.26,0.06,0.34v0.03H51.49z M51.1,20.93c0.07,0,0.14-0.02,0.2-0.05c0.06-0.03,0.11-0.08,0.14-0.14v-0.3h-0.19
		c-0.13,0-0.23,0.02-0.3,0.07c-0.07,0.05-0.1,0.11-0.1,0.2c0,0.07,0.02,0.12,0.07,0.16C50.97,20.91,51.03,20.93,51.1,20.93z"/>
	<path d="M53.25,19.6l0.01,0.17c0.11-0.13,0.26-0.19,0.46-0.19c0.21,0,0.36,0.08,0.43,0.24c0.12-0.16,0.28-0.24,0.49-0.24
		c0.17,0,0.3,0.05,0.39,0.15c0.08,0.1,0.13,0.24,0.13,0.43v1.04h-0.36v-1.03c0-0.1-0.02-0.17-0.07-0.22s-0.12-0.07-0.22-0.07
		c-0.08,0-0.15,0.02-0.2,0.06c-0.05,0.04-0.09,0.1-0.11,0.17l0,1.09h-0.36v-1.04c0-0.19-0.1-0.28-0.29-0.28
		c-0.14,0-0.24,0.06-0.3,0.17v1.15h-0.36V19.6H53.25z"/>
	<path d="M55.53,19.19c0-0.05,0.02-0.1,0.05-0.14c0.03-0.04,0.08-0.05,0.15-0.05s0.11,0.02,0.15,0.05s0.05,0.08,0.05,0.14
		c0,0.05-0.02,0.1-0.05,0.13c-0.04,0.04-0.08,0.05-0.15,0.05s-0.11-0.02-0.15-0.05C55.55,19.28,55.53,19.24,55.53,19.19z
		 M55.91,21.18h-0.36V19.6h0.36V21.18z"/>
	<path d="M56.23,20.38c0-0.24,0.06-0.44,0.17-0.59c0.11-0.15,0.26-0.22,0.46-0.22c0.17,0,0.3,0.06,0.41,0.18v-0.81h0.36v2.25h-0.32
		l-0.02-0.16c-0.11,0.13-0.25,0.19-0.43,0.19c-0.19,0-0.34-0.07-0.45-0.22C56.28,20.84,56.23,20.63,56.23,20.38z M56.58,20.41
		c0,0.16,0.03,0.29,0.09,0.38c0.06,0.09,0.15,0.14,0.26,0.14c0.15,0,0.25-0.06,0.32-0.19v-0.68c-0.07-0.13-0.17-0.19-0.32-0.19
		c-0.12,0-0.2,0.04-0.27,0.14C56.61,20.09,56.58,20.22,56.58,20.41z"/>
	<path d="M57.92,20.38c0-0.24,0.06-0.44,0.17-0.59c0.11-0.15,0.26-0.22,0.46-0.22c0.17,0,0.3,0.06,0.41,0.18v-0.81h0.36v2.25h-0.32
		l-0.02-0.16c-0.11,0.13-0.25,0.19-0.43,0.19c-0.19,0-0.34-0.07-0.45-0.22C57.98,20.84,57.92,20.63,57.92,20.38z M58.28,20.41
		c0,0.16,0.03,0.29,0.09,0.38c0.06,0.09,0.15,0.14,0.26,0.14c0.15,0,0.25-0.06,0.32-0.19v-0.68c-0.07-0.13-0.17-0.19-0.32-0.19
		c-0.12,0-0.2,0.04-0.27,0.14C58.31,20.09,58.28,20.22,58.28,20.41z"/>
	<path d="M60.06,21.18H59.7v-2.25h0.36V21.18z"/>
	<path d="M61.14,21.21c-0.23,0-0.41-0.07-0.55-0.21c-0.14-0.14-0.21-0.33-0.21-0.57v-0.04c0-0.16,0.03-0.3,0.09-0.42
		c0.06-0.12,0.15-0.22,0.26-0.29s0.23-0.1,0.37-0.1c0.22,0,0.38,0.07,0.5,0.21c0.12,0.14,0.18,0.33,0.18,0.58v0.14h-1.04
		c0.01,0.13,0.05,0.23,0.13,0.31c0.08,0.08,0.17,0.11,0.29,0.11c0.16,0,0.3-0.07,0.4-0.2l0.19,0.18c-0.06,0.09-0.15,0.17-0.25,0.22
		C61.4,21.18,61.28,21.21,61.14,21.21z M61.1,19.85c-0.1,0-0.18,0.03-0.24,0.1c-0.06,0.07-0.1,0.16-0.12,0.29h0.68v-0.03
		c-0.01-0.12-0.04-0.21-0.09-0.27C61.28,19.88,61.2,19.85,61.1,19.85z"/>
	<path d="M62.74,20.38c0-0.25,0.06-0.44,0.17-0.59c0.12-0.15,0.27-0.22,0.46-0.22c0.18,0,0.32,0.06,0.43,0.19l0.02-0.16h0.32v1.54
		c0,0.21-0.06,0.37-0.19,0.49c-0.13,0.12-0.3,0.18-0.52,0.18c-0.12,0-0.23-0.02-0.34-0.07c-0.11-0.05-0.19-0.11-0.25-0.19L63,21.33
		c0.11,0.13,0.24,0.19,0.4,0.19c0.12,0,0.21-0.03,0.28-0.1c0.07-0.06,0.1-0.16,0.1-0.28v-0.11c-0.1,0.12-0.24,0.17-0.41,0.17
		c-0.19,0-0.34-0.07-0.46-0.22C62.8,20.84,62.74,20.64,62.74,20.38z M63.1,20.41c0,0.16,0.03,0.28,0.1,0.38
		c0.06,0.09,0.16,0.14,0.27,0.14c0.14,0,0.25-0.06,0.32-0.18v-0.7c-0.07-0.12-0.17-0.18-0.32-0.18c-0.12,0-0.21,0.05-0.27,0.14
		C63.13,20.09,63.1,20.23,63.1,20.41z"/>
	<path d="M65.33,19.92c-0.05-0.01-0.09-0.01-0.14-0.01c-0.16,0-0.27,0.06-0.33,0.19v1.08H64.5V19.6h0.34l0.01,0.18
		c0.09-0.14,0.21-0.21,0.36-0.21c0.05,0,0.09,0.01,0.13,0.02L65.33,19.92z"/>
	<path d="M65.44,20.38c0-0.16,0.03-0.3,0.09-0.42c0.06-0.12,0.15-0.22,0.26-0.29c0.11-0.07,0.24-0.1,0.38-0.1
		c0.21,0,0.39,0.07,0.52,0.21c0.13,0.14,0.21,0.32,0.22,0.55l0,0.08c0,0.16-0.03,0.3-0.09,0.42c-0.06,0.12-0.15,0.22-0.26,0.29
		c-0.11,0.07-0.24,0.1-0.39,0.1c-0.22,0-0.4-0.07-0.54-0.22c-0.13-0.15-0.2-0.35-0.2-0.59V20.38z M65.8,20.41
		c0,0.16,0.03,0.29,0.1,0.38c0.07,0.09,0.16,0.14,0.28,0.14s0.21-0.05,0.28-0.14c0.07-0.09,0.1-0.23,0.1-0.41
		c0-0.16-0.03-0.29-0.1-0.38c-0.07-0.09-0.16-0.14-0.28-0.14c-0.12,0-0.21,0.05-0.28,0.14C65.83,20.08,65.8,20.22,65.8,20.41z"/>
	<path d="M68.17,21.03c-0.1,0.12-0.25,0.18-0.45,0.18c-0.17,0-0.3-0.05-0.39-0.15c-0.09-0.1-0.13-0.25-0.13-0.44V19.6h0.36v1.02
		c0,0.2,0.08,0.3,0.25,0.3c0.17,0,0.29-0.06,0.35-0.19V19.6h0.36v1.58h-0.33L68.17,21.03z"/>
	<path d="M69.21,19.6l0.01,0.18c0.12-0.14,0.27-0.21,0.46-0.21c0.33,0,0.5,0.19,0.5,0.57v1.05h-0.36v-1.03
		c0-0.1-0.02-0.17-0.06-0.22c-0.04-0.05-0.12-0.07-0.21-0.07c-0.14,0-0.25,0.06-0.32,0.19v1.13h-0.36V19.6H69.21z"/>
	<path d="M70.48,20.38c0-0.24,0.06-0.44,0.17-0.59c0.11-0.15,0.26-0.22,0.46-0.22c0.17,0,0.3,0.06,0.41,0.18v-0.81h0.36v2.25h-0.32
		l-0.02-0.16c-0.11,0.13-0.25,0.19-0.43,0.19c-0.19,0-0.34-0.07-0.45-0.22C70.54,20.84,70.48,20.63,70.48,20.38z M70.84,20.41
		c0,0.16,0.03,0.29,0.09,0.38c0.06,0.09,0.15,0.14,0.26,0.14c0.15,0,0.25-0.06,0.32-0.19v-0.68c-0.07-0.13-0.17-0.19-0.32-0.19
		c-0.12,0-0.2,0.04-0.27,0.14C70.87,20.09,70.84,20.22,70.84,20.41z"/>
</g>
<rect x="44.87" y="25.77" class="st1" width="3.26" height="1.47"/>
</svg>
