<?xml version="1.0" encoding="utf-8"?>
<!-- Generator: Adobe Illustrator 24.3.0, SVG Export Plug-In . SVG Version: 6.00 Build 0)  -->
<svg version="1.1" id="Слой_1" xmlns="http://www.w3.org/2000/svg" xmlns:xlink="http://www.w3.org/1999/xlink" x="0px" y="0px"
	 viewBox="0 0 85.04 28.35" style="enable-background:new 0 0 85.04 28.35;" xml:space="preserve">
<style type="text/css">
	.st0{enable-background:new    ;}
	.st1{fill:none;}
</style>
<g class="st0">
	<path d="M27.9,10.08c0,0.56-0.1,1.05-0.29,1.47s-0.47,0.74-0.83,0.97s-0.77,0.34-1.24,0.34c-0.46,0-0.87-0.11-1.23-0.34
		s-0.64-0.55-0.84-0.96s-0.3-0.9-0.3-1.44V9.79c0-0.55,0.1-1.04,0.29-1.47s0.47-0.75,0.83-0.97s0.77-0.34,1.23-0.34
		s0.87,0.11,1.23,0.33s0.63,0.54,0.83,0.96s0.29,0.9,0.3,1.46V10.08z M26.91,9.79c0-0.63-0.12-1.11-0.36-1.45s-0.58-0.5-1.01-0.5
		c-0.43,0-0.76,0.17-1,0.5s-0.36,0.81-0.37,1.42v0.33c0,0.62,0.12,1.11,0.37,1.45s0.58,0.51,1.01,0.51c0.44,0,0.77-0.17,1.01-0.5
		s0.35-0.82,0.35-1.46V9.79z"/>
	<path d="M29.87,10.67v2.11h-0.99V7.09h2.18c0.64,0,1.14,0.17,1.51,0.5s0.56,0.77,0.56,1.31c0,0.56-0.18,0.99-0.55,1.3
		c-0.37,0.31-0.88,0.46-1.54,0.46H29.87z M29.87,9.87h1.19c0.35,0,0.62-0.08,0.8-0.25s0.28-0.4,0.28-0.72
		c0-0.31-0.09-0.55-0.28-0.74s-0.45-0.28-0.77-0.28h-1.21V9.87z"/>
	<path d="M37.32,10.24h-2.34v1.75h2.73v0.79H34V7.09h3.69v0.8h-2.7v1.57h2.34V10.24z"/>
	<path d="M43.03,12.78h-0.99l-2.54-4.04v4.04h-0.99V7.09h0.99l2.54,4.05V7.09h0.98V12.78z"/>
	<path d="M48.71,12.78h-0.99l-2.54-4.04v4.04H44.2V7.09h0.99l2.54,4.05V7.09h0.98V12.78z"/>
	<path d="M53.21,10.24h-2.34v1.75h2.73v0.79h-3.72V7.09h3.69v0.8h-2.7v1.57h2.34V10.24z"/>
	<path d="M57.38,11.31c0-0.25-0.09-0.44-0.26-0.58s-0.49-0.27-0.95-0.41c-0.46-0.14-0.82-0.29-1.09-0.46
		c-0.52-0.33-0.78-0.75-0.78-1.27c0-0.46,0.19-0.84,0.56-1.13c0.37-0.3,0.86-0.45,1.46-0.45c0.4,0,0.75,0.07,1.06,0.22
		c0.31,0.15,0.55,0.35,0.73,0.62c0.18,0.27,0.27,0.57,0.27,0.9h-0.98c0-0.3-0.09-0.53-0.28-0.7c-0.19-0.17-0.45-0.25-0.8-0.25
		c-0.32,0-0.57,0.07-0.75,0.21c-0.18,0.14-0.27,0.33-0.27,0.58c0,0.21,0.1,0.38,0.29,0.52c0.19,0.14,0.51,0.27,0.95,0.41
		c0.44,0.13,0.8,0.28,1.07,0.45c0.27,0.17,0.46,0.36,0.59,0.58s0.19,0.47,0.19,0.76c0,0.47-0.18,0.85-0.54,1.13
		s-0.86,0.42-1.48,0.42c-0.41,0-0.79-0.08-1.13-0.23c-0.35-0.15-0.61-0.36-0.8-0.63s-0.29-0.58-0.29-0.94h0.99
		c0,0.32,0.11,0.57,0.32,0.75c0.21,0.18,0.52,0.27,0.92,0.27c0.34,0,0.6-0.07,0.78-0.21C57.29,11.73,57.38,11.54,57.38,11.31z"/>
	<path d="M62.21,11.31c0-0.25-0.09-0.44-0.26-0.58s-0.49-0.27-0.95-0.41c-0.46-0.14-0.82-0.29-1.09-0.46
		c-0.52-0.33-0.78-0.75-0.78-1.27c0-0.46,0.19-0.84,0.56-1.13c0.37-0.3,0.86-0.45,1.46-0.45c0.4,0,0.75,0.07,1.06,0.22
		c0.31,0.15,0.55,0.35,0.73,0.62c0.18,0.27,0.27,0.57,0.27,0.9h-0.98c0-0.3-0.09-0.53-0.28-0.7c-0.19-0.17-0.45-0.25-0.8-0.25
		c-0.32,0-0.57,0.07-0.75,0.21c-0.18,0.14-0.27,0.33-0.27,0.58c0,0.21,0.1,0.38,0.29,0.52c0.19,0.14,0.51,0.27,0.95,0.41
		c0.44,0.13,0.8,0.28,1.07,0.45c0.27,0.17,0.46,0.36,0.59,0.58s0.19,0.47,0.19,0.76c0,0.47-0.18,0.85-0.54,1.13
		s-0.86,0.42-1.48,0.42c-0.41,0-0.79-0.08-1.13-0.23c-0.35-0.15-0.61-0.36-0.8-0.63s-0.29-0.58-0.29-0.94h0.99
		c0,0.32,0.11,0.57,0.32,0.75c0.21,0.18,0.52,0.27,0.92,0.27c0.34,0,0.6-0.07,0.78-0.21C62.12,11.73,62.21,11.54,62.21,11.31z"/>
</g>
<g class="st0">
	<path d="M10.39,19.21v0.39h0.28v0.26h-0.28v0.88c0,0.06,0.01,0.1,0.04,0.13c0.02,0.03,0.07,0.04,0.13,0.04c0.04,0,0.08,0,0.12-0.01
		v0.28c-0.08,0.02-0.16,0.03-0.23,0.03c-0.27,0-0.41-0.15-0.41-0.45v-0.9H9.77V19.6h0.26v-0.39H10.39z"/>
	<path d="M10.83,20.38c0-0.16,0.03-0.3,0.09-0.42c0.06-0.12,0.15-0.22,0.26-0.29c0.11-0.07,0.24-0.1,0.38-0.1
		c0.21,0,0.39,0.07,0.52,0.21c0.13,0.14,0.21,0.32,0.22,0.55l0,0.08c0,0.16-0.03,0.3-0.09,0.42c-0.06,0.12-0.15,0.22-0.26,0.29
		c-0.11,0.07-0.24,0.1-0.39,0.1c-0.22,0-0.4-0.07-0.54-0.22c-0.13-0.15-0.2-0.35-0.2-0.59V20.38z M11.19,20.41
		c0,0.16,0.03,0.29,0.1,0.38c0.07,0.09,0.16,0.14,0.28,0.14s0.21-0.05,0.28-0.14c0.07-0.09,0.1-0.23,0.1-0.41
		c0-0.16-0.03-0.29-0.1-0.38c-0.07-0.09-0.16-0.14-0.28-0.14c-0.12,0-0.21,0.05-0.28,0.14C11.22,20.08,11.19,20.22,11.19,20.41z"/>
	<path d="M14.74,20.41c0,0.25-0.05,0.44-0.17,0.59c-0.11,0.15-0.26,0.22-0.45,0.22c-0.19,0-0.33-0.07-0.43-0.2l-0.02,0.17h-0.32
		v-2.25h0.36v0.82c0.1-0.12,0.24-0.18,0.41-0.18c0.19,0,0.35,0.07,0.46,0.22c0.11,0.14,0.17,0.34,0.17,0.6V20.41z M14.39,20.38
		c0-0.17-0.03-0.3-0.09-0.39s-0.15-0.13-0.26-0.13c-0.15,0-0.26,0.07-0.33,0.2v0.65c0.06,0.14,0.17,0.21,0.33,0.21
		c0.11,0,0.2-0.04,0.26-0.12s0.09-0.21,0.09-0.38V20.38z"/>
	<path d="M15.74,21.21c-0.23,0-0.41-0.07-0.55-0.21c-0.14-0.14-0.21-0.33-0.21-0.57v-0.04c0-0.16,0.03-0.3,0.09-0.42
		c0.06-0.12,0.15-0.22,0.26-0.29s0.23-0.1,0.37-0.1c0.22,0,0.38,0.07,0.5,0.21c0.12,0.14,0.18,0.33,0.18,0.58v0.14h-1.04
		c0.01,0.13,0.05,0.23,0.13,0.31s0.17,0.11,0.29,0.11c0.16,0,0.3-0.07,0.4-0.2l0.19,0.18c-0.06,0.09-0.15,0.17-0.25,0.22
		C15.99,21.18,15.87,21.21,15.74,21.21z M15.7,19.85c-0.1,0-0.18,0.03-0.24,0.1c-0.06,0.07-0.1,0.16-0.12,0.29h0.68v-0.03
		c-0.01-0.12-0.04-0.21-0.1-0.27C15.87,19.88,15.8,19.85,15.7,19.85z"/>
	<path d="M17.33,20.38c0-0.16,0.03-0.3,0.09-0.42c0.06-0.12,0.15-0.22,0.26-0.29c0.11-0.07,0.24-0.1,0.38-0.1
		c0.21,0,0.39,0.07,0.52,0.21c0.13,0.14,0.21,0.32,0.22,0.55l0,0.08c0,0.16-0.03,0.3-0.09,0.42c-0.06,0.12-0.15,0.22-0.26,0.29
		c-0.11,0.07-0.24,0.1-0.39,0.1c-0.22,0-0.4-0.07-0.54-0.22c-0.13-0.15-0.2-0.35-0.2-0.59V20.38z M17.69,20.41
		c0,0.16,0.03,0.29,0.1,0.38c0.07,0.09,0.16,0.14,0.28,0.14s0.21-0.05,0.28-0.14c0.07-0.09,0.1-0.23,0.1-0.41
		c0-0.16-0.03-0.29-0.1-0.38c-0.07-0.09-0.16-0.14-0.28-0.14c-0.12,0-0.21,0.05-0.28,0.14C17.72,20.08,17.69,20.22,17.69,20.41z"/>
	<path d="M20.49,20.41c0,0.25-0.06,0.44-0.17,0.59c-0.11,0.15-0.26,0.22-0.45,0.22c-0.17,0-0.31-0.06-0.42-0.17v0.75h-0.36V19.6
		h0.33l0.01,0.16c0.1-0.13,0.25-0.19,0.43-0.19c0.19,0,0.35,0.07,0.45,0.22c0.11,0.14,0.17,0.34,0.17,0.6V20.41z M20.14,20.38
		c0-0.16-0.03-0.28-0.09-0.38c-0.06-0.09-0.15-0.14-0.27-0.14c-0.15,0-0.25,0.06-0.31,0.18v0.7c0.06,0.12,0.17,0.18,0.32,0.18
		c0.11,0,0.2-0.05,0.27-0.14C20.11,20.7,20.14,20.56,20.14,20.38z"/>
	<path d="M21.49,21.21c-0.23,0-0.41-0.07-0.55-0.21c-0.14-0.14-0.21-0.33-0.21-0.57v-0.04c0-0.16,0.03-0.3,0.09-0.42
		c0.06-0.12,0.15-0.22,0.26-0.29s0.23-0.1,0.37-0.1c0.22,0,0.38,0.07,0.5,0.21c0.12,0.14,0.18,0.33,0.18,0.58v0.14h-1.04
		c0.01,0.13,0.05,0.23,0.13,0.31s0.17,0.11,0.29,0.11c0.16,0,0.3-0.07,0.4-0.2l0.19,0.18c-0.06,0.09-0.15,0.17-0.25,0.22
		C21.74,21.18,21.63,21.21,21.49,21.21z M21.45,19.85c-0.1,0-0.18,0.03-0.24,0.1c-0.06,0.07-0.1,0.16-0.12,0.29h0.68v-0.03
		c-0.01-0.12-0.04-0.21-0.1-0.27C21.63,19.88,21.55,19.85,21.45,19.85z"/>
	<path d="M22.74,19.6l0.01,0.18c0.12-0.14,0.27-0.21,0.46-0.21c0.33,0,0.5,0.19,0.5,0.57v1.05h-0.36v-1.03
		c0-0.1-0.02-0.17-0.06-0.22c-0.04-0.05-0.11-0.07-0.21-0.07c-0.14,0-0.25,0.06-0.32,0.19v1.13H22.4V19.6H22.74z"/>
	<path d="M25.27,19.21v0.39h0.28v0.26h-0.28v0.88c0,0.06,0.01,0.1,0.04,0.13c0.02,0.03,0.07,0.04,0.13,0.04c0.04,0,0.08,0,0.12-0.01
		v0.28c-0.08,0.02-0.16,0.03-0.23,0.03c-0.27,0-0.41-0.15-0.41-0.45v-0.9h-0.26V19.6h0.26v-0.39H25.27z"/>
	<path d="M25.71,20.38c0-0.16,0.03-0.3,0.09-0.42c0.06-0.12,0.15-0.22,0.26-0.29c0.11-0.07,0.24-0.1,0.38-0.1
		c0.21,0,0.39,0.07,0.52,0.21c0.13,0.14,0.21,0.32,0.22,0.55l0,0.08c0,0.16-0.03,0.3-0.09,0.42c-0.06,0.12-0.15,0.22-0.26,0.29
		c-0.11,0.07-0.24,0.1-0.39,0.1c-0.22,0-0.4-0.07-0.54-0.22c-0.13-0.15-0.2-0.35-0.2-0.59V20.38z M26.06,20.41
		c0,0.16,0.03,0.29,0.1,0.38c0.07,0.09,0.16,0.14,0.28,0.14s0.21-0.05,0.28-0.14c0.07-0.09,0.1-0.23,0.1-0.41
		c0-0.16-0.03-0.29-0.1-0.38c-0.07-0.09-0.16-0.14-0.28-0.14c-0.12,0-0.21,0.05-0.28,0.14C26.1,20.08,26.06,20.22,26.06,20.41z"/>
	<path d="M28.56,19.6l0.01,0.18c0.12-0.14,0.27-0.21,0.46-0.21c0.33,0,0.5,0.19,0.5,0.57v1.05h-0.36v-1.03
		c0-0.1-0.02-0.17-0.06-0.22c-0.04-0.05-0.11-0.07-0.21-0.07c-0.14,0-0.25,0.06-0.32,0.19v1.13h-0.36V19.6H28.56z"/>
	<path d="M30.6,21.21c-0.23,0-0.41-0.07-0.55-0.21c-0.14-0.14-0.21-0.33-0.21-0.57v-0.04c0-0.16,0.03-0.3,0.09-0.42
		c0.06-0.12,0.15-0.22,0.26-0.29s0.23-0.1,0.37-0.1c0.22,0,0.38,0.07,0.5,0.21c0.12,0.14,0.18,0.33,0.18,0.58v0.14H30.2
		c0.01,0.13,0.05,0.23,0.13,0.31s0.17,0.11,0.29,0.11c0.16,0,0.3-0.07,0.4-0.2l0.19,0.18c-0.06,0.09-0.15,0.17-0.25,0.22
		C30.85,21.18,30.73,21.21,30.6,21.21z M30.55,19.85c-0.1,0-0.18,0.03-0.24,0.1c-0.06,0.07-0.1,0.16-0.12,0.29h0.68v-0.03
		c-0.01-0.12-0.04-0.21-0.1-0.27C30.73,19.88,30.65,19.85,30.55,19.85z"/>
	<path d="M32.9,20.69l0.25-1.09h0.35l-0.43,1.58h-0.29l-0.34-1.09l-0.33,1.09h-0.29l-0.43-1.58h0.35l0.26,1.08l0.33-1.08h0.27
		L32.9,20.69z"/>
	<path d="M35.18,21.21c-0.23,0-0.41-0.07-0.55-0.21c-0.14-0.14-0.21-0.33-0.21-0.57v-0.04c0-0.16,0.03-0.3,0.09-0.42
		c0.06-0.12,0.15-0.22,0.26-0.29s0.23-0.1,0.37-0.1c0.22,0,0.38,0.07,0.5,0.21c0.12,0.14,0.18,0.33,0.18,0.58v0.14h-1.04
		c0.01,0.13,0.05,0.23,0.13,0.31s0.17,0.11,0.29,0.11c0.16,0,0.3-0.07,0.4-0.2l0.19,0.18c-0.06,0.09-0.15,0.17-0.25,0.22
		C35.43,21.18,35.31,21.21,35.18,21.21z M35.14,19.85c-0.1,0-0.18,0.03-0.24,0.1c-0.06,0.07-0.1,0.16-0.12,0.29h0.68v-0.03
		c-0.01-0.12-0.04-0.21-0.1-0.27C35.32,19.88,35.24,19.85,35.14,19.85z"/>
	<path d="M36.66,20.12l0.3-0.52h0.4l-0.48,0.78l0.5,0.8h-0.39l-0.32-0.54l-0.31,0.54h-0.4l0.5-0.8l-0.48-0.78h0.39L36.66,20.12z"/>
	<path d="M38.99,20.41c0,0.25-0.06,0.44-0.17,0.59c-0.11,0.15-0.26,0.22-0.45,0.22c-0.17,0-0.31-0.06-0.42-0.17v0.75H37.6V19.6h0.33
		l0.01,0.16c0.1-0.13,0.25-0.19,0.43-0.19c0.19,0,0.35,0.07,0.45,0.22c0.11,0.14,0.17,0.34,0.17,0.6V20.41z M38.64,20.38
		c0-0.16-0.03-0.28-0.09-0.38c-0.06-0.09-0.15-0.14-0.27-0.14c-0.15,0-0.25,0.06-0.31,0.18v0.7c0.06,0.12,0.17,0.18,0.32,0.18
		c0.11,0,0.2-0.05,0.27-0.14C38.6,20.7,38.64,20.56,38.64,20.38z"/>
	<path d="M39.99,21.21c-0.23,0-0.41-0.07-0.55-0.21c-0.14-0.14-0.21-0.33-0.21-0.57v-0.04c0-0.16,0.03-0.3,0.09-0.42
		c0.06-0.12,0.15-0.22,0.26-0.29s0.23-0.1,0.37-0.1c0.22,0,0.38,0.07,0.5,0.21c0.12,0.14,0.18,0.33,0.18,0.58v0.14h-1.04
		c0.01,0.13,0.05,0.23,0.13,0.31s0.17,0.11,0.29,0.11c0.16,0,0.3-0.07,0.4-0.2l0.19,0.18c-0.06,0.09-0.15,0.17-0.25,0.22
		C40.24,21.18,40.12,21.21,39.99,21.21z M39.95,19.85c-0.1,0-0.18,0.03-0.24,0.1c-0.06,0.07-0.1,0.16-0.12,0.29h0.68v-0.03
		c-0.01-0.12-0.04-0.21-0.1-0.27C40.12,19.88,40.05,19.85,39.95,19.85z"/>
	<path d="M41.73,19.92c-0.05-0.01-0.1-0.01-0.15-0.01c-0.16,0-0.27,0.06-0.33,0.19v1.08H40.9V19.6h0.34l0.01,0.18
		c0.09-0.14,0.21-0.21,0.36-0.21c0.05,0,0.09,0.01,0.13,0.02L41.73,19.92z"/>
	<path d="M41.96,19.19c0-0.05,0.02-0.1,0.05-0.14c0.03-0.04,0.08-0.05,0.15-0.05s0.11,0.02,0.15,0.05s0.05,0.08,0.05,0.14
		c0,0.05-0.02,0.1-0.05,0.13c-0.04,0.04-0.08,0.05-0.15,0.05s-0.11-0.02-0.15-0.05C41.97,19.28,41.96,19.24,41.96,19.19z
		 M42.34,21.18h-0.36V19.6h0.36V21.18z"/>
	<path d="M43.42,21.21c-0.23,0-0.41-0.07-0.55-0.21c-0.14-0.14-0.21-0.33-0.21-0.57v-0.04c0-0.16,0.03-0.3,0.09-0.42
		c0.06-0.12,0.15-0.22,0.26-0.29s0.23-0.1,0.37-0.1c0.22,0,0.38,0.07,0.5,0.21c0.12,0.14,0.18,0.33,0.18,0.58v0.14h-1.04
		c0.01,0.13,0.05,0.23,0.13,0.31s0.17,0.11,0.29,0.11c0.16,0,0.3-0.07,0.4-0.2l0.19,0.18c-0.06,0.09-0.15,0.17-0.25,0.22
		C43.67,21.18,43.55,21.21,43.42,21.21z M43.38,19.85c-0.1,0-0.18,0.03-0.24,0.1c-0.06,0.07-0.1,0.16-0.12,0.29h0.68v-0.03
		c-0.01-0.12-0.04-0.21-0.1-0.27C43.55,19.88,43.48,19.85,43.38,19.85z"/>
	<path d="M44.66,19.6l0.01,0.18c0.12-0.14,0.27-0.21,0.46-0.21c0.33,0,0.5,0.19,0.5,0.57v1.05h-0.36v-1.03
		c0-0.1-0.02-0.17-0.06-0.22c-0.04-0.05-0.12-0.07-0.21-0.07c-0.14,0-0.25,0.06-0.32,0.19v1.13h-0.36V19.6H44.66z"/>
	<path d="M46.65,20.93c0.09,0,0.16-0.03,0.22-0.08s0.09-0.12,0.09-0.19h0.34c0,0.1-0.04,0.19-0.09,0.28
		c-0.06,0.08-0.14,0.15-0.23,0.2c-0.1,0.05-0.21,0.07-0.32,0.07c-0.22,0-0.4-0.07-0.53-0.21c-0.13-0.14-0.19-0.34-0.19-0.6v-0.04
		c0-0.24,0.06-0.43,0.19-0.58c0.13-0.15,0.3-0.22,0.53-0.22c0.19,0,0.34,0.05,0.46,0.17c0.12,0.11,0.18,0.25,0.19,0.43h-0.34
		c0-0.09-0.04-0.17-0.09-0.22c-0.06-0.06-0.13-0.09-0.22-0.09c-0.12,0-0.2,0.04-0.27,0.12c-0.06,0.08-0.09,0.21-0.1,0.38v0.06
		c0,0.17,0.03,0.3,0.09,0.38C46.45,20.88,46.54,20.93,46.65,20.93z"/>
	<path d="M48.27,21.21c-0.23,0-0.41-0.07-0.55-0.21c-0.14-0.14-0.21-0.33-0.21-0.57v-0.04c0-0.16,0.03-0.3,0.09-0.42
		c0.06-0.12,0.15-0.22,0.26-0.29s0.23-0.1,0.37-0.1c0.22,0,0.38,0.07,0.5,0.21c0.12,0.14,0.18,0.33,0.18,0.58v0.14h-1.04
		c0.01,0.13,0.05,0.23,0.13,0.31c0.08,0.08,0.17,0.11,0.29,0.11c0.16,0,0.3-0.07,0.4-0.2l0.19,0.18c-0.06,0.09-0.15,0.17-0.25,0.22
		C48.52,21.18,48.4,21.21,48.27,21.21z M48.23,19.85c-0.1,0-0.18,0.03-0.24,0.1c-0.06,0.07-0.1,0.16-0.12,0.29h0.68v-0.03
		c-0.01-0.12-0.04-0.21-0.1-0.27C48.4,19.88,48.33,19.85,48.23,19.85z"/>
	<path d="M50.07,20.75c0-0.06-0.03-0.11-0.08-0.15c-0.05-0.03-0.14-0.06-0.26-0.09c-0.12-0.02-0.22-0.06-0.3-0.1
		c-0.18-0.09-0.27-0.21-0.27-0.37c0-0.14,0.06-0.25,0.17-0.34s0.26-0.14,0.44-0.14c0.19,0,0.34,0.05,0.46,0.14
		c0.12,0.09,0.17,0.22,0.17,0.36h-0.36c0-0.07-0.03-0.12-0.08-0.17c-0.05-0.05-0.12-0.07-0.2-0.07c-0.08,0-0.14,0.02-0.19,0.05
		c-0.05,0.04-0.07,0.08-0.07,0.14c0,0.05,0.02,0.1,0.07,0.13c0.05,0.03,0.14,0.06,0.28,0.09c0.14,0.03,0.25,0.07,0.33,0.11
		c0.08,0.04,0.14,0.09,0.18,0.15c0.04,0.06,0.06,0.13,0.06,0.22c0,0.14-0.06,0.26-0.18,0.35c-0.12,0.09-0.27,0.13-0.46,0.13
		c-0.13,0-0.25-0.02-0.35-0.07s-0.18-0.11-0.24-0.19s-0.08-0.17-0.08-0.27h0.35c0,0.08,0.04,0.15,0.1,0.19
		c0.06,0.05,0.14,0.07,0.23,0.07c0.09,0,0.17-0.02,0.21-0.05C50.04,20.86,50.07,20.81,50.07,20.75z"/>
	<path d="M50.78,21.66l-0.19-0.11c0.06-0.09,0.1-0.17,0.12-0.23c0.02-0.07,0.03-0.13,0.03-0.2v-0.28h0.32l0,0.26
		c0,0.1-0.03,0.21-0.08,0.31C50.93,21.51,50.86,21.59,50.78,21.66z"/>
	<path d="M52.14,19.19c0-0.05,0.02-0.1,0.05-0.14c0.03-0.04,0.08-0.05,0.15-0.05s0.11,0.02,0.15,0.05s0.05,0.08,0.05,0.14
		c0,0.05-0.02,0.1-0.05,0.13c-0.04,0.04-0.08,0.05-0.15,0.05s-0.11-0.02-0.15-0.05C52.15,19.28,52.14,19.24,52.14,19.19z
		 M52.51,21.18h-0.36V19.6h0.36V21.18z"/>
	<path d="M52.83,20.38c0-0.24,0.06-0.44,0.17-0.59c0.11-0.15,0.27-0.22,0.46-0.22c0.17,0,0.3,0.06,0.41,0.18v-0.81h0.36v2.25H53.9
		l-0.02-0.16c-0.11,0.13-0.25,0.19-0.43,0.19c-0.19,0-0.34-0.07-0.45-0.22C52.89,20.84,52.83,20.63,52.83,20.38z M53.19,20.41
		c0,0.16,0.03,0.29,0.09,0.38c0.06,0.09,0.15,0.14,0.26,0.14c0.15,0,0.25-0.06,0.32-0.19v-0.68c-0.07-0.13-0.17-0.19-0.32-0.19
		c-0.12,0-0.2,0.04-0.27,0.14C53.22,20.09,53.19,20.22,53.19,20.41z"/>
	<path d="M55.29,21.21c-0.23,0-0.41-0.07-0.55-0.21c-0.14-0.14-0.21-0.33-0.21-0.57v-0.04c0-0.16,0.03-0.3,0.09-0.42
		c0.06-0.12,0.15-0.22,0.26-0.29s0.23-0.1,0.37-0.1c0.22,0,0.38,0.07,0.5,0.21c0.12,0.14,0.18,0.33,0.18,0.58v0.14h-1.04
		c0.01,0.13,0.05,0.23,0.13,0.31c0.08,0.08,0.17,0.11,0.29,0.11c0.16,0,0.3-0.07,0.4-0.2l0.19,0.18c-0.06,0.09-0.15,0.17-0.25,0.22
		C55.54,21.18,55.42,21.21,55.29,21.21z M55.25,19.85c-0.1,0-0.18,0.03-0.24,0.1c-0.06,0.07-0.1,0.16-0.12,0.29h0.68v-0.03
		c-0.01-0.12-0.04-0.21-0.09-0.27C55.43,19.88,55.35,19.85,55.25,19.85z"/>
	<path d="M57.15,21.18c-0.02-0.03-0.03-0.08-0.04-0.15c-0.11,0.12-0.25,0.18-0.42,0.18c-0.16,0-0.29-0.04-0.39-0.14
		c-0.1-0.09-0.15-0.2-0.15-0.34c0-0.17,0.06-0.3,0.19-0.39c0.12-0.09,0.3-0.14,0.54-0.14h0.22v-0.1c0-0.08-0.02-0.15-0.07-0.2
		c-0.05-0.05-0.12-0.07-0.21-0.07c-0.08,0-0.15,0.02-0.2,0.06c-0.05,0.04-0.08,0.09-0.08,0.15h-0.36c0-0.09,0.03-0.17,0.09-0.24
		c0.06-0.08,0.14-0.13,0.24-0.18c0.1-0.04,0.21-0.06,0.33-0.06c0.19,0,0.33,0.05,0.44,0.14c0.11,0.09,0.17,0.22,0.17,0.39v0.71
		c0,0.14,0.02,0.26,0.06,0.34v0.03H57.15z M56.76,20.93c0.07,0,0.14-0.02,0.2-0.05c0.06-0.03,0.11-0.08,0.14-0.14v-0.3h-0.19
		c-0.13,0-0.23,0.02-0.3,0.07c-0.07,0.05-0.1,0.11-0.1,0.2c0,0.07,0.02,0.12,0.07,0.16C56.62,20.91,56.68,20.93,56.76,20.93z"/>
	<path d="M58.72,20.75c0-0.06-0.03-0.11-0.08-0.15c-0.05-0.03-0.14-0.06-0.26-0.09c-0.12-0.02-0.22-0.06-0.3-0.1
		c-0.18-0.09-0.27-0.21-0.27-0.37c0-0.14,0.06-0.25,0.17-0.34s0.26-0.14,0.44-0.14c0.19,0,0.34,0.05,0.46,0.14
		c0.12,0.09,0.17,0.22,0.17,0.36H58.7c0-0.07-0.03-0.12-0.08-0.17c-0.05-0.05-0.12-0.07-0.2-0.07c-0.08,0-0.14,0.02-0.19,0.05
		c-0.05,0.04-0.07,0.08-0.07,0.14c0,0.05,0.02,0.1,0.07,0.13c0.05,0.03,0.14,0.06,0.28,0.09c0.14,0.03,0.25,0.07,0.33,0.11
		c0.08,0.04,0.14,0.09,0.18,0.15c0.04,0.06,0.06,0.13,0.06,0.22c0,0.14-0.06,0.26-0.18,0.35c-0.12,0.09-0.27,0.13-0.46,0.13
		c-0.13,0-0.25-0.02-0.35-0.07s-0.18-0.11-0.24-0.19s-0.08-0.17-0.08-0.27h0.35c0,0.08,0.04,0.15,0.09,0.19
		c0.06,0.05,0.14,0.07,0.23,0.07c0.09,0,0.17-0.02,0.21-0.05C58.69,20.86,58.72,20.81,58.72,20.75z"/>
	<path d="M59.43,21.66l-0.19-0.11c0.06-0.09,0.09-0.17,0.12-0.23c0.02-0.07,0.03-0.13,0.03-0.2v-0.28h0.32l0,0.26
		c0,0.1-0.03,0.21-0.08,0.31C59.57,21.51,59.51,21.59,59.43,21.66z"/>
	<path d="M61.73,21.18c-0.02-0.03-0.03-0.08-0.04-0.15c-0.11,0.12-0.25,0.18-0.42,0.18c-0.16,0-0.29-0.04-0.39-0.14
		c-0.1-0.09-0.15-0.2-0.15-0.34c0-0.17,0.06-0.3,0.19-0.39c0.12-0.09,0.3-0.14,0.54-0.14h0.22v-0.1c0-0.08-0.02-0.15-0.07-0.2
		c-0.05-0.05-0.12-0.07-0.21-0.07c-0.08,0-0.15,0.02-0.2,0.06c-0.05,0.04-0.08,0.09-0.08,0.15h-0.36c0-0.09,0.03-0.17,0.09-0.24
		c0.06-0.08,0.14-0.13,0.24-0.18c0.1-0.04,0.21-0.06,0.33-0.06c0.19,0,0.33,0.05,0.44,0.14c0.11,0.09,0.17,0.22,0.17,0.39v0.71
		c0,0.14,0.02,0.26,0.06,0.34v0.03H61.73z M61.34,20.93c0.07,0,0.14-0.02,0.2-0.05c0.06-0.03,0.11-0.08,0.14-0.14v-0.3h-0.19
		c-0.13,0-0.23,0.02-0.3,0.07c-0.07,0.05-0.1,0.11-0.1,0.2c0,0.07,0.02,0.12,0.07,0.16C61.2,20.91,61.26,20.93,61.34,20.93z"/>
	<path d="M62.74,19.6l0.01,0.18c0.12-0.14,0.27-0.21,0.46-0.21c0.33,0,0.5,0.19,0.5,0.57v1.05h-0.36v-1.03
		c0-0.1-0.02-0.17-0.06-0.22c-0.04-0.05-0.12-0.07-0.21-0.07c-0.14,0-0.25,0.06-0.32,0.19v1.13H62.4V19.6H62.74z"/>
	<path d="M64.01,20.38c0-0.24,0.06-0.44,0.17-0.59c0.11-0.15,0.26-0.22,0.46-0.22c0.17,0,0.3,0.06,0.41,0.18v-0.81h0.36v2.25h-0.32
		l-0.02-0.16c-0.11,0.13-0.25,0.19-0.43,0.19c-0.19,0-0.34-0.07-0.45-0.22C64.06,20.84,64.01,20.63,64.01,20.38z M64.36,20.41
		c0,0.16,0.03,0.29,0.09,0.38c0.06,0.09,0.15,0.14,0.26,0.14c0.15,0,0.25-0.06,0.32-0.19v-0.68c-0.07-0.13-0.17-0.19-0.32-0.19
		c-0.12,0-0.2,0.04-0.27,0.14C64.39,20.09,64.36,20.22,64.36,20.41z"/>
	<path d="M66.45,20.38c0-0.16,0.03-0.3,0.09-0.42c0.06-0.12,0.15-0.22,0.26-0.29c0.11-0.07,0.24-0.1,0.38-0.1
		c0.21,0,0.39,0.07,0.52,0.21c0.13,0.14,0.21,0.32,0.22,0.55l0,0.08c0,0.16-0.03,0.3-0.09,0.42c-0.06,0.12-0.15,0.22-0.26,0.29
		c-0.11,0.07-0.24,0.1-0.39,0.1c-0.22,0-0.4-0.07-0.54-0.22c-0.13-0.15-0.2-0.35-0.2-0.59V20.38z M66.8,20.41
		c0,0.16,0.03,0.29,0.1,0.38c0.07,0.09,0.16,0.14,0.28,0.14s0.21-0.05,0.28-0.14c0.07-0.09,0.1-0.23,0.1-0.41
		c0-0.16-0.04-0.29-0.1-0.38c-0.07-0.09-0.16-0.14-0.28-0.14c-0.12,0-0.21,0.05-0.28,0.14C66.84,20.08,66.8,20.22,66.8,20.41z"/>
	<path d="M69.61,20.41c0,0.25-0.06,0.44-0.17,0.59c-0.11,0.15-0.26,0.22-0.45,0.22c-0.17,0-0.31-0.06-0.42-0.17v0.75h-0.36V19.6
		h0.33l0.01,0.16c0.1-0.13,0.25-0.19,0.43-0.19c0.19,0,0.34,0.07,0.45,0.22c0.11,0.14,0.17,0.34,0.17,0.6V20.41z M69.26,20.38
		c0-0.16-0.03-0.28-0.09-0.38c-0.06-0.09-0.15-0.14-0.27-0.14c-0.15,0-0.25,0.06-0.31,0.18v0.7c0.06,0.12,0.17,0.18,0.32,0.18
		c0.11,0,0.2-0.05,0.27-0.14C69.22,20.7,69.26,20.56,69.26,20.38z"/>
	<path d="M70.36,19.21v0.39h0.28v0.26h-0.28v0.88c0,0.06,0.01,0.1,0.04,0.13c0.02,0.03,0.07,0.04,0.13,0.04c0.04,0,0.08,0,0.12-0.01
		v0.28c-0.08,0.02-0.16,0.03-0.23,0.03c-0.27,0-0.41-0.15-0.41-0.45v-0.9h-0.26V19.6H70v-0.39H70.36z"/>
	<path d="M70.91,19.19c0-0.05,0.02-0.1,0.05-0.14c0.03-0.04,0.08-0.05,0.15-0.05s0.11,0.02,0.15,0.05s0.05,0.08,0.05,0.14
		c0,0.05-0.02,0.1-0.05,0.13c-0.04,0.04-0.08,0.05-0.15,0.05s-0.11-0.02-0.15-0.05C70.93,19.28,70.91,19.24,70.91,19.19z
		 M71.29,21.18h-0.36V19.6h0.36V21.18z"/>
	<path d="M71.61,20.38c0-0.16,0.03-0.3,0.09-0.42c0.06-0.12,0.15-0.22,0.26-0.29c0.11-0.07,0.24-0.1,0.38-0.1
		c0.21,0,0.39,0.07,0.52,0.21c0.13,0.14,0.21,0.32,0.22,0.55l0,0.08c0,0.16-0.03,0.3-0.09,0.42c-0.06,0.12-0.15,0.22-0.26,0.29
		c-0.11,0.07-0.24,0.1-0.39,0.1c-0.22,0-0.4-0.07-0.54-0.22c-0.13-0.15-0.2-0.35-0.2-0.59V20.38z M71.96,20.41
		c0,0.16,0.03,0.29,0.1,0.38c0.07,0.09,0.16,0.14,0.28,0.14s0.21-0.05,0.28-0.14c0.07-0.09,0.1-0.23,0.1-0.41
		c0-0.16-0.03-0.29-0.1-0.38c-0.07-0.09-0.16-0.14-0.28-0.14c-0.12,0-0.21,0.05-0.28,0.14C72,20.08,71.96,20.22,71.96,20.41z"/>
	<path d="M73.71,19.6l0.01,0.18c0.12-0.14,0.27-0.21,0.46-0.21c0.33,0,0.5,0.19,0.5,0.57v1.05h-0.36v-1.03
		c0-0.1-0.02-0.17-0.06-0.22c-0.04-0.05-0.12-0.07-0.21-0.07c-0.14,0-0.25,0.06-0.32,0.19v1.13h-0.36V19.6H73.71z"/>
	<path d="M75.94,20.75c0-0.06-0.03-0.11-0.08-0.15c-0.05-0.03-0.14-0.06-0.26-0.09c-0.12-0.02-0.22-0.06-0.3-0.1
		c-0.18-0.09-0.27-0.21-0.27-0.37c0-0.14,0.06-0.25,0.17-0.34s0.26-0.14,0.44-0.14c0.19,0,0.34,0.05,0.46,0.14
		c0.12,0.09,0.17,0.22,0.17,0.36h-0.36c0-0.07-0.03-0.12-0.08-0.17c-0.05-0.05-0.12-0.07-0.2-0.07c-0.08,0-0.14,0.02-0.19,0.05
		c-0.05,0.04-0.07,0.08-0.07,0.14c0,0.05,0.02,0.1,0.07,0.13c0.05,0.03,0.14,0.06,0.28,0.09c0.14,0.03,0.25,0.07,0.33,0.11
		c0.08,0.04,0.14,0.09,0.18,0.15c0.04,0.06,0.06,0.13,0.06,0.22c0,0.14-0.06,0.26-0.18,0.35c-0.12,0.09-0.27,0.13-0.46,0.13
		c-0.13,0-0.25-0.02-0.35-0.07s-0.18-0.11-0.24-0.19s-0.08-0.17-0.08-0.27h0.35c0,0.08,0.04,0.15,0.09,0.19
		c0.06,0.05,0.14,0.07,0.23,0.07c0.09,0,0.17-0.02,0.21-0.05C75.92,20.86,75.94,20.81,75.94,20.75z"/>
</g>
<rect x="44.87" y="25.77" class="st1" width="3.26" height="1.47"/>
</svg>
