<?xml version="1.0" encoding="utf-8"?>
<!-- Generator: Adobe Illustrator 24.3.0, SVG Export Plug-In . SVG Version: 6.00 Build 0)  -->
<svg version="1.1" id="Слой_1" xmlns="http://www.w3.org/2000/svg" xmlns:xlink="http://www.w3.org/1999/xlink" x="0px" y="0px"
	 viewBox="0 0 85.04 28.35" style="enable-background:new 0 0 85.04 28.35;" xml:space="preserve">
<style type="text/css">
	.st0{enable-background:new    ;}
	.st1{fill:none;}
</style>
<g class="st0">
	<path d="M27.05,10.67v2.11h-0.99V7.09h2.18c0.64,0,1.14,0.17,1.51,0.5s0.56,0.77,0.56,1.31c0,0.56-0.18,0.99-0.55,1.3
		c-0.37,0.31-0.88,0.46-1.54,0.46H27.05z M27.05,9.87h1.19c0.35,0,0.62-0.08,0.8-0.25s0.28-0.4,0.28-0.72
		c0-0.31-0.09-0.55-0.28-0.74s-0.45-0.28-0.77-0.28h-1.21V9.87z"/>
	<path d="M35.33,7.09v3.8c0,0.6-0.19,1.08-0.58,1.44s-0.9,0.53-1.54,0.53c-0.65,0-1.17-0.17-1.55-0.52s-0.57-0.83-0.57-1.45v-3.8
		h0.98v3.8c0,0.38,0.1,0.67,0.29,0.87s0.48,0.3,0.85,0.3c0.76,0,1.14-0.4,1.14-1.2V7.09H35.33z"/>
	<path d="M38.48,10.59h-1.1v2.19h-0.99V7.09h2c0.66,0,1.16,0.15,1.52,0.44c0.36,0.29,0.54,0.72,0.54,1.28c0,0.38-0.09,0.7-0.28,0.96
		s-0.44,0.45-0.77,0.59l1.28,2.37v0.05h-1.06L38.48,10.59z M37.37,9.79h1.02c0.33,0,0.59-0.08,0.78-0.25s0.28-0.4,0.28-0.69
		c0-0.3-0.09-0.54-0.26-0.71s-0.43-0.25-0.78-0.26h-1.04V9.79z"/>
	<path d="M42.37,10.67v2.11h-0.99V7.09h2.18c0.64,0,1.14,0.17,1.51,0.5c0.37,0.33,0.56,0.77,0.56,1.31c0,0.56-0.18,0.99-0.55,1.3
		c-0.37,0.31-0.88,0.46-1.54,0.46H42.37z M42.37,9.87h1.19c0.35,0,0.62-0.08,0.81-0.25c0.18-0.17,0.28-0.4,0.28-0.72
		c0-0.31-0.09-0.55-0.28-0.74s-0.45-0.28-0.77-0.28h-1.21V9.87z"/>
	<path d="M51.03,10.08c0,0.56-0.1,1.05-0.29,1.47c-0.19,0.42-0.47,0.74-0.83,0.97c-0.36,0.23-0.77,0.34-1.24,0.34
		c-0.46,0-0.87-0.11-1.23-0.34c-0.36-0.23-0.64-0.55-0.84-0.96c-0.2-0.42-0.3-0.9-0.3-1.44V9.79c0-0.55,0.1-1.04,0.29-1.47
		c0.2-0.42,0.47-0.75,0.83-0.97c0.36-0.23,0.77-0.34,1.23-0.34c0.46,0,0.87,0.11,1.23,0.33c0.36,0.22,0.63,0.54,0.83,0.96
		s0.29,0.9,0.3,1.46V10.08z M50.04,9.79c0-0.63-0.12-1.11-0.36-1.45s-0.58-0.5-1.01-0.5c-0.43,0-0.76,0.17-1,0.5
		c-0.24,0.33-0.36,0.81-0.37,1.42v0.33c0,0.62,0.12,1.11,0.37,1.45c0.24,0.34,0.58,0.51,1.01,0.51c0.44,0,0.77-0.17,1.01-0.5
		c0.24-0.33,0.35-0.82,0.35-1.46V9.79z"/>
	<path d="M54.99,11.31c0-0.25-0.09-0.44-0.26-0.58s-0.49-0.27-0.95-0.41c-0.46-0.14-0.82-0.29-1.09-0.46
		c-0.52-0.33-0.78-0.75-0.78-1.27c0-0.46,0.19-0.84,0.56-1.13c0.37-0.3,0.86-0.45,1.46-0.45c0.4,0,0.75,0.07,1.06,0.22
		c0.31,0.15,0.55,0.35,0.73,0.62c0.18,0.27,0.27,0.57,0.27,0.9h-0.98c0-0.3-0.09-0.53-0.28-0.7c-0.19-0.17-0.45-0.25-0.8-0.25
		c-0.32,0-0.57,0.07-0.75,0.21c-0.18,0.14-0.27,0.33-0.27,0.58c0,0.21,0.1,0.38,0.29,0.52c0.19,0.14,0.51,0.27,0.95,0.41
		c0.44,0.13,0.8,0.28,1.07,0.45c0.27,0.17,0.46,0.36,0.59,0.58s0.19,0.47,0.19,0.76c0,0.47-0.18,0.85-0.54,1.13
		s-0.86,0.42-1.48,0.42c-0.41,0-0.79-0.08-1.13-0.23c-0.35-0.15-0.61-0.36-0.8-0.63s-0.29-0.58-0.29-0.94h0.99
		c0,0.32,0.11,0.57,0.32,0.75c0.21,0.18,0.52,0.27,0.92,0.27c0.34,0,0.6-0.07,0.78-0.21C54.9,11.73,54.99,11.54,54.99,11.31z"/>
	<path d="M60.17,10.24h-2.34v1.75h2.73v0.79h-3.72V7.09h3.69v0.8h-2.7v1.57h2.34V10.24z"/>
</g>
<g class="st0">
	<path d="M17.02,19.21v0.39h0.28v0.26h-0.28v0.88c0,0.06,0.01,0.1,0.04,0.13c0.02,0.03,0.07,0.04,0.13,0.04c0.04,0,0.08,0,0.12-0.01
		v0.28c-0.08,0.02-0.16,0.03-0.23,0.03c-0.27,0-0.41-0.15-0.41-0.45v-0.9H16.4V19.6h0.26v-0.39H17.02z"/>
	<path d="M17.46,20.38c0-0.16,0.03-0.3,0.09-0.42c0.06-0.12,0.15-0.22,0.26-0.29c0.11-0.07,0.24-0.1,0.38-0.1
		c0.21,0,0.39,0.07,0.52,0.21c0.13,0.14,0.21,0.32,0.22,0.55l0,0.08c0,0.16-0.03,0.3-0.09,0.42c-0.06,0.12-0.15,0.22-0.26,0.29
		c-0.11,0.07-0.24,0.1-0.39,0.1c-0.22,0-0.4-0.07-0.54-0.22c-0.13-0.15-0.2-0.35-0.2-0.59V20.38z M17.81,20.41
		c0,0.16,0.03,0.29,0.1,0.38c0.07,0.09,0.16,0.14,0.28,0.14s0.21-0.05,0.28-0.14c0.07-0.09,0.1-0.23,0.1-0.41
		c0-0.16-0.03-0.29-0.1-0.38c-0.07-0.09-0.16-0.14-0.28-0.14c-0.12,0-0.21,0.05-0.28,0.14C17.85,20.08,17.81,20.22,17.81,20.41z"/>
	<path d="M20.33,19.77c0.12-0.13,0.26-0.2,0.44-0.2c0.34,0,0.51,0.19,0.51,0.58v1.04h-0.36v-1.02c0-0.11-0.02-0.19-0.07-0.23
		c-0.05-0.04-0.12-0.07-0.21-0.07c-0.14,0-0.25,0.06-0.32,0.19v1.13h-0.36v-2.25h0.36V19.77z"/>
	<path d="M22.59,21.18c-0.02-0.03-0.03-0.08-0.04-0.15c-0.11,0.12-0.25,0.18-0.42,0.18c-0.16,0-0.29-0.04-0.39-0.14
		c-0.1-0.09-0.15-0.2-0.15-0.34c0-0.17,0.06-0.3,0.19-0.39c0.12-0.09,0.3-0.14,0.54-0.14h0.22v-0.1c0-0.08-0.02-0.15-0.07-0.2
		c-0.05-0.05-0.12-0.07-0.21-0.07c-0.08,0-0.15,0.02-0.2,0.06c-0.05,0.04-0.08,0.09-0.08,0.15h-0.36c0-0.09,0.03-0.17,0.09-0.24
		c0.06-0.08,0.14-0.13,0.24-0.18c0.1-0.04,0.21-0.06,0.33-0.06c0.19,0,0.33,0.05,0.44,0.14c0.11,0.09,0.17,0.22,0.17,0.39v0.71
		c0,0.14,0.02,0.26,0.06,0.34v0.03H22.59z M22.2,20.93c0.07,0,0.14-0.02,0.2-0.05s0.11-0.08,0.14-0.14v-0.3h-0.19
		c-0.13,0-0.23,0.02-0.3,0.07c-0.07,0.05-0.1,0.11-0.1,0.2c0,0.07,0.02,0.12,0.07,0.16C22.06,20.91,22.12,20.93,22.2,20.93z"/>
	<path d="M23.8,20.73l0.34-1.13h0.37l-0.55,1.58h-0.31l-0.55-1.58h0.37L23.8,20.73z"/>
	<path d="M25.41,21.21c-0.23,0-0.41-0.07-0.55-0.21c-0.14-0.14-0.21-0.33-0.21-0.57v-0.04c0-0.16,0.03-0.3,0.09-0.42
		c0.06-0.12,0.15-0.22,0.26-0.29s0.23-0.1,0.37-0.1c0.22,0,0.38,0.07,0.5,0.21c0.12,0.14,0.18,0.33,0.18,0.58v0.14h-1.04
		c0.01,0.13,0.05,0.23,0.13,0.31s0.17,0.11,0.29,0.11c0.16,0,0.3-0.07,0.4-0.2l0.19,0.18c-0.06,0.09-0.15,0.17-0.25,0.22
		C25.66,21.18,25.54,21.21,25.41,21.21z M25.36,19.85c-0.1,0-0.18,0.03-0.24,0.1c-0.06,0.07-0.1,0.16-0.12,0.29h0.68v-0.03
		c-0.01-0.12-0.04-0.21-0.1-0.27C25.54,19.88,25.46,19.85,25.36,19.85z"/>
	<path d="M27.4,19.6l0.01,0.17c0.11-0.13,0.26-0.19,0.46-0.19c0.21,0,0.36,0.08,0.44,0.24c0.12-0.16,0.28-0.24,0.49-0.24
		c0.17,0,0.3,0.05,0.39,0.15c0.09,0.1,0.13,0.24,0.13,0.43v1.04h-0.36v-1.03c0-0.1-0.02-0.17-0.07-0.22s-0.12-0.07-0.22-0.07
		c-0.08,0-0.15,0.02-0.2,0.06c-0.05,0.04-0.09,0.1-0.11,0.17l0,1.09h-0.36v-1.04c0-0.19-0.1-0.28-0.29-0.28
		c-0.14,0-0.24,0.06-0.3,0.17v1.15h-0.36V19.6H27.4z"/>
	<path d="M30.37,21.21c-0.23,0-0.41-0.07-0.55-0.21c-0.14-0.14-0.21-0.33-0.21-0.57v-0.04c0-0.16,0.03-0.3,0.09-0.42
		c0.06-0.12,0.15-0.22,0.26-0.29s0.23-0.1,0.37-0.1c0.22,0,0.38,0.07,0.5,0.21c0.12,0.14,0.18,0.33,0.18,0.58v0.14h-1.04
		c0.01,0.13,0.05,0.23,0.13,0.31s0.17,0.11,0.29,0.11c0.16,0,0.3-0.07,0.4-0.2l0.19,0.18c-0.06,0.09-0.15,0.17-0.25,0.22
		C30.62,21.18,30.51,21.21,30.37,21.21z M30.33,19.85c-0.1,0-0.18,0.03-0.24,0.1c-0.06,0.07-0.1,0.16-0.12,0.29h0.68v-0.03
		c-0.01-0.12-0.04-0.21-0.1-0.27C30.51,19.88,30.43,19.85,30.33,19.85z"/>
	<path d="M32.23,21.18c-0.02-0.03-0.03-0.08-0.04-0.15c-0.11,0.12-0.25,0.18-0.42,0.18c-0.16,0-0.29-0.04-0.39-0.14
		c-0.1-0.09-0.15-0.2-0.15-0.34c0-0.17,0.06-0.3,0.19-0.39c0.12-0.09,0.3-0.14,0.54-0.14h0.22v-0.1c0-0.08-0.02-0.15-0.07-0.2
		c-0.05-0.05-0.12-0.07-0.21-0.07c-0.08,0-0.15,0.02-0.2,0.06c-0.05,0.04-0.08,0.09-0.08,0.15h-0.36c0-0.09,0.03-0.17,0.09-0.24
		c0.06-0.08,0.14-0.13,0.24-0.18c0.1-0.04,0.21-0.06,0.33-0.06c0.19,0,0.33,0.05,0.44,0.14c0.11,0.09,0.17,0.22,0.17,0.39v0.71
		c0,0.14,0.02,0.26,0.06,0.34v0.03H32.23z M31.84,20.93c0.07,0,0.14-0.02,0.2-0.05s0.11-0.08,0.14-0.14v-0.3h-0.19
		c-0.13,0-0.23,0.02-0.3,0.07c-0.07,0.05-0.1,0.11-0.1,0.2c0,0.07,0.02,0.12,0.07,0.16C31.71,20.91,31.77,20.93,31.84,20.93z"/>
	<path d="M33.24,19.6l0.01,0.18c0.12-0.14,0.27-0.21,0.46-0.21c0.33,0,0.5,0.19,0.5,0.57v1.05h-0.36v-1.03
		c0-0.1-0.02-0.17-0.06-0.22c-0.04-0.05-0.11-0.07-0.21-0.07c-0.14,0-0.25,0.06-0.32,0.19v1.13H32.9V19.6H33.24z"/>
	<path d="M34.58,19.19c0-0.05,0.02-0.1,0.05-0.14c0.03-0.04,0.08-0.05,0.15-0.05s0.11,0.02,0.15,0.05s0.05,0.08,0.05,0.14
		c0,0.05-0.02,0.1-0.05,0.13c-0.04,0.04-0.08,0.05-0.15,0.05s-0.11-0.02-0.15-0.05C34.6,19.28,34.58,19.24,34.58,19.19z
		 M34.96,21.18H34.6V19.6h0.36V21.18z"/>
	<path d="M35.67,19.6l0.01,0.18c0.12-0.14,0.27-0.21,0.46-0.21c0.33,0,0.5,0.19,0.5,0.57v1.05h-0.36v-1.03
		c0-0.1-0.02-0.17-0.06-0.22c-0.04-0.05-0.11-0.07-0.21-0.07c-0.14,0-0.25,0.06-0.32,0.19v1.13h-0.36V19.6H35.67z"/>
	<path d="M36.95,20.38c0-0.25,0.06-0.44,0.17-0.59c0.12-0.15,0.27-0.22,0.46-0.22c0.18,0,0.32,0.06,0.43,0.19l0.02-0.16h0.32v1.54
		c0,0.21-0.06,0.37-0.19,0.49c-0.13,0.12-0.3,0.18-0.52,0.18c-0.12,0-0.23-0.02-0.34-0.07c-0.11-0.05-0.19-0.11-0.25-0.19l0.17-0.21
		c0.11,0.13,0.24,0.19,0.4,0.19c0.12,0,0.21-0.03,0.28-0.1c0.07-0.06,0.1-0.16,0.1-0.28v-0.11c-0.1,0.12-0.24,0.17-0.41,0.17
		c-0.19,0-0.34-0.07-0.45-0.22C37.01,20.84,36.95,20.64,36.95,20.38z M37.3,20.41c0,0.16,0.03,0.28,0.1,0.38
		c0.06,0.09,0.15,0.14,0.27,0.14c0.14,0,0.25-0.06,0.32-0.18v-0.7c-0.07-0.12-0.17-0.18-0.32-0.18c-0.12,0-0.21,0.05-0.27,0.14
		C37.34,20.09,37.3,20.23,37.3,20.41z"/>
	<path d="M40.41,21.18c-0.02-0.03-0.03-0.08-0.04-0.15c-0.11,0.12-0.25,0.18-0.42,0.18c-0.16,0-0.29-0.04-0.39-0.14
		c-0.1-0.09-0.15-0.2-0.15-0.34c0-0.17,0.06-0.3,0.19-0.39c0.12-0.09,0.3-0.14,0.54-0.14h0.22v-0.1c0-0.08-0.02-0.15-0.07-0.2
		c-0.05-0.05-0.12-0.07-0.21-0.07c-0.08,0-0.15,0.02-0.2,0.06c-0.05,0.04-0.08,0.09-0.08,0.15h-0.36c0-0.09,0.03-0.17,0.09-0.24
		c0.06-0.08,0.14-0.13,0.24-0.18c0.1-0.04,0.21-0.06,0.33-0.06c0.19,0,0.33,0.05,0.44,0.14c0.11,0.09,0.17,0.22,0.17,0.39v0.71
		c0,0.14,0.02,0.26,0.06,0.34v0.03H40.41z M40.02,20.93c0.07,0,0.14-0.02,0.2-0.05s0.11-0.08,0.14-0.14v-0.3h-0.19
		c-0.13,0-0.23,0.02-0.3,0.07c-0.07,0.05-0.1,0.11-0.1,0.2c0,0.07,0.02,0.12,0.07,0.16C39.88,20.91,39.94,20.93,40.02,20.93z"/>
	<path d="M41.41,19.6l0.01,0.18c0.12-0.14,0.27-0.21,0.46-0.21c0.33,0,0.5,0.19,0.5,0.57v1.05h-0.36v-1.03
		c0-0.1-0.02-0.17-0.06-0.22c-0.04-0.05-0.11-0.07-0.21-0.07c-0.14,0-0.25,0.06-0.32,0.19v1.13h-0.36V19.6H41.41z"/>
	<path d="M42.69,20.38c0-0.24,0.06-0.44,0.17-0.59c0.11-0.15,0.27-0.22,0.46-0.22c0.17,0,0.3,0.06,0.41,0.18v-0.81h0.36v2.25h-0.32
		l-0.02-0.16c-0.11,0.13-0.25,0.19-0.43,0.19c-0.19,0-0.34-0.07-0.45-0.22C42.74,20.84,42.69,20.63,42.69,20.38z M43.04,20.41
		c0,0.16,0.03,0.29,0.09,0.38c0.06,0.09,0.15,0.14,0.26,0.14c0.15,0,0.25-0.06,0.32-0.19v-0.68c-0.07-0.13-0.17-0.19-0.32-0.19
		c-0.12,0-0.2,0.04-0.27,0.14C43.07,20.09,43.04,20.22,43.04,20.41z"/>
	<path d="M45.12,20.38c0-0.24,0.06-0.44,0.17-0.59c0.11-0.15,0.27-0.22,0.46-0.22c0.17,0,0.3,0.06,0.41,0.18v-0.81h0.36v2.25h-0.32
		l-0.02-0.16c-0.11,0.13-0.25,0.19-0.43,0.19c-0.19,0-0.34-0.07-0.45-0.22C45.18,20.84,45.12,20.63,45.12,20.38z M45.48,20.41
		c0,0.16,0.03,0.29,0.09,0.38c0.06,0.09,0.15,0.14,0.26,0.14c0.15,0,0.25-0.06,0.32-0.19v-0.68c-0.07-0.13-0.17-0.19-0.32-0.19
		c-0.12,0-0.2,0.04-0.27,0.14C45.51,20.09,45.48,20.22,45.48,20.41z"/>
	<path d="M46.89,19.19c0-0.05,0.02-0.1,0.05-0.14c0.03-0.04,0.08-0.05,0.15-0.05s0.11,0.02,0.15,0.05s0.05,0.08,0.05,0.14
		c0,0.05-0.02,0.1-0.05,0.13c-0.04,0.04-0.08,0.05-0.15,0.05s-0.11-0.02-0.15-0.05C46.9,19.28,46.89,19.24,46.89,19.19z
		 M47.26,21.18h-0.36V19.6h0.36V21.18z"/>
	<path d="M48.48,19.92c-0.05-0.01-0.1-0.01-0.15-0.01c-0.16,0-0.27,0.06-0.33,0.19v1.08h-0.36V19.6h0.34L48,19.77
		c0.09-0.14,0.21-0.21,0.36-0.21c0.05,0,0.09,0.01,0.13,0.02L48.48,19.92z"/>
	<path d="M49.38,21.21c-0.23,0-0.41-0.07-0.55-0.21c-0.14-0.14-0.21-0.33-0.21-0.57v-0.04c0-0.16,0.03-0.3,0.09-0.42
		c0.06-0.12,0.15-0.22,0.26-0.29s0.23-0.1,0.37-0.1c0.22,0,0.38,0.07,0.5,0.21c0.12,0.14,0.18,0.33,0.18,0.58v0.14h-1.04
		c0.01,0.13,0.05,0.23,0.13,0.31c0.08,0.08,0.17,0.11,0.29,0.11c0.16,0,0.3-0.07,0.4-0.2l0.19,0.18c-0.06,0.09-0.15,0.17-0.25,0.22
		C49.63,21.18,49.51,21.21,49.38,21.21z M49.33,19.85c-0.1,0-0.18,0.03-0.24,0.1c-0.06,0.07-0.1,0.16-0.12,0.29h0.68v-0.03
		c-0.01-0.12-0.04-0.21-0.09-0.27C49.51,19.88,49.43,19.85,49.33,19.85z"/>
	<path d="M50.94,20.93c0.09,0,0.16-0.03,0.22-0.08s0.09-0.12,0.09-0.19h0.34c0,0.1-0.04,0.19-0.09,0.28
		c-0.06,0.08-0.14,0.15-0.23,0.2c-0.1,0.05-0.21,0.07-0.32,0.07c-0.22,0-0.4-0.07-0.53-0.21c-0.13-0.14-0.19-0.34-0.19-0.6v-0.04
		c0-0.24,0.06-0.43,0.19-0.58c0.13-0.15,0.3-0.22,0.53-0.22c0.19,0,0.34,0.05,0.46,0.17c0.12,0.11,0.18,0.25,0.19,0.43h-0.34
		c0-0.09-0.04-0.17-0.09-0.22c-0.06-0.06-0.13-0.09-0.22-0.09c-0.12,0-0.2,0.04-0.27,0.12c-0.06,0.08-0.09,0.21-0.1,0.38v0.06
		c0,0.17,0.03,0.3,0.09,0.38C50.73,20.88,50.82,20.93,50.94,20.93z"/>
	<path d="M52.3,19.21v0.39h0.28v0.26H52.3v0.88c0,0.06,0.01,0.1,0.04,0.13c0.02,0.03,0.07,0.04,0.13,0.04c0.04,0,0.08,0,0.12-0.01
		v0.28c-0.08,0.02-0.16,0.03-0.23,0.03c-0.27,0-0.41-0.15-0.41-0.45v-0.9h-0.26V19.6h0.26v-0.39H52.3z"/>
	<path d="M52.86,19.19c0-0.05,0.02-0.1,0.05-0.14c0.03-0.04,0.08-0.05,0.15-0.05s0.11,0.02,0.15,0.05s0.05,0.08,0.05,0.14
		c0,0.05-0.02,0.1-0.05,0.13c-0.04,0.04-0.08,0.05-0.15,0.05s-0.11-0.02-0.15-0.05C52.87,19.28,52.86,19.24,52.86,19.19z
		 M53.23,21.18h-0.36V19.6h0.36V21.18z"/>
	<path d="M53.56,20.38c0-0.16,0.03-0.3,0.09-0.42c0.06-0.12,0.15-0.22,0.26-0.29c0.11-0.07,0.24-0.1,0.38-0.1
		c0.21,0,0.39,0.07,0.52,0.21c0.13,0.14,0.21,0.32,0.22,0.55l0,0.08c0,0.16-0.03,0.3-0.09,0.42c-0.06,0.12-0.15,0.22-0.26,0.29
		c-0.11,0.07-0.24,0.1-0.39,0.1c-0.22,0-0.4-0.07-0.54-0.22c-0.13-0.15-0.2-0.35-0.2-0.59V20.38z M53.91,20.41
		c0,0.16,0.03,0.29,0.1,0.38c0.07,0.09,0.16,0.14,0.28,0.14s0.21-0.05,0.28-0.14c0.07-0.09,0.1-0.23,0.1-0.41
		c0-0.16-0.04-0.29-0.1-0.38c-0.07-0.09-0.16-0.14-0.28-0.14c-0.12,0-0.21,0.05-0.28,0.14C53.95,20.08,53.91,20.22,53.91,20.41z"/>
	<path d="M55.66,19.6l0.01,0.18c0.12-0.14,0.27-0.21,0.46-0.21c0.33,0,0.5,0.19,0.5,0.57v1.05h-0.36v-1.03
		c0-0.1-0.02-0.17-0.07-0.22c-0.04-0.05-0.11-0.07-0.21-0.07c-0.14,0-0.25,0.06-0.32,0.19v1.13h-0.36V19.6H55.66z"/>
	<path d="M57.75,19.19c0-0.05,0.02-0.1,0.05-0.14c0.03-0.04,0.08-0.05,0.15-0.05s0.11,0.02,0.15,0.05s0.05,0.08,0.05,0.14
		c0,0.05-0.02,0.1-0.05,0.13c-0.04,0.04-0.08,0.05-0.15,0.05s-0.11-0.02-0.15-0.05C57.76,19.28,57.75,19.24,57.75,19.19z
		 M58.12,21.18h-0.36V19.6h0.36V21.18z"/>
	<path d="M58.84,19.6l0.01,0.18c0.12-0.14,0.27-0.21,0.46-0.21c0.33,0,0.5,0.19,0.5,0.57v1.05h-0.36v-1.03
		c0-0.1-0.02-0.17-0.07-0.22c-0.04-0.05-0.11-0.07-0.21-0.07c-0.14,0-0.25,0.06-0.32,0.19v1.13h-0.36V19.6H58.84z"/>
	<path d="M61.26,19.6l0.01,0.17c0.11-0.13,0.26-0.19,0.46-0.19c0.21,0,0.36,0.08,0.43,0.24c0.12-0.16,0.28-0.24,0.49-0.24
		c0.17,0,0.3,0.05,0.39,0.15c0.08,0.1,0.13,0.24,0.13,0.43v1.04h-0.36v-1.03c0-0.1-0.02-0.17-0.07-0.22s-0.12-0.07-0.22-0.07
		c-0.08,0-0.15,0.02-0.2,0.06c-0.05,0.04-0.09,0.1-0.11,0.17l0,1.09h-0.36v-1.04c0-0.19-0.1-0.28-0.29-0.28
		c-0.14,0-0.24,0.06-0.3,0.17v1.15h-0.36V19.6H61.26z"/>
	<path d="M64.09,20.67l0.32-1.08h0.38l-0.63,1.83c-0.1,0.27-0.26,0.4-0.49,0.4c-0.05,0-0.11-0.01-0.17-0.03v-0.28l0.07,0
		c0.09,0,0.16-0.02,0.2-0.05c0.05-0.03,0.08-0.09,0.11-0.16l0.05-0.14l-0.56-1.58h0.38L64.09,20.67z"/>
	<path d="M66.12,21.18h-0.36v-2.25h0.36V21.18z"/>
	<path d="M66.51,19.19c0-0.05,0.02-0.1,0.05-0.14c0.03-0.04,0.08-0.05,0.15-0.05s0.11,0.02,0.15,0.05s0.05,0.08,0.05,0.14
		c0,0.05-0.02,0.1-0.05,0.13c-0.04,0.04-0.08,0.05-0.15,0.05s-0.11-0.02-0.15-0.05C66.53,19.28,66.51,19.24,66.51,19.19z
		 M66.89,21.18h-0.36V19.6h0.36V21.18z"/>
	<path d="M67.4,21.18v-1.32h-0.24V19.6h0.24v-0.15c0-0.18,0.05-0.31,0.15-0.41s0.23-0.14,0.41-0.14c0.06,0,0.13,0.01,0.2,0.03
		l-0.01,0.28c-0.04-0.01-0.08-0.01-0.14-0.01c-0.17,0-0.25,0.09-0.25,0.26v0.14h0.32v0.26h-0.32v1.32H67.4z"/>
	<path d="M69,21.21c-0.23,0-0.41-0.07-0.55-0.21c-0.14-0.14-0.21-0.33-0.21-0.57v-0.04c0-0.16,0.03-0.3,0.09-0.42
		c0.06-0.12,0.15-0.22,0.26-0.29s0.23-0.1,0.37-0.1c0.22,0,0.38,0.07,0.5,0.21c0.12,0.14,0.18,0.33,0.18,0.58v0.14H68.6
		c0.01,0.13,0.05,0.23,0.13,0.31c0.08,0.08,0.17,0.11,0.29,0.11c0.16,0,0.3-0.07,0.4-0.2l0.19,0.18c-0.06,0.09-0.15,0.17-0.25,0.22
		C69.25,21.18,69.14,21.21,69,21.21z M68.96,19.85c-0.1,0-0.18,0.03-0.24,0.1c-0.06,0.07-0.1,0.16-0.12,0.29h0.68v-0.03
		c-0.01-0.12-0.04-0.21-0.1-0.27C69.14,19.88,69.06,19.85,68.96,19.85z"/>
</g>
<rect x="44.87" y="25.77" class="st1" width="3.26" height="1.47"/>
</svg>
