<?xml version="1.0" encoding="utf-8"?>
<!-- Generator: Adobe Illustrator 24.3.0, SVG Export Plug-In . SVG Version: 6.00 Build 0)  -->
<svg version="1.1" id="Слой_1" xmlns="http://www.w3.org/2000/svg" xmlns:xlink="http://www.w3.org/1999/xlink" x="0px" y="0px"
	 viewBox="0 0 85.04 28.35" style="enable-background:new 0 0 85.04 28.35;" xml:space="preserve">
<g>
	<path d="M26.12,11.31c0-0.25-0.09-0.44-0.26-0.58s-0.49-0.27-0.95-0.41s-0.82-0.29-1.09-0.46c-0.52-0.33-0.78-0.75-0.78-1.27
		c0-0.46,0.19-0.84,0.56-1.13s0.86-0.45,1.46-0.45c0.4,0,0.75,0.07,1.06,0.22s0.55,0.35,0.73,0.62s0.27,0.57,0.27,0.9h-0.98
		c0-0.3-0.09-0.53-0.28-0.7s-0.45-0.25-0.8-0.25c-0.32,0-0.57,0.07-0.75,0.21s-0.27,0.33-0.27,0.58c0,0.21,0.1,0.38,0.29,0.52
		s0.51,0.27,0.95,0.41s0.8,0.28,1.07,0.45s0.46,0.36,0.59,0.58s0.19,0.47,0.19,0.76c0,0.47-0.18,0.85-0.54,1.13
		s-0.86,0.42-1.48,0.42c-0.41,0-0.79-0.08-1.13-0.23s-0.61-0.36-0.8-0.63s-0.29-0.58-0.29-0.94h0.99c0,0.32,0.11,0.57,0.32,0.75
		s0.52,0.27,0.92,0.27c0.34,0,0.6-0.07,0.78-0.21S26.12,11.54,26.12,11.31z"/>
	<path d="M31.3,10.24h-2.34v1.75h2.73v0.79h-3.72V7.09h3.69v0.8h-2.7v1.57h2.34V10.24z"/>
	<path d="M34.45,9.15l1.2-2.05h1.14l-1.72,2.82l1.76,2.87h-1.15l-1.22-2.09l-1.23,2.09h-1.15l1.76-2.87l-1.72-2.82h1.14L34.45,9.15z
		"/>
	<path d="M41.72,7.09v3.8c0,0.6-0.19,1.08-0.58,1.44s-0.9,0.53-1.54,0.53c-0.65,0-1.17-0.17-1.55-0.52s-0.57-0.83-0.57-1.45v-3.8
		h0.98v3.8c0,0.38,0.1,0.67,0.29,0.87s0.48,0.3,0.85,0.3c0.76,0,1.14-0.4,1.14-1.2V7.09H41.72z"/>
	<path d="M45.87,11.45h-2.2l-0.46,1.32h-1.03l2.15-5.69h0.89l2.15,5.69h-1.03L45.87,11.45z M43.95,10.66h1.65L44.77,8.3L43.95,10.66
		z"/>
	<path d="M49,11.99h2.58v0.79h-3.57V7.09H49V11.99z"/>
	<path d="M53.38,12.78H52.4V7.09h0.98V12.78z"/>
	<path d="M58.59,7.89h-1.77v4.89h-0.98V7.89h-1.76v-0.8h4.51V7.89z"/>
	<path d="M61.26,9.79l1.31-2.7h1.09l-1.91,3.59v2.09h-0.99v-2.09l-1.91-3.59h1.1L61.26,9.79z"/>
</g>
<g>
	<path d="M17.5,19.21v0.39h0.28v0.26H17.5v0.88c0,0.06,0.01,0.1,0.04,0.13c0.02,0.03,0.07,0.04,0.13,0.04c0.04,0,0.08,0,0.12-0.01
		v0.28c-0.08,0.02-0.16,0.03-0.23,0.03c-0.27,0-0.41-0.15-0.41-0.45v-0.9h-0.26V19.6h0.26v-0.39H17.5z"/>
	<path d="M17.94,20.38c0-0.16,0.03-0.3,0.09-0.42c0.06-0.12,0.15-0.22,0.26-0.29c0.11-0.07,0.24-0.1,0.38-0.1
		c0.21,0,0.39,0.07,0.52,0.21c0.13,0.14,0.21,0.32,0.22,0.55l0,0.08c0,0.16-0.03,0.3-0.09,0.42c-0.06,0.12-0.15,0.22-0.26,0.29
		c-0.11,0.07-0.24,0.1-0.39,0.1c-0.22,0-0.4-0.07-0.54-0.22c-0.13-0.15-0.2-0.35-0.2-0.59V20.38z M18.3,20.41
		c0,0.16,0.03,0.29,0.1,0.38c0.07,0.09,0.16,0.14,0.28,0.14s0.21-0.05,0.28-0.14c0.07-0.09,0.1-0.23,0.1-0.41
		c0-0.16-0.03-0.29-0.1-0.38c-0.07-0.09-0.16-0.14-0.28-0.14c-0.12,0-0.21,0.05-0.28,0.14C18.33,20.08,18.3,20.22,18.3,20.41z"/>
	<path d="M20.82,19.77c0.12-0.13,0.26-0.2,0.44-0.2c0.34,0,0.51,0.19,0.51,0.58v1.04h-0.36v-1.02c0-0.11-0.02-0.19-0.07-0.23
		c-0.05-0.04-0.12-0.07-0.21-0.07c-0.14,0-0.25,0.06-0.32,0.19v1.13h-0.36v-2.25h0.36V19.77z"/>
	<path d="M23.08,21.18c-0.02-0.03-0.03-0.08-0.04-0.15c-0.11,0.12-0.25,0.18-0.42,0.18c-0.16,0-0.29-0.04-0.39-0.14
		c-0.1-0.09-0.15-0.2-0.15-0.34c0-0.17,0.06-0.3,0.19-0.39c0.12-0.09,0.3-0.14,0.54-0.14h0.22v-0.1c0-0.08-0.02-0.15-0.07-0.2
		c-0.05-0.05-0.12-0.07-0.21-0.07c-0.08,0-0.15,0.02-0.2,0.06c-0.05,0.04-0.08,0.09-0.08,0.15h-0.36c0-0.09,0.03-0.17,0.09-0.24
		c0.06-0.08,0.14-0.13,0.24-0.18c0.1-0.04,0.21-0.06,0.33-0.06c0.19,0,0.33,0.05,0.44,0.14c0.11,0.09,0.17,0.22,0.17,0.39v0.71
		c0,0.14,0.02,0.26,0.06,0.34v0.03H23.08z M22.69,20.93c0.07,0,0.14-0.02,0.2-0.05s0.11-0.08,0.14-0.14v-0.3h-0.19
		c-0.13,0-0.23,0.02-0.3,0.07c-0.07,0.05-0.1,0.11-0.1,0.2c0,0.07,0.02,0.12,0.07,0.16C22.55,20.91,22.61,20.93,22.69,20.93z"/>
	<path d="M24.29,20.73l0.34-1.13h0.37l-0.55,1.58h-0.31l-0.55-1.58h0.37L24.29,20.73z"/>
	<path d="M25.89,21.21c-0.23,0-0.41-0.07-0.55-0.21c-0.14-0.14-0.21-0.33-0.21-0.57v-0.04c0-0.16,0.03-0.3,0.09-0.42
		c0.06-0.12,0.15-0.22,0.26-0.29s0.23-0.1,0.37-0.1c0.22,0,0.38,0.07,0.5,0.21c0.12,0.14,0.18,0.33,0.18,0.58v0.14h-1.04
		c0.01,0.13,0.05,0.23,0.13,0.31s0.17,0.11,0.29,0.11c0.16,0,0.3-0.07,0.4-0.2l0.19,0.18c-0.06,0.09-0.15,0.17-0.25,0.22
		C26.14,21.18,26.03,21.21,25.89,21.21z M25.85,19.85c-0.1,0-0.18,0.03-0.24,0.1c-0.06,0.07-0.1,0.16-0.12,0.29h0.68v-0.03
		c-0.01-0.12-0.04-0.21-0.1-0.27C26.03,19.88,25.95,19.85,25.85,19.85z"/>
	<path d="M28.5,21.18c-0.02-0.03-0.03-0.08-0.04-0.15c-0.11,0.12-0.25,0.18-0.42,0.18c-0.16,0-0.29-0.04-0.39-0.14
		c-0.1-0.09-0.15-0.2-0.15-0.34c0-0.17,0.06-0.3,0.19-0.39c0.12-0.09,0.3-0.14,0.54-0.14h0.22v-0.1c0-0.08-0.02-0.15-0.07-0.2
		c-0.05-0.05-0.12-0.07-0.21-0.07c-0.08,0-0.15,0.02-0.2,0.06c-0.05,0.04-0.08,0.09-0.08,0.15h-0.36c0-0.09,0.03-0.17,0.09-0.24
		c0.06-0.08,0.14-0.13,0.24-0.18c0.1-0.04,0.21-0.06,0.33-0.06c0.19,0,0.33,0.05,0.44,0.14c0.11,0.09,0.17,0.22,0.17,0.39v0.71
		c0,0.14,0.02,0.26,0.06,0.34v0.03H28.5z M28.11,20.93c0.07,0,0.14-0.02,0.2-0.05s0.11-0.08,0.14-0.14v-0.3h-0.19
		c-0.13,0-0.23,0.02-0.3,0.07c-0.07,0.05-0.1,0.11-0.1,0.2c0,0.07,0.02,0.12,0.07,0.16C27.97,20.91,28.03,20.93,28.11,20.93z"/>
	<path d="M29.51,19.6l0.01,0.18c0.12-0.14,0.27-0.21,0.46-0.21c0.33,0,0.5,0.19,0.5,0.57v1.05h-0.36v-1.03
		c0-0.1-0.02-0.17-0.06-0.22c-0.04-0.05-0.11-0.07-0.21-0.07c-0.14,0-0.25,0.06-0.32,0.19v1.13h-0.36V19.6H29.51z"/>
	<path d="M32.54,21.18c-0.02-0.03-0.03-0.08-0.04-0.15c-0.11,0.12-0.25,0.18-0.42,0.18c-0.16,0-0.29-0.04-0.39-0.14
		c-0.1-0.09-0.15-0.2-0.15-0.34c0-0.17,0.06-0.3,0.19-0.39c0.12-0.09,0.3-0.14,0.54-0.14h0.22v-0.1c0-0.08-0.02-0.15-0.07-0.2
		c-0.05-0.05-0.12-0.07-0.21-0.07c-0.08,0-0.15,0.02-0.2,0.06c-0.05,0.04-0.08,0.09-0.08,0.15h-0.36c0-0.09,0.03-0.17,0.09-0.24
		c0.06-0.08,0.14-0.13,0.24-0.18c0.1-0.04,0.21-0.06,0.33-0.06c0.19,0,0.33,0.05,0.44,0.14c0.11,0.09,0.17,0.22,0.17,0.39v0.71
		c0,0.14,0.02,0.26,0.06,0.34v0.03H32.54z M32.15,20.93c0.07,0,0.14-0.02,0.2-0.05s0.11-0.08,0.14-0.14v-0.3h-0.19
		c-0.13,0-0.23,0.02-0.3,0.07c-0.07,0.05-0.1,0.11-0.1,0.2c0,0.07,0.02,0.12,0.07,0.16C32.01,20.91,32.07,20.93,32.15,20.93z"/>
	<path d="M33.87,20.93c0.09,0,0.16-0.03,0.22-0.08s0.09-0.12,0.09-0.19h0.34c0,0.1-0.03,0.19-0.09,0.28
		c-0.06,0.08-0.14,0.15-0.23,0.2c-0.1,0.05-0.21,0.07-0.32,0.07c-0.22,0-0.4-0.07-0.53-0.21c-0.13-0.14-0.19-0.34-0.19-0.6v-0.04
		c0-0.24,0.06-0.43,0.19-0.58c0.13-0.15,0.3-0.22,0.53-0.22c0.19,0,0.34,0.05,0.46,0.17c0.12,0.11,0.18,0.25,0.19,0.43h-0.34
		c0-0.09-0.04-0.17-0.09-0.22c-0.06-0.06-0.13-0.09-0.22-0.09c-0.12,0-0.2,0.04-0.27,0.12c-0.06,0.08-0.09,0.21-0.1,0.38v0.06
		c0,0.17,0.03,0.3,0.09,0.38C33.66,20.88,33.75,20.93,33.87,20.93z"/>
	<path d="M35.23,19.21v0.39h0.28v0.26h-0.28v0.88c0,0.06,0.01,0.1,0.04,0.13c0.02,0.03,0.07,0.04,0.13,0.04c0.04,0,0.08,0,0.12-0.01
		v0.28c-0.08,0.02-0.16,0.03-0.23,0.03c-0.27,0-0.41-0.15-0.41-0.45v-0.9h-0.26V19.6h0.26v-0.39H35.23z"/>
	<path d="M35.78,19.19c0-0.05,0.02-0.1,0.05-0.14c0.03-0.04,0.08-0.05,0.15-0.05s0.11,0.02,0.15,0.05s0.05,0.08,0.05,0.14
		c0,0.05-0.02,0.1-0.05,0.13c-0.04,0.04-0.08,0.05-0.15,0.05s-0.11-0.02-0.15-0.05C35.8,19.28,35.78,19.24,35.78,19.19z
		 M36.16,21.18h-0.36V19.6h0.36V21.18z"/>
	<path d="M37.11,20.73l0.34-1.13h0.37l-0.55,1.58h-0.31L36.4,19.6h0.37L37.11,20.73z"/>
	<path d="M38.71,21.21c-0.23,0-0.41-0.07-0.55-0.21c-0.14-0.14-0.21-0.33-0.21-0.57v-0.04c0-0.16,0.03-0.3,0.09-0.42
		c0.06-0.12,0.15-0.22,0.26-0.29s0.23-0.1,0.37-0.1c0.22,0,0.38,0.07,0.5,0.21c0.12,0.14,0.18,0.33,0.18,0.58v0.14h-1.04
		c0.01,0.13,0.05,0.23,0.13,0.31s0.17,0.11,0.29,0.11c0.16,0,0.3-0.07,0.4-0.2l0.19,0.18c-0.06,0.09-0.15,0.17-0.25,0.22
		C38.96,21.18,38.84,21.21,38.71,21.21z M38.67,19.85c-0.1,0-0.18,0.03-0.24,0.1c-0.06,0.07-0.1,0.16-0.12,0.29H39v-0.03
		c-0.01-0.12-0.04-0.21-0.1-0.27C38.84,19.88,38.77,19.85,38.67,19.85z"/>
	<path d="M41.32,21.18c-0.02-0.03-0.03-0.08-0.04-0.15c-0.11,0.12-0.25,0.18-0.42,0.18c-0.16,0-0.29-0.04-0.39-0.14
		c-0.1-0.09-0.15-0.2-0.15-0.34c0-0.17,0.06-0.3,0.19-0.39c0.12-0.09,0.3-0.14,0.54-0.14h0.22v-0.1c0-0.08-0.02-0.15-0.07-0.2
		c-0.05-0.05-0.12-0.07-0.21-0.07c-0.08,0-0.15,0.02-0.2,0.06c-0.05,0.04-0.08,0.09-0.08,0.15h-0.36c0-0.09,0.03-0.17,0.09-0.24
		c0.06-0.08,0.14-0.13,0.24-0.18c0.1-0.04,0.21-0.06,0.33-0.06c0.19,0,0.33,0.05,0.44,0.14c0.11,0.09,0.17,0.22,0.17,0.39v0.71
		c0,0.14,0.02,0.26,0.06,0.34v0.03H41.32z M40.93,20.93c0.07,0,0.14-0.02,0.2-0.05c0.06-0.03,0.11-0.08,0.14-0.14v-0.3h-0.19
		c-0.13,0-0.23,0.02-0.3,0.07c-0.07,0.05-0.1,0.11-0.1,0.2c0,0.07,0.02,0.12,0.07,0.16C40.79,20.91,40.85,20.93,40.93,20.93z"/>
	<path d="M42.32,19.6l0.01,0.18c0.12-0.14,0.27-0.21,0.46-0.21c0.33,0,0.5,0.19,0.5,0.57v1.05h-0.36v-1.03
		c0-0.1-0.02-0.17-0.07-0.22c-0.04-0.05-0.12-0.07-0.21-0.07c-0.14,0-0.25,0.06-0.32,0.19v1.13h-0.36V19.6H42.32z"/>
	<path d="M43.59,20.38c0-0.24,0.06-0.44,0.17-0.59c0.11-0.15,0.27-0.22,0.46-0.22c0.17,0,0.3,0.06,0.41,0.18v-0.81h0.36v2.25h-0.32
		l-0.02-0.16c-0.11,0.13-0.25,0.19-0.43,0.19c-0.19,0-0.34-0.07-0.45-0.22C43.65,20.84,43.59,20.63,43.59,20.38z M43.95,20.41
		c0,0.16,0.03,0.29,0.09,0.38c0.06,0.09,0.15,0.14,0.26,0.14c0.15,0,0.25-0.06,0.32-0.19v-0.68c-0.07-0.13-0.17-0.19-0.32-0.19
		c-0.12,0-0.2,0.04-0.27,0.14C43.98,20.09,43.95,20.22,43.95,20.41z"/>
	<path d="M46.99,20.75c0-0.06-0.03-0.11-0.08-0.15c-0.05-0.03-0.14-0.06-0.26-0.09c-0.12-0.02-0.22-0.06-0.3-0.1
		c-0.18-0.09-0.27-0.21-0.27-0.37c0-0.14,0.06-0.25,0.17-0.34c0.11-0.09,0.26-0.14,0.44-0.14c0.19,0,0.34,0.05,0.46,0.14
		c0.12,0.09,0.17,0.22,0.17,0.36h-0.36c0-0.07-0.03-0.12-0.08-0.17c-0.05-0.05-0.12-0.07-0.2-0.07c-0.08,0-0.14,0.02-0.19,0.05
		c-0.05,0.04-0.07,0.08-0.07,0.14c0,0.05,0.02,0.1,0.07,0.13c0.05,0.03,0.14,0.06,0.28,0.09c0.14,0.03,0.25,0.07,0.33,0.11
		c0.08,0.04,0.14,0.09,0.18,0.15c0.04,0.06,0.06,0.13,0.06,0.22c0,0.14-0.06,0.26-0.18,0.35c-0.12,0.09-0.27,0.13-0.46,0.13
		c-0.13,0-0.25-0.02-0.35-0.07s-0.18-0.11-0.24-0.19c-0.06-0.08-0.09-0.17-0.09-0.27h0.35c0,0.08,0.04,0.15,0.1,0.19
		c0.06,0.05,0.14,0.07,0.23,0.07c0.09,0,0.17-0.02,0.21-0.05C46.97,20.86,46.99,20.81,46.99,20.75z"/>
	<path d="M48.6,21.18c-0.02-0.03-0.03-0.08-0.04-0.15c-0.11,0.12-0.25,0.18-0.42,0.18c-0.16,0-0.29-0.04-0.39-0.14
		c-0.1-0.09-0.15-0.2-0.15-0.34c0-0.17,0.06-0.3,0.19-0.39c0.12-0.09,0.3-0.14,0.54-0.14h0.22v-0.1c0-0.08-0.02-0.15-0.07-0.2
		c-0.05-0.05-0.12-0.07-0.21-0.07c-0.08,0-0.15,0.02-0.2,0.06c-0.05,0.04-0.08,0.09-0.08,0.15h-0.36c0-0.09,0.03-0.17,0.09-0.24
		c0.06-0.08,0.14-0.13,0.24-0.18c0.1-0.04,0.21-0.06,0.33-0.06c0.19,0,0.33,0.05,0.44,0.14c0.11,0.09,0.17,0.22,0.17,0.39v0.71
		c0,0.14,0.02,0.26,0.06,0.34v0.03H48.6z M48.21,20.93c0.07,0,0.14-0.02,0.2-0.05c0.06-0.03,0.11-0.08,0.14-0.14v-0.3h-0.19
		c-0.13,0-0.23,0.02-0.3,0.07c-0.07,0.05-0.1,0.11-0.1,0.2c0,0.07,0.02,0.12,0.07,0.16C48.07,20.91,48.13,20.93,48.21,20.93z"/>
	<path d="M49.72,19.21v0.39H50v0.26h-0.28v0.88c0,0.06,0.01,0.1,0.04,0.13c0.02,0.03,0.07,0.04,0.13,0.04c0.04,0,0.08,0,0.12-0.01
		v0.28c-0.08,0.02-0.16,0.03-0.23,0.03c-0.27,0-0.41-0.15-0.41-0.45v-0.9H49.1V19.6h0.26v-0.39H49.72z"/>
	<path d="M50.27,19.19c0-0.05,0.02-0.1,0.05-0.14c0.03-0.04,0.08-0.05,0.15-0.05s0.11,0.02,0.15,0.05s0.05,0.08,0.05,0.14
		c0,0.05-0.02,0.1-0.05,0.13c-0.04,0.04-0.08,0.05-0.15,0.05s-0.11-0.02-0.15-0.05C50.29,19.28,50.27,19.24,50.27,19.19z
		 M50.65,21.18h-0.36V19.6h0.36V21.18z"/>
	<path d="M51.93,20.75c0-0.06-0.03-0.11-0.08-0.15c-0.05-0.03-0.14-0.06-0.26-0.09c-0.12-0.02-0.22-0.06-0.3-0.1
		c-0.18-0.09-0.27-0.21-0.27-0.37c0-0.14,0.06-0.25,0.17-0.34c0.11-0.09,0.26-0.14,0.44-0.14c0.19,0,0.34,0.05,0.46,0.14
		c0.12,0.09,0.17,0.22,0.17,0.36h-0.36c0-0.07-0.03-0.12-0.08-0.17c-0.05-0.05-0.12-0.07-0.2-0.07c-0.08,0-0.14,0.02-0.19,0.05
		c-0.05,0.04-0.07,0.08-0.07,0.14c0,0.05,0.02,0.1,0.07,0.13c0.05,0.03,0.14,0.06,0.28,0.09c0.14,0.03,0.25,0.07,0.33,0.11
		c0.08,0.04,0.14,0.09,0.18,0.15c0.04,0.06,0.06,0.13,0.06,0.22c0,0.14-0.06,0.26-0.18,0.35c-0.12,0.09-0.27,0.13-0.46,0.13
		c-0.13,0-0.25-0.02-0.35-0.07s-0.18-0.11-0.24-0.19c-0.06-0.08-0.09-0.17-0.09-0.27h0.35c0,0.08,0.04,0.15,0.1,0.19
		c0.06,0.05,0.14,0.07,0.23,0.07c0.09,0,0.17-0.02,0.21-0.05C51.9,20.86,51.93,20.81,51.93,20.75z"/>
	<path d="M52.71,21.18v-1.32h-0.24V19.6h0.24v-0.15c0-0.18,0.05-0.31,0.15-0.41s0.23-0.14,0.41-0.14c0.06,0,0.13,0.01,0.2,0.03
		l-0.01,0.28c-0.04-0.01-0.08-0.01-0.14-0.01c-0.17,0-0.25,0.09-0.25,0.26v0.14h0.32v0.26h-0.32v1.32H52.71z"/>
	<path d="M54.2,20.67l0.32-1.08h0.38l-0.63,1.83c-0.1,0.27-0.26,0.4-0.49,0.4c-0.05,0-0.11-0.01-0.17-0.03v-0.28l0.07,0
		c0.09,0,0.16-0.02,0.2-0.05c0.05-0.03,0.08-0.09,0.11-0.16l0.05-0.14l-0.56-1.58h0.38L54.2,20.67z"/>
	<path d="M55.11,19.19c0-0.05,0.02-0.1,0.05-0.14c0.03-0.04,0.08-0.05,0.15-0.05s0.11,0.02,0.15,0.05s0.05,0.08,0.05,0.14
		c0,0.05-0.02,0.1-0.05,0.13c-0.04,0.04-0.08,0.05-0.15,0.05s-0.11-0.02-0.15-0.05C55.13,19.28,55.11,19.24,55.11,19.19z
		 M55.49,21.18h-0.36V19.6h0.36V21.18z"/>
	<path d="M56.21,19.6l0.01,0.18c0.12-0.14,0.27-0.21,0.46-0.21c0.33,0,0.5,0.19,0.5,0.57v1.05h-0.36v-1.03
		c0-0.1-0.02-0.17-0.07-0.22c-0.04-0.05-0.12-0.07-0.21-0.07c-0.14,0-0.25,0.06-0.32,0.19v1.13h-0.36V19.6H56.21z"/>
	<path d="M57.48,20.38c0-0.25,0.06-0.44,0.17-0.59c0.12-0.15,0.27-0.22,0.46-0.22c0.18,0,0.32,0.06,0.43,0.19l0.02-0.16h0.32v1.54
		c0,0.21-0.06,0.37-0.19,0.49c-0.13,0.12-0.3,0.18-0.52,0.18c-0.12,0-0.23-0.02-0.34-0.07c-0.11-0.05-0.2-0.11-0.25-0.19l0.17-0.21
		c0.11,0.13,0.24,0.19,0.4,0.19c0.12,0,0.21-0.03,0.28-0.1c0.07-0.06,0.1-0.16,0.1-0.28v-0.11c-0.1,0.12-0.24,0.17-0.41,0.17
		c-0.19,0-0.34-0.07-0.46-0.22C57.54,20.84,57.48,20.64,57.48,20.38z M57.84,20.41c0,0.16,0.03,0.28,0.1,0.38
		c0.06,0.09,0.15,0.14,0.27,0.14c0.14,0,0.25-0.06,0.32-0.18v-0.7c-0.07-0.12-0.17-0.18-0.32-0.18c-0.12,0-0.21,0.05-0.27,0.14
		C57.87,20.09,57.84,20.23,57.84,20.41z"/>
	<path d="M60.88,20.75c0-0.06-0.03-0.11-0.08-0.15c-0.05-0.03-0.14-0.06-0.26-0.09c-0.12-0.02-0.22-0.06-0.3-0.1
		c-0.18-0.09-0.27-0.21-0.27-0.37c0-0.14,0.06-0.25,0.17-0.34c0.11-0.09,0.26-0.14,0.44-0.14c0.19,0,0.34,0.05,0.46,0.14
		c0.12,0.09,0.17,0.22,0.17,0.36h-0.36c0-0.07-0.03-0.12-0.08-0.17c-0.05-0.05-0.12-0.07-0.2-0.07c-0.08,0-0.14,0.02-0.19,0.05
		c-0.05,0.04-0.07,0.08-0.07,0.14c0,0.05,0.02,0.1,0.07,0.13c0.05,0.03,0.14,0.06,0.28,0.09c0.14,0.03,0.25,0.07,0.33,0.11
		c0.08,0.04,0.14,0.09,0.18,0.15c0.04,0.06,0.06,0.13,0.06,0.22c0,0.14-0.06,0.26-0.18,0.35c-0.12,0.09-0.27,0.13-0.46,0.13
		c-0.13,0-0.25-0.02-0.35-0.07s-0.18-0.11-0.24-0.19c-0.06-0.08-0.09-0.17-0.09-0.27h0.35c0,0.08,0.04,0.15,0.1,0.19
		c0.06,0.05,0.14,0.07,0.23,0.07c0.09,0,0.17-0.02,0.21-0.05C60.86,20.86,60.88,20.81,60.88,20.75z"/>
	<path d="M62.24,21.21c-0.23,0-0.41-0.07-0.55-0.21c-0.14-0.14-0.21-0.33-0.21-0.57v-0.04c0-0.16,0.03-0.3,0.09-0.42
		c0.06-0.12,0.15-0.22,0.26-0.29c0.11-0.07,0.23-0.1,0.37-0.1c0.21,0,0.38,0.07,0.5,0.21c0.12,0.14,0.18,0.33,0.18,0.58v0.14h-1.04
		c0.01,0.13,0.05,0.23,0.13,0.31c0.08,0.08,0.17,0.11,0.29,0.11c0.16,0,0.3-0.07,0.4-0.2l0.19,0.18c-0.06,0.09-0.15,0.17-0.25,0.22
		C62.49,21.18,62.37,21.21,62.24,21.21z M62.2,19.85c-0.1,0-0.18,0.03-0.24,0.1c-0.06,0.07-0.1,0.16-0.12,0.29h0.68v-0.03
		c-0.01-0.12-0.04-0.21-0.09-0.27C62.37,19.88,62.29,19.85,62.2,19.85z"/>
	<path d="M63.72,20.12l0.3-0.52h0.4l-0.49,0.78l0.5,0.8h-0.39l-0.32-0.54l-0.31,0.54h-0.4l0.5-0.8l-0.48-0.78h0.39L63.72,20.12z"/>
	<path d="M65.78,21.18h-0.36v-2.25h0.36V21.18z"/>
	<path d="M66.17,19.19c0-0.05,0.02-0.1,0.05-0.14c0.03-0.04,0.08-0.05,0.15-0.05s0.11,0.02,0.15,0.05s0.05,0.08,0.05,0.14
		c0,0.05-0.02,0.1-0.05,0.13c-0.04,0.04-0.08,0.05-0.15,0.05s-0.11-0.02-0.15-0.05C66.19,19.28,66.17,19.24,66.17,19.19z
		 M66.55,21.18H66.2V19.6h0.36V21.18z"/>
	<path d="M67.06,21.18v-1.32h-0.24V19.6h0.24v-0.15c0-0.18,0.05-0.31,0.15-0.41s0.23-0.14,0.41-0.14c0.06,0,0.13,0.01,0.2,0.03
		l-0.01,0.28c-0.04-0.01-0.08-0.01-0.14-0.01c-0.17,0-0.25,0.09-0.25,0.26v0.14h0.32v0.26h-0.32v1.32H67.06z"/>
	<path d="M68.67,21.21c-0.23,0-0.41-0.07-0.55-0.21c-0.14-0.14-0.21-0.33-0.21-0.57v-0.04c0-0.16,0.03-0.3,0.09-0.42
		c0.06-0.12,0.15-0.22,0.26-0.29c0.11-0.07,0.23-0.1,0.37-0.1c0.21,0,0.38,0.07,0.5,0.21c0.12,0.14,0.18,0.33,0.18,0.58v0.14h-1.04
		c0.01,0.13,0.05,0.23,0.13,0.31c0.08,0.08,0.17,0.11,0.29,0.11c0.16,0,0.3-0.07,0.4-0.2l0.19,0.18c-0.06,0.09-0.15,0.17-0.25,0.22
		C68.92,21.18,68.8,21.21,68.67,21.21z M68.62,19.85c-0.1,0-0.18,0.03-0.24,0.1c-0.06,0.07-0.1,0.16-0.12,0.29h0.68v-0.03
		c-0.01-0.12-0.04-0.21-0.09-0.27C68.8,19.88,68.72,19.85,68.62,19.85z"/>
</g>
</svg>
